<svg width="21" height="20" viewBox="0 0 21 20" fill="none" xmlns="http://www.w3.org/2000/svg">
<g opacity="0.7">
<path d="M6.55859 4.375C6.55859 4.20924 6.62444 4.05027 6.74165 3.93306C6.85886 3.81585 7.01783 3.75 7.18359 3.75H8.85026C9.01602 3.75 9.17499 3.81585 9.2922 3.93306C9.40941 4.05027 9.47526 4.20924 9.47526 4.375C9.47526 4.54076 9.40941 4.69973 9.2922 4.81694C9.17499 4.93415 9.01602 5 8.85026 5H7.18359C7.01783 5 6.85886 4.93415 6.74165 4.81694C6.62444 4.69973 6.55859 4.54076 6.55859 4.375ZM8.01693 16.25C8.23794 16.25 8.4499 16.1622 8.60618 16.0059C8.76246 15.8496 8.85026 15.6377 8.85026 15.4167C8.85026 15.1957 8.76246 14.9837 8.60618 14.8274C8.4499 14.6711 8.23794 14.5833 8.01693 14.5833C7.79591 14.5833 7.58395 14.6711 7.42767 14.8274C7.27139 14.9837 7.18359 15.1957 7.18359 15.4167C7.18359 15.6377 7.27139 15.8496 7.42767 16.0059C7.58395 16.1622 7.79591 16.25 8.01693 16.25Z" fill="#9FA4AF"/>
<path fill-rule="evenodd" clip-rule="evenodd" d="M1.34766 2.29134C1.34766 1.48634 2.00099 0.833008 2.80599 0.833008H13.2227C14.0277 0.833008 14.681 1.48634 14.681 2.29134V17.708C14.681 18.0948 14.5273 18.4657 14.2539 18.7392C13.9804 19.0127 13.6094 19.1663 13.2227 19.1663H2.80599C2.41922 19.1663 2.04828 19.0127 1.77479 18.7392C1.5013 18.4657 1.34766 18.0948 1.34766 17.708V2.29134ZM2.80599 2.08301C2.75074 2.08301 2.69775 2.10496 2.65868 2.14403C2.61961 2.1831 2.59766 2.23609 2.59766 2.29134V17.708C2.59766 17.823 2.69099 17.9163 2.80599 17.9163H13.2227C13.2779 17.9163 13.3309 17.8944 13.37 17.8553C13.409 17.8162 13.431 17.7633 13.431 17.708V2.29134C13.431 2.23609 13.409 2.1831 13.37 2.14403C13.3309 2.10496 13.2779 2.08301 13.2227 2.08301H2.80599Z" fill="#9FA4AF"/>
</g>
</svg>
