<svg width="21" height="20" viewBox="0 0 21 20" fill="none" xmlns="http://www.w3.org/2000/svg">
<g opacity="0.7" clip-path="url(#clip0_569_70219)">
<path fill-rule="evenodd" clip-rule="evenodd" d="M1.47396 2.5C1.08718 2.5 0.716251 2.65365 0.442761 2.92714C0.16927 3.20063 0.015625 3.57156 0.015625 3.95833L0.015625 15.625C0.015625 16.43 0.668958 17.0833 1.47396 17.0833H18.5573C18.9441 17.0833 19.315 16.9297 19.5885 16.6562C19.862 16.3827 20.0156 16.0118 20.0156 15.625V3.95833C20.0156 3.57156 19.862 3.20063 19.5885 2.92714C19.315 2.65365 18.9441 2.5 18.5573 2.5H1.47396ZM1.26562 3.95833C1.26562 3.90308 1.28757 3.85009 1.32664 3.81102C1.36571 3.77195 1.4187 3.75 1.47396 3.75H18.5573C18.6125 3.75 18.6655 3.77195 18.7046 3.81102C18.7437 3.85009 18.7656 3.90308 18.7656 3.95833V4.66833L10.1323 10.5017C10.0978 10.525 10.0572 10.5374 10.0156 10.5374C9.97404 10.5374 9.93341 10.525 9.89896 10.5017L1.26562 4.66833V3.95833ZM1.26562 6.17667V15.625C1.26562 15.74 1.35896 15.8333 1.47396 15.8333H18.5573C18.6125 15.8333 18.6655 15.8114 18.7046 15.7723C18.7437 15.7332 18.7656 15.6803 18.7656 15.625V6.17667L10.8323 11.5375C10.339 11.8708 9.69229 11.8708 9.19896 11.5375L1.26562 6.17667Z" fill="#9FA4AF"/>
</g>
<defs>
<clipPath id="clip0_569_70219">
<rect width="20" height="20" fill="white" transform="translate(0.015625)"/>
</clipPath>
</defs>
</svg>
