<svg width="19" height="16" viewBox="0 0 19 16" fill="none" xmlns="http://www.w3.org/2000/svg">
<g opacity="0.4">
<path d="M4.44816 6.09261H13.5954C13.952 6.09261 14.2311 5.81354 14.2311 5.45695C14.2311 5.10036 13.952 4.82129 13.5954 4.82129H4.44816C4.09157 4.82129 3.8125 5.10036 3.8125 5.45695C3.8125 5.81354 4.09157 6.09261 4.44816 6.09261Z" fill="white"/>
<path d="M4.44816 9.16292H13.5954C13.952 9.16292 14.2311 8.88385 14.2311 8.52726C14.2311 8.17067 13.952 7.8916 13.5954 7.8916H4.44816C4.09157 7.8916 3.8125 8.17067 3.8125 8.52726C3.8125 8.88385 4.09157 9.16292 4.44816 9.16292Z" fill="white"/>
<path d="M0.651284 13.271H2.6978V15.3641C2.6978 15.6121 2.83733 15.8292 3.05438 15.9377C3.14741 15.9842 3.24043 15.9997 3.33345 15.9997C3.47299 15.9997 3.61252 15.9532 3.72105 15.8757L7.1319 13.2865H17.3955C17.7521 13.2865 18.0311 13.0075 18.0311 12.6509V1.34855C18.0311 0.99196 17.7521 0.712891 17.3955 0.712891H0.651284C0.294695 0.712891 0.015625 0.99196 0.015625 1.34855V12.6354C0.015625 12.992 0.310199 13.271 0.651284 13.271ZM1.28694 1.98421H16.7443V11.9997H6.91485C6.77531 11.9997 6.63578 12.0462 6.52725 12.1237L3.96911 14.0772V12.6354C3.96911 12.2788 3.69004 11.9997 3.33345 11.9997H1.28694V1.98421Z" fill="white"/>
</g>
</svg>
