<svg width="19" height="6" viewBox="0 0 19 6" fill="none" xmlns="http://www.w3.org/2000/svg">
<path d="M2.0611 5.01405C3.19079 5.01405 4.10658 4.09826 4.10658 2.96857C4.10658 1.83889 3.19079 0.923096 2.0611 0.923096C0.931417 0.923096 0.015625 1.83889 0.015625 2.96857C0.015625 4.09826 0.931417 5.01405 2.0611 5.01405Z" fill="#7A7F88"/>
<path d="M9.01569 5.01405C10.1454 5.01405 11.0612 4.09826 11.0612 2.96857C11.0612 1.83889 10.1454 0.923096 9.01569 0.923096C7.88601 0.923096 6.97021 1.83889 6.97021 2.96857C6.97021 4.09826 7.88601 5.01405 9.01569 5.01405Z" fill="#7A7F88"/>
<path d="M15.9703 5.01405C17.1 5.01405 18.0158 4.09826 18.0158 2.96857C18.0158 1.83889 17.1 0.923096 15.9703 0.923096C14.8406 0.923096 13.9248 1.83889 13.9248 2.96857C13.9248 4.09826 14.8406 5.01405 15.9703 5.01405Z" fill="#7A7F88"/>
</svg>
