<svg width="199" height="104" viewBox="0 0 199 104" fill="none" xmlns="http://www.w3.org/2000/svg">
<path d="M70.7486 58.107C71.2444 57.8265 71.7056 57.4334 72.1321 56.9276C72.5865 56.3838 73.0027 55.8121 73.3808 55.2127C73.7589 54.6134 74.1814 53.6527 74.6482 52.3307C75.1429 50.9707 75.5021 50.0368 75.7259 49.5292C75.8491 49.2399 75.9497 49.0216 76.0278 48.8743C76.1007 48.6941 76.1865 48.5963 76.2853 48.5807C76.3841 48.5652 76.5262 48.6103 76.7115 48.7161C76.8917 48.789 77.1317 48.92 77.4313 49.109C77.3392 49.5959 77.1204 50.4571 76.7749 51.6925C76.4242 52.8949 76.2054 53.756 76.1184 54.2759C75.8717 55.4957 75.8669 56.3232 76.1041 56.7583C76.3412 57.1934 76.7138 57.2022 77.2218 56.7849C77.4871 56.5407 77.7584 56.228 78.0359 55.8469C78.3463 55.4607 78.6186 55.0467 78.8528 54.6049C79.1199 54.1579 79.3567 53.7326 79.5631 53.329C79.7696 52.9253 79.9205 52.5979 80.016 52.3467C80.2757 52.7107 80.4089 53.1284 80.4156 53.5998C80.4552 54.066 80.3769 54.5338 80.1809 55.0033C79.9848 55.4728 79.6873 55.9414 79.2885 56.4091C78.9174 56.8387 78.4727 57.2292 77.9544 57.5807C77.1933 58.1053 76.4802 58.1838 75.815 57.8161C75.1445 57.4154 74.6545 56.767 74.3448 55.8709C74.0725 56.2849 73.7673 56.7041 73.4291 57.1285C73.091 57.5529 72.7286 57.9305 72.3419 58.2612C71.9501 58.5591 71.5289 58.7772 71.0783 58.9156C70.6606 59.0488 70.2144 59.0009 69.7397 58.7719C69.09 58.5029 68.6553 58.0989 68.4355 57.5599C68.2105 56.9879 68.1676 56.286 68.3067 55.4543C68.4128 54.6278 68.583 53.9936 68.8172 53.5518C69.0514 53.1101 69.3383 52.8962 69.6779 52.9103C70.0453 52.8862 70.4221 53.0294 70.8084 53.3398C70.168 55.0602 69.9161 56.2471 70.0526 56.9005C70.1892 57.5539 70.4212 57.9561 70.7486 58.107ZM81.7755 52.7784C81.716 53.9013 81.8377 54.6752 82.1408 55.0999C82.4386 55.4917 82.8206 55.6678 83.2868 55.6282C83.753 55.5886 84.2591 55.374 84.8052 54.9844C85.3842 54.5896 85.9199 54.1341 86.4124 53.618C86.9048 53.1018 87.3123 52.5822 87.6349 52.059C87.9905 51.5307 88.1943 51.1106 88.2465 50.7987C88.5184 51.0258 88.6586 51.2737 88.6672 51.5423C88.7086 51.8057 88.6703 52.0986 88.5523 52.4208C88.4343 52.7431 88.2504 53.0757 88.0007 53.4187C87.7839 53.7565 87.5342 54.0995 87.2515 54.4476C86.6862 55.144 85.9736 55.7622 85.1138 56.3024C84.2869 56.8374 83.4922 57.1481 82.7297 57.2343C81.9619 57.2876 81.2984 57.0377 80.7389 56.4846C80.1795 55.9315 79.8846 54.915 79.8542 53.435C79.8239 51.9551 80.1355 50.8263 80.7893 50.0486C81.4378 49.2379 82.2344 48.7245 83.1789 48.5084C84.0957 48.3304 84.7889 48.3395 85.2584 48.5356C85.7609 48.7265 86.0596 49.0169 86.1547 49.4069C86.2828 49.7916 86.2513 50.2352 86.0604 50.7377C85.8643 51.2072 85.5617 51.6429 85.1525 52.0447C84.7382 52.4136 84.2424 52.694 83.6652 52.8861C83.0829 53.0452 82.453 53.0093 81.7755 52.7784ZM81.8021 51.6607C82.147 51.7077 82.5256 51.6481 82.9382 51.482C83.3836 51.3107 83.7554 51.1003 84.0536 50.851C84.3848 50.5964 84.6171 50.3574 84.7507 50.1339C84.879 49.8775 84.8315 49.6825 84.608 49.549C83.8732 49.5971 83.2822 49.8082 82.8349 50.1822C82.4205 50.5511 82.0763 51.044 81.8021 51.6607ZM91.565 48.0495C91.9779 47.2422 92.0648 46.7224 91.8258 46.49C91.559 46.2958 91.2488 46.3615 90.8951 46.6871C90.5743 47.0075 90.1781 47.4916 89.7064 48.1395C89.4411 48.3836 89.1916 48.406 88.9577 48.2066C88.7239 48.0072 88.7154 47.7386 88.9322 47.4008L89.7385 46.4135C90.2535 45.8263 90.7693 45.4583 91.2858 45.3096C91.8022 45.1608 92.2623 45.1897 92.666 45.3961C93.1026 45.5974 93.4333 45.984 93.6583 46.556C93.8781 47.0951 93.9081 47.7146 93.7483 48.4146C93.7238 48.6884 93.2251 49.5936 92.2521 51.1301C91.3069 52.6286 90.8489 53.578 90.8781 53.9783C90.9125 54.4115 91.0831 54.6378 91.3898 54.657C91.7243 54.6381 92.0596 54.5179 92.396 54.2962C92.9801 53.9344 93.5679 53.4876 94.1591 52.9559C94.7503 52.4243 95.3199 51.8622 95.8678 51.2699C96.4105 50.6446 96.8432 50.0704 97.1658 49.5472C97.2868 50.1018 97.2606 50.5783 97.0871 50.9768C96.9135 51.3753 96.6361 51.7564 96.2546 52.1201C95.7171 52.7783 95.1327 53.4608 94.5015 54.1674C93.8981 54.836 93.1778 55.4049 92.3405 55.874C92.1204 55.9762 91.9141 56.0592 91.7217 56.1232L91.3188 56.136C91.045 56.1116 90.7799 56.0352 90.5235 55.9068C89.8028 55.6153 89.3083 55.1532 89.04 54.5206C88.9087 53.9001 88.9671 53.1992 89.2153 52.4178C89.4307 51.6415 89.8019 50.8914 90.3291 50.1673C90.7401 49.5627 91.1521 48.8568 91.565 48.0495ZM100.881 46.2294C100.657 46.7371 100.229 47.125 99.5965 47.3932C99.009 47.5194 98.4078 47.3441 97.7928 46.8672C97.6023 46.7284 97.4066 46.5568 97.2057 46.3522C97.0325 46.1095 96.8619 45.8832 96.694 45.6735C96.5589 45.4585 96.4568 45.2384 96.3876 45.0131C96.3132 44.7548 96.3428 44.514 96.4764 44.2905C96.6636 44.1935 96.8282 44.1676 96.9703 44.2128C97.1124 44.2579 97.2648 44.3689 97.4276 44.5457C97.6181 44.6845 97.8165 44.8726 98.0226 45.1101C98.2564 45.3095 98.5145 45.5558 98.7968 45.8488C99.0583 46.0101 99.607 45.6369 100.443 44.7294C100.958 44.1422 101.474 43.7742 101.99 43.6255C102.507 43.4767 102.967 43.5056 103.37 43.712C103.807 43.9133 104.138 44.2999 104.363 44.8719C104.582 45.4109 104.612 46.0305 104.453 46.7305C104.428 47.0043 103.929 47.9094 102.956 49.446C102.011 50.9445 101.553 51.8938 101.582 52.2942C101.617 52.7274 101.787 52.9536 102.094 52.9729C102.429 52.954 102.764 52.8337 103.1 52.6121C103.684 52.2503 104.272 51.8035 104.863 51.2718C105.455 50.7401 106.024 50.1781 106.572 49.5857C107.115 48.9605 107.547 48.3862 107.87 47.8631C107.991 48.4177 107.965 48.8942 107.791 49.2927C107.618 49.6912 107.34 50.0723 106.959 50.436C106.421 51.0942 105.837 51.7766 105.206 52.4833C104.602 53.1519 103.882 53.7207 103.045 54.1899C102.825 54.292 102.618 54.3751 102.426 54.4391L102.023 54.4519C101.749 54.4275 101.484 54.3511 101.228 54.2227C100.507 53.9312 100.013 53.4691 99.7443 52.8364C99.6129 52.216 99.6549 51.5176 99.8702 50.7414C100.118 49.96 100.506 49.2072 101.033 48.4832C101.444 47.8786 101.856 47.1727 102.269 46.3654C102.682 45.558 102.769 45.0382 102.53 44.8059C102.263 44.6116 101.97 44.6747 101.649 44.9951C101.356 45.2775 101.1 45.6889 100.881 46.2294ZM109.58 48.4039C109.52 49.5268 109.642 50.3006 109.945 50.7253C110.243 51.1171 110.625 51.2932 111.091 51.2536C111.557 51.214 112.064 50.9994 112.61 50.6098C113.189 50.215 113.724 49.7596 114.217 49.2434C114.709 48.7273 115.117 48.2076 115.439 47.6845C115.795 47.1561 115.999 46.736 116.051 46.4241C116.323 46.6513 116.463 46.8992 116.472 47.1678C116.513 47.4312 116.475 47.724 116.357 48.0463C116.239 48.3685 116.055 48.7012 115.805 49.0441C115.588 49.3819 115.339 49.7249 115.056 50.0731C114.491 50.7694 113.778 51.3877 112.918 51.9279C112.091 52.4629 111.297 52.7735 110.534 52.8597C109.766 52.913 109.103 52.6631 108.543 52.11C107.984 51.5569 107.689 50.5404 107.659 49.0605C107.628 47.5805 107.94 46.4517 108.594 45.674C109.242 44.8634 110.039 44.35 110.983 44.1339C111.9 43.9559 112.593 43.9649 113.063 44.161C113.565 44.3519 113.864 44.6423 113.959 45.0323C114.087 45.4171 114.056 45.8607 113.865 46.3631C113.669 46.8326 113.366 47.2683 112.957 47.6701C112.543 48.039 112.047 48.3195 111.47 48.5115C110.887 48.6706 110.257 48.6347 109.58 48.4039ZM109.607 47.2862C109.951 47.3331 110.33 47.2736 110.743 47.1074C111.188 46.9361 111.56 46.7258 111.858 46.4764C112.189 46.2218 112.422 45.9828 112.555 45.7594C112.684 45.503 112.636 45.308 112.412 45.1744C111.678 45.2225 111.087 45.4336 110.639 45.8077C110.225 46.1766 109.881 46.6694 109.607 47.2862ZM134.336 48.1027C134.831 47.8222 135.293 47.4291 135.719 46.9233C136.173 46.3794 136.59 45.8078 136.968 45.2084C137.346 44.609 137.768 43.6484 138.235 42.3264C138.73 40.9663 139.089 40.0325 139.313 39.5249C139.436 39.2355 139.537 39.0173 139.615 38.87C139.688 38.6898 139.773 38.592 139.872 38.5764C139.971 38.5609 140.113 38.606 140.298 38.7118C140.479 38.7847 140.719 38.9157 141.018 39.1047C140.926 39.5916 140.707 40.4528 140.362 41.6881C140.011 42.8906 139.792 43.7517 139.705 44.2716C139.459 45.4914 139.454 46.3189 139.691 46.754C139.928 47.189 140.301 47.1979 140.809 46.7806C141.074 46.5364 141.345 46.2237 141.623 45.8426C141.933 45.4564 142.206 45.0423 142.44 44.6006C142.707 44.1536 142.944 43.7283 143.15 43.3247C143.357 42.921 143.507 42.5936 143.603 42.3424C143.863 42.7064 143.996 43.1241 144.003 43.5955C144.042 44.0617 143.964 44.5295 143.768 44.999C143.572 45.4685 143.274 45.9371 142.875 46.4048C142.504 46.8343 142.06 47.2249 141.541 47.5764C140.78 48.101 140.067 48.1795 139.402 47.8117C138.731 47.4111 138.241 46.7627 137.932 45.8666C137.659 46.2806 137.354 46.6998 137.016 47.1242C136.678 47.5486 136.316 47.9262 135.929 48.2569C135.537 48.5548 135.116 48.7729 134.665 48.9113C134.248 49.0445 133.801 48.9966 133.327 48.7676C132.677 48.4986 132.242 48.0946 132.022 47.5556C131.797 46.9836 131.755 46.2817 131.894 45.45C132 44.6234 132.17 43.9893 132.404 43.5475C132.638 43.1058 132.925 42.8919 133.265 42.906C133.632 42.8819 134.009 43.0251 134.395 43.3355C133.755 45.0559 133.503 46.2428 133.64 46.8962C133.776 47.5496 134.008 47.9518 134.336 48.1027ZM145.362 42.7741C145.303 43.897 145.425 44.6708 145.728 45.0956C146.026 45.4874 146.408 45.6635 146.874 45.6239C147.34 45.5843 147.846 45.3697 148.392 44.9801C148.971 44.5853 149.507 44.1298 149.999 43.6137C150.492 43.0975 150.899 42.5779 151.222 42.0547C151.577 41.5264 151.781 41.1062 151.833 40.7944C152.105 41.0215 152.246 41.2694 152.254 41.538C152.296 41.8014 152.257 42.0943 152.139 42.4165C152.021 42.7388 151.837 43.0714 151.588 43.4144C151.371 43.7522 151.121 44.0952 150.838 44.4433C150.273 45.1397 149.561 45.7579 148.701 46.2981C147.874 46.8331 147.079 47.1438 146.317 47.23C145.549 47.2833 144.885 47.0334 144.326 46.4803C143.766 45.9272 143.472 44.9106 143.441 43.4307C143.411 41.9508 143.722 40.822 144.376 40.0442C145.025 39.2336 145.821 38.7202 146.766 38.5041C147.683 38.3261 148.376 38.3352 148.845 38.5313C149.348 38.7222 149.647 39.0126 149.742 39.4025C149.87 39.7873 149.838 40.2309 149.647 40.7334C149.451 41.2029 149.149 41.6385 148.739 42.0404C148.325 42.4092 147.829 42.6897 147.252 42.8817C146.67 43.0408 146.04 43.005 145.362 42.7741ZM145.389 41.6564C145.734 41.7034 146.113 41.6438 146.525 41.4777C146.971 41.3064 147.342 41.096 147.641 40.8466C147.972 40.5921 148.204 40.3531 148.338 40.1296C148.466 39.8732 148.418 39.6782 148.195 39.5447C147.46 39.5928 146.869 39.8039 146.422 40.1779C146.007 40.5468 145.663 41.0396 145.389 41.6564ZM146.532 34.4412C146.712 34.514 146.903 34.5514 147.106 34.5533C147.336 34.517 147.539 34.5188 147.714 34.5588C147.917 34.5606 148.081 34.6361 148.205 34.7852C148.325 34.9014 148.397 35.1432 148.421 35.5105C148.396 35.7843 148.323 36.0659 148.199 36.3552C148.071 36.6116 147.785 36.7241 147.341 36.6927C147.029 36.6405 146.788 36.3917 146.617 35.9463C146.44 35.4679 146.412 34.9662 146.532 34.4412ZM143.963 34.8453C144.143 34.9181 144.335 34.9555 144.538 34.9573C144.768 34.9211 144.971 34.9229 145.146 34.9629C145.349 34.9647 145.512 35.0402 145.637 35.1893C145.756 35.3055 145.828 35.5472 145.852 35.9146C145.828 36.1884 145.754 36.47 145.631 36.7593C145.503 37.0157 145.217 37.1282 144.773 37.0968C144.461 37.0446 144.219 36.7958 144.048 36.3503C143.872 35.872 143.843 35.3703 143.963 34.8453ZM155.152 38.0452C155.565 37.2379 155.652 36.718 155.413 36.4857C155.146 36.2915 154.836 36.3571 154.482 36.6827C154.161 37.0032 153.765 37.4873 153.293 38.1351C153.028 38.3793 152.779 38.4017 152.545 38.2023C152.311 38.0029 152.302 37.7343 152.519 37.3965L153.325 36.4092C153.84 35.822 154.356 35.454 154.873 35.3053C155.389 35.1565 155.849 35.1854 156.253 35.3918C156.69 35.5931 157.02 35.9797 157.245 36.5517C157.465 37.0907 157.495 37.7103 157.335 38.4103C157.311 38.6841 156.812 39.5893 155.839 41.1258C154.894 42.6243 154.436 43.5737 154.465 43.974C154.499 44.4072 154.67 44.6335 154.977 44.6527C155.311 44.6338 155.647 44.5136 155.983 44.2919C156.567 43.9301 157.155 43.4833 157.746 42.9516C158.337 42.4199 158.907 41.8579 159.455 41.2656C159.997 40.6403 160.43 40.0661 160.753 39.5429C160.874 40.0975 160.848 40.574 160.674 40.9725C160.5 41.371 160.223 41.7521 159.842 42.1158C159.304 42.774 158.72 43.4564 158.088 44.1631C157.485 44.8317 156.765 45.4006 155.927 45.8697C155.707 45.9718 155.501 46.0549 155.309 46.1189L154.906 46.1317C154.632 46.1073 154.367 46.0309 154.11 45.9025C153.39 45.611 152.895 45.1489 152.627 44.5162C152.496 43.8958 152.554 43.1949 152.802 42.4134C153.018 41.6372 153.389 40.8871 153.916 40.163C154.327 39.5584 154.739 38.8525 155.152 38.0452ZM163.139 37.7502C163.167 37.7121 163.197 37.6905 163.23 37.6853C163.66 37.4152 164.125 37.2577 164.624 37.213C165.123 37.1682 165.617 37.3097 166.108 37.6375C166.336 37.804 166.52 38.1125 166.658 38.5632C166.797 39.0138 166.861 39.4254 166.852 39.798C166.793 40.2797 166.857 40.7927 167.044 41.3369C167.231 41.8811 167.503 42.1083 167.86 42.0184C168.212 41.8955 168.635 41.4747 169.129 40.7558C169.623 40.0369 170.147 39.0771 170.701 37.8765C171.135 38.2805 171.284 38.797 171.147 39.426C171.043 40.0498 170.804 40.6779 170.431 41.3102C170.058 41.9425 169.639 42.4976 169.175 42.9757C168.743 43.4485 168.412 43.7031 168.181 43.7394C168.004 43.9021 167.711 43.9652 167.3 43.9286C166.889 43.892 166.537 43.7956 166.242 43.6395C165.953 43.5163 165.697 43.2866 165.476 42.9503C165.254 42.6139 165.106 42.3167 165.032 42.0584C164.933 41.4328 165.019 40.6937 165.29 39.8413C165.301 39.266 165.244 38.9038 165.119 38.7547C164.995 38.6056 164.638 38.5941 164.051 38.7203C163.502 38.8742 162.906 39.5922 162.264 40.8742C162.182 41.4269 162.131 41.9581 162.11 42.4675C162.059 43.2179 162.059 43.859 162.109 44.3911C162.124 44.4898 162.118 44.5583 162.09 44.5964C161.458 44.8647 161.03 44.932 160.806 44.7985C160.545 44.6371 160.398 44.2385 160.365 43.6025C160.426 42.2768 160.474 40.9703 160.507 39.6827C160.541 38.3952 160.556 37.0938 160.551 35.7785C160.581 35.5376 160.591 35.2829 160.583 35.0143C160.574 34.7457 160.817 34.5725 161.311 34.4948C161.673 34.4378 161.966 34.4761 162.189 34.6097C162.408 34.7103 162.496 34.9495 162.454 35.3272C162.419 35.5352 162.399 35.724 162.391 35.8939C162.417 36.0585 162.427 36.2257 162.42 36.3956C162.746 36.1081 163.069 35.8041 163.39 35.4837C163.744 35.1581 164.121 34.8793 164.524 34.6473C164.883 34.3547 165.26 34.1772 165.655 34.1151C166.05 34.0529 166.425 34.0782 166.78 34.1911C167.135 34.3039 167.438 34.5094 167.687 34.8076C167.931 35.0729 168.071 35.4222 168.105 35.8554C168.126 35.9871 168.03 36.2383 167.819 36.6091C167.64 36.9746 167.495 37.2336 167.384 37.386C166.634 36.6942 165.983 36.3074 165.43 36.2256C164.877 36.1439 164.408 36.2684 164.021 36.5992C163.69 36.8537 163.396 37.2374 163.139 37.7502ZM171.464 33.3529C171.414 33.462 171.345 33.5573 171.256 33.6387C171.168 33.7201 171.068 33.837 170.957 33.9895C171.041 33.2339 171.32 32.6501 171.795 32.2379C172.303 31.8206 172.872 31.5791 173.503 31.5136C174.134 31.4481 174.727 31.5741 175.284 31.8915C175.873 32.2038 176.312 32.7421 176.601 33.5065C176.954 34.4632 177.115 35.3826 177.085 36.2647C177.05 37.1138 176.789 38.1335 176.301 39.3237C175.841 40.4758 175.237 41.5664 174.487 42.5953C174.21 42.9764 173.843 43.2197 173.388 43.3251C172.932 43.4306 172.472 43.4018 172.007 43.2386C171.576 43.0703 171.19 42.7599 170.848 42.3074C170.502 41.822 170.3 41.179 170.241 40.3783C170.273 38.6524 170.439 37.3441 170.737 36.4535C170.822 36.1365 170.979 35.842 171.206 35.57C171.428 35.2651 171.652 34.9767 171.879 34.7048C171.93 34.5956 172.023 34.5472 172.16 34.5594C172.325 34.5335 172.487 34.4911 172.646 34.4323C172.667 34.564 172.704 34.6931 172.758 34.8196C172.812 34.9462 172.818 35.0969 172.778 35.2719C172.667 36.0656 172.515 37.1356 172.322 38.4819C172.162 39.8231 172.12 40.7407 172.198 41.2346C172.304 41.6904 172.455 41.9028 172.653 41.8717C172.883 41.8354 173.17 41.6216 173.513 41.2301C173.857 40.8387 174.232 39.9022 174.64 38.4208C175.076 36.9013 175.181 35.6363 174.954 34.6259C174.723 33.5826 174.403 32.9412 173.994 32.7018C173.585 32.4625 173.15 32.379 172.689 32.4516C172.261 32.5189 171.853 32.8194 171.464 33.3529ZM181.174 33.9511C181.587 33.1438 181.673 32.624 181.434 32.3916C181.168 32.1974 180.857 32.2631 180.504 32.5887C180.183 32.9091 179.787 33.3932 179.315 34.0411C179.05 34.2853 178.8 34.3077 178.566 34.1082C178.333 33.9088 178.324 33.6402 178.541 33.3024L179.347 32.3151C179.862 31.7279 180.378 31.36 180.894 31.2112C181.411 31.0625 181.871 31.0913 182.275 31.2977C182.711 31.499 183.042 31.8856 183.267 32.4576C183.487 32.9967 183.517 33.6162 183.357 34.3162C183.332 34.59 182.834 35.4952 181.861 37.0317C180.916 38.5302 180.458 39.4796 180.487 39.8799C180.521 40.3132 180.692 40.5394 180.998 40.5586C181.333 40.5398 181.668 40.4195 182.005 40.1979C182.589 39.836 183.177 39.3892 183.768 38.8576C184.359 38.3259 184.929 37.7639 185.476 37.1715C186.019 36.5462 186.452 35.972 186.774 35.4488C186.895 36.0034 186.869 36.48 186.696 36.8784C186.522 37.2769 186.245 37.658 185.863 38.0217C185.326 38.6799 184.741 39.3624 184.11 40.0691C183.507 40.7376 182.786 41.3065 181.949 41.7757C181.729 41.8778 181.523 41.9608 181.33 42.0249L180.927 42.0376C180.654 42.0132 180.389 41.9368 180.132 41.8085C179.411 41.5169 178.917 41.0548 178.649 40.4222C178.517 39.8017 178.576 39.1008 178.824 38.3194C179.039 37.5431 179.411 36.793 179.938 36.0689C180.349 35.4644 180.761 34.7584 181.174 33.9511ZM187.254 30.8686C187.204 30.9777 187.135 31.073 187.046 31.1544C186.958 31.2358 186.858 31.3527 186.747 31.5051C186.831 30.7496 187.11 30.1658 187.585 29.7536C188.093 29.3363 188.662 29.0948 189.293 29.0293C189.924 28.9638 190.518 29.0898 191.074 29.4072C191.663 29.7195 192.102 30.2578 192.391 31.0222C192.744 31.9789 192.905 32.8983 192.875 33.7804C192.84 34.6295 192.579 35.6492 192.091 36.8394C191.631 37.9915 191.027 39.0821 190.278 40.111C190 40.4921 189.633 40.7354 189.178 40.8408C188.722 40.9463 188.262 40.9175 187.797 40.7543C187.366 40.586 186.98 40.2756 186.639 39.8231C186.292 39.3377 186.09 38.6947 186.031 37.894C186.064 36.1681 186.229 34.8598 186.527 33.9692C186.613 33.6522 186.769 33.3576 186.996 33.0857C187.218 32.7808 187.442 32.4924 187.67 32.2205C187.72 32.1113 187.813 32.0629 187.95 32.0751C188.115 32.0492 188.277 32.0068 188.436 31.948C188.457 32.0797 188.494 32.2088 188.548 32.3353C188.602 32.4619 188.609 32.6126 188.569 32.7876C188.457 33.5813 188.305 34.6512 188.112 35.9976C187.952 37.3388 187.911 38.2564 187.988 38.7503C188.094 39.2061 188.245 39.4185 188.443 39.3874C188.673 39.3511 188.96 39.1373 189.304 38.7458C189.647 38.3544 190.023 37.4179 190.431 35.9365C190.866 34.417 190.971 33.152 190.745 32.1416C190.513 31.0982 190.193 30.4569 189.784 30.2175C189.375 29.9782 188.94 29.8947 188.479 29.9673C188.051 30.0346 187.643 30.3351 187.254 30.8686Z" fill="#CCCCCC"/>
<path d="M17.2002 92.6501C17.7672 90.2614 18.4147 87.8863 19.2793 85.5889C20.1172 83.2871 21.1087 81.0385 22.2809 78.8478C23.4457 76.6834 24.7643 74.5722 26.2488 72.5714C26.5998 72.0678 27.0045 71.5732 27.3921 71.0895C27.77 70.5905 28.1674 70.1221 28.5818 69.6429C28.9694 69.1592 29.4034 68.7108 29.8179 68.2316L30.125 67.8853L30.4591 67.5435L31.1101 66.8708C31.3271 66.6466 31.544 66.4224 31.7708 66.2135L32.4486 65.5454C32.8924 65.1123 33.363 64.6837 33.8336 64.2552C34.3139 63.842 34.7845 63.4134 35.2649 63.0002L35.9989 62.3827C36.2525 62.1783 36.4792 61.9695 36.7426 61.7805C38.73 60.1937 40.8028 58.7037 42.9538 57.3366C47.2093 54.5672 51.7994 52.2109 56.5873 50.2036C56.7434 50.1475 56.8213 49.9685 56.7602 49.8347C56.7089 49.7162 56.5723 49.6521 56.4235 49.6819C53.8914 50.2986 51.4084 51.1431 48.9863 52.1215C46.5473 53.1107 44.162 54.2599 41.8475 55.5583C39.533 56.8567 37.2992 58.3196 35.1703 59.91C33.0414 61.5004 31.02 63.2599 29.167 65.1712C25.4415 68.9632 22.336 73.3536 20.1701 78.0532C19.0956 80.3976 18.2481 82.8351 17.6494 85.287C17.0679 87.7281 16.701 90.2054 16.6244 92.6492C16.6245 92.8002 16.7466 92.9168 16.9052 92.9023C17.054 92.8725 17.1808 92.7703 17.2002 92.6501Z" fill="#CCCCCC"/>
<path d="M5.84851 79.2067C6.96723 81.0777 7.89323 83.0261 8.76468 84.9928C9.19863 85.989 9.60708 86.9816 10.03 87.9632C10.4385 88.9558 10.8724 89.9519 11.2664 90.9555C11.6603 91.9591 12.0833 92.9408 12.4627 93.9553L13.6444 96.9661L14.2298 98.4642C14.4213 98.9588 14.6092 99.4788 14.7862 99.9844C15.1656 100.999 15.534 101.999 15.8843 103.036L15.6147 103.011C16.7198 100.759 18.0548 98.6303 19.5543 96.6281C19.7317 96.3797 19.9237 96.1203 20.1266 95.8754C20.3295 95.6305 20.518 95.3966 20.7099 95.1372C21.1013 94.6585 21.5071 94.1687 21.913 93.679C22.7467 92.7285 23.5879 91.8181 24.4911 90.9292C25.3797 90.0514 26.2939 89.1771 27.252 88.3608C28.2101 87.5446 29.1792 86.7429 30.1778 86.0103C32.1929 84.5085 34.3034 83.163 36.5386 82.0427C36.6222 82.0023 36.7097 82.0275 36.7501 82.1111C36.7796 82.1801 36.769 82.2567 36.7109 82.3006L35.2515 83.4504C34.7687 83.8385 34.286 84.2266 33.8142 84.6292C32.8486 85.4054 31.9195 86.1996 30.9869 87.0194C30.0688 87.8282 29.1362 88.6479 28.2511 89.5003C27.355 90.3381 26.4699 91.1904 25.6067 92.0718C24.7326 92.9387 23.8804 93.8346 23.0538 94.7341C22.2016 95.63 21.397 96.5585 20.5813 97.4724C20.179 97.9367 19.7766 98.4009 19.3853 98.8797C18.9829 99.3439 18.5916 99.8227 18.2002 100.301C17.8089 100.78 17.4175 101.259 17.0262 101.738L16.4574 102.465L15.8886 103.192L15.7513 103.433L15.619 103.168C15.1415 102.205 14.6785 101.23 14.2155 100.256C13.984 99.7692 13.7525 99.2821 13.521 98.795L12.841 97.3228L11.5066 94.3818C11.0581 93.3967 10.6351 92.4151 10.2012 91.4189C9.75268 90.4338 9.34423 89.4412 8.92126 88.4595C8.49829 87.4779 8.06433 86.4818 7.67041 85.4782C6.86804 83.482 6.13475 81.4564 5.56866 79.3499C5.55376 79.2698 5.6044 79.1859 5.67347 79.1564C5.75707 79.116 5.83007 79.1521 5.84851 79.2067Z" fill="#CCCCCC"/>
</svg>
