<svg width="29" height="28" viewBox="0 0 29 28" fill="none" xmlns="http://www.w3.org/2000/svg">
<path d="M12.5323 8.23697C13.9655 8.23697 15.3665 8.66197 16.5582 9.45822C17.7499 10.2545 18.6787 11.3862 19.2272 12.7103C19.7756 14.0345 19.9191 15.4915 19.6395 16.8972C19.3599 18.3029 18.6698 19.5941 17.6563 20.6075C16.6429 21.6209 15.3517 22.3111 13.946 22.5907C12.5403 22.8703 11.0833 22.7268 9.75918 22.1783C8.43506 21.6299 7.30331 20.7011 6.50706 19.5094C5.7108 18.3177 5.2858 16.9167 5.2858 15.4835C5.2858 13.5616 6.04927 11.7184 7.40825 10.3594C8.76723 9.00044 10.6104 8.23697 12.5323 8.23697ZM12.5323 2.9668C10.0567 2.9668 7.63676 3.70089 5.57841 5.07623C3.52005 6.45158 1.91576 8.40642 0.968405 10.6935C0.0210483 12.9807 -0.226823 15.4973 0.256135 17.9253C0.739093 20.3533 1.93119 22.5836 3.68168 24.3341C5.43216 26.0846 7.66242 27.2767 10.0904 27.7596C12.5184 28.2426 15.0351 27.9947 17.3222 27.0473C19.6093 26.1 21.5642 24.4957 22.9395 22.4373C24.3149 20.379 25.049 17.959 25.049 15.4835C25.049 12.1638 23.7302 8.98017 21.3829 6.63284C19.0356 4.28551 15.8519 2.9668 12.5323 2.9668Z" fill="white"/>
<path d="M25.0448 5.93334C26.6832 5.93334 28.0115 4.60511 28.0115 2.96667C28.0115 1.32822 26.6832 0 25.0448 0C23.4063 0 22.0781 1.32822 22.0781 2.96667C22.0781 4.60511 23.4063 5.93334 25.0448 5.93334Z" fill="white"/>
</svg>
