<svg width="23" height="23" viewBox="0 0 23 23" fill="none" xmlns="http://www.w3.org/2000/svg">
<path opacity="0.4" d="M17.6745 3.89128H16.6661C16.4534 2.85674 15.8905 1.92718 15.0723 1.25927C14.2541 0.591359 13.2307 0.225943 12.1745 0.224609L10.3411 0.224609C9.28496 0.225943 8.26152 0.591359 7.44333 1.25927C6.62514 1.92718 6.06223 2.85674 5.84948 3.89128H4.84115C3.62602 3.89273 2.46107 4.37608 1.60185 5.23531C0.742621 6.09454 0.259268 7.25948 0.257813 8.47461L0.257812 17.6413C0.259268 18.8564 0.742621 20.0213 1.60185 20.8806C2.46107 21.7398 3.62602 22.2232 4.84115 22.2246H17.6745C18.8896 22.2232 20.0546 21.7398 20.9138 20.8806C21.773 20.0213 22.2564 18.8564 22.2578 17.6413V8.47461C22.2564 7.25948 21.773 6.09454 20.9138 5.23531C20.0546 4.37608 18.8896 3.89273 17.6745 3.89128ZM10.3411 2.05794H12.1745C12.7412 2.06029 13.2934 2.23769 13.7555 2.56586C14.2175 2.89403 14.5669 3.35694 14.7558 3.89128H7.75981C7.94872 3.35694 8.29811 2.89403 8.76017 2.56586C9.22224 2.23769 9.77441 2.06029 10.3411 2.05794ZM4.84115 5.72461H17.6745C18.4038 5.72461 19.1033 6.01434 19.619 6.53007C20.1347 7.04579 20.4245 7.74526 20.4245 8.47461V11.2246H2.09115V8.47461C2.09115 7.74526 2.38088 7.04579 2.8966 6.53007C3.41233 6.01434 4.1118 5.72461 4.84115 5.72461ZM17.6745 20.3913H4.84115C4.1118 20.3913 3.41233 20.1015 2.8966 19.5858C2.38088 19.0701 2.09115 18.3706 2.09115 17.6413V13.0579H10.3411V13.9746C10.3411 14.2177 10.4377 14.4509 10.6096 14.6228C10.7815 14.7947 11.0147 14.8913 11.2578 14.8913C11.5009 14.8913 11.7341 14.7947 11.906 14.6228C12.0779 14.4509 12.1745 14.2177 12.1745 13.9746V13.0579H20.4245V17.6413C20.4245 18.3706 20.1347 19.0701 19.619 19.5858C19.1033 20.1015 18.4038 20.3913 17.6745 20.3913Z" fill="white"/>
</svg>
