<svg width="21" height="20" viewBox="0 0 21 20" fill="none" xmlns="http://www.w3.org/2000/svg">
<g opacity="0.7" clip-path="url(#clip0_569_70214)">
<path fill-rule="evenodd" clip-rule="evenodd" d="M6.26432 1.45833C6.26432 0.653333 6.91766 0 7.72266 0H12.306C13.111 0 13.7643 0.653333 13.7643 1.45833V3.33333H17.7227C18.5277 3.33333 19.181 3.98667 19.181 4.79167V16.875C19.181 17.2618 19.0273 17.6327 18.7539 17.9062C18.4804 18.1797 18.1094 18.3333 17.7227 18.3333H2.30599C1.91922 18.3333 1.54828 18.1797 1.27479 17.9062C1.0013 17.6327 0.847656 17.2618 0.847656 16.875V4.79167C0.847656 3.98667 1.50099 3.33333 2.30599 3.33333H6.26432V1.45833ZM2.09766 9.99167V16.875C2.09766 16.99 2.19099 17.0833 2.30599 17.0833H17.7227C17.7779 17.0833 17.8309 17.0614 17.87 17.0223C17.909 16.9832 17.931 16.9303 17.931 16.875V9.99167C17.2916 10.536 16.479 10.8345 15.6393 10.8333H4.38932C3.5496 10.8345 2.73702 10.536 2.09766 9.99167ZM17.931 7.29167C17.931 7.89945 17.6895 8.48235 17.2598 8.91212C16.83 9.34189 16.2471 9.58333 15.6393 9.58333H4.38932C3.78153 9.58333 3.19864 9.34189 2.76887 8.91212C2.3391 8.48235 2.09766 7.89945 2.09766 7.29167V4.79167C2.09766 4.73641 2.11961 4.68342 2.15868 4.64435C2.19775 4.60528 2.25074 4.58333 2.30599 4.58333H17.7227C17.7779 4.58333 17.8309 4.60528 17.87 4.64435C17.909 4.68342 17.931 4.73641 17.931 4.79167V7.29167ZM12.5143 1.45833V3.33333H7.51432V1.45833C7.51432 1.40308 7.53627 1.35009 7.57534 1.31102C7.61441 1.27195 7.6674 1.25 7.72266 1.25H12.306C12.3612 1.25 12.4142 1.27195 12.4533 1.31102C12.4924 1.35009 12.5143 1.40308 12.5143 1.45833Z" fill="#9FA4AF"/>
</g>
<defs>
<clipPath id="clip0_569_70214">
<rect width="20" height="20" fill="white" transform="translate(0.015625)"/>
</clipPath>
</defs>
</svg>
