<svg width="21" height="20" viewBox="0 0 21 20" fill="none" xmlns="http://www.w3.org/2000/svg">
<g opacity="0.7" clip-path="url(#clip0_647_112329)">
<path fill-rule="evenodd" clip-rule="evenodd" d="M8.68685 18.3337C8.24482 18.3337 7.8209 18.1581 7.50834 17.8455C7.19578 17.5329 7.02018 17.109 7.02018 16.667V3.33366C7.02018 2.89163 7.19578 2.46771 7.50834 2.15515C7.8209 1.84259 8.24482 1.66699 8.68685 1.66699H17.8535C18.2955 1.66699 18.7195 1.84259 19.032 2.15515C19.3446 2.46771 19.5202 2.89163 19.5202 3.33366V16.667C19.5202 17.109 19.3446 17.5329 19.032 17.8455C18.7195 18.1581 18.2955 18.3337 17.8535 18.3337H8.68685ZM8.27018 16.667C8.27018 16.7775 8.31408 16.8835 8.39222 16.9616C8.47036 17.0398 8.57634 17.0837 8.68685 17.0837H17.8535C17.964 17.0837 18.07 17.0398 18.1481 16.9616C18.2263 16.8835 18.2702 16.7775 18.2702 16.667V3.33366C18.2702 3.22315 18.2263 3.11717 18.1481 3.03903C18.07 2.96089 17.964 2.91699 17.8535 2.91699H8.68685C8.57634 2.91699 8.47036 2.96089 8.39222 3.03903C8.31408 3.11717 8.27018 3.22315 8.27018 3.33366V16.667ZM5.49518 3.47116C5.56928 3.61936 5.58149 3.79091 5.52914 3.94812C5.47679 4.10532 5.36417 4.2353 5.21602 4.30949C5.02602 4.40449 4.97018 4.45699 4.95352 4.47699C4.95024 4.48082 4.94795 4.4854 4.94685 4.49033C4.93898 4.52078 4.93561 4.55223 4.93685 4.58366V15.417C4.93685 15.4753 4.94352 15.502 4.94685 15.5103C4.94766 15.5153 4.94999 15.52 4.95352 15.5237C4.97018 15.5437 5.02602 15.5962 5.21602 15.6912C5.2901 15.7274 5.35627 15.778 5.41071 15.84C5.46516 15.9019 5.5068 15.9741 5.53323 16.0522C5.55967 16.1303 5.57037 16.2129 5.56473 16.2952C5.5591 16.3775 5.53722 16.4579 5.50038 16.5317C5.46354 16.6055 5.41245 16.6712 5.35006 16.7252C5.28767 16.7792 5.21522 16.8202 5.13689 16.8461C5.05855 16.8719 4.97587 16.882 4.89363 16.8757C4.81138 16.8694 4.73119 16.8469 4.65768 16.8095C4.43102 16.6962 4.17435 16.547 3.98268 16.3112C3.77018 16.0495 3.68685 15.7445 3.68685 15.417V4.58366C3.68685 4.25616 3.77018 3.95116 3.98268 3.68949C4.17435 3.45366 4.43102 3.30449 4.65768 3.19116C4.80598 3.11712 4.97762 3.10503 5.13484 3.15754C5.29205 3.21005 5.42197 3.32286 5.49602 3.47116H5.49518ZM2.14518 4.68699C2.1863 4.75806 2.21301 4.83654 2.22379 4.91794C2.23457 4.99934 2.2292 5.08206 2.208 5.16139C2.18679 5.24071 2.15017 5.31508 2.10021 5.38024C2.05025 5.4454 1.98795 5.50008 1.91685 5.54116C1.79185 5.61366 1.70268 5.68283 1.65018 5.74533C1.60352 5.80033 1.60352 5.82533 1.60352 5.83366V14.167C1.60352 14.1753 1.60352 14.2003 1.65018 14.2553C1.70268 14.317 1.79185 14.387 1.91685 14.4595C1.98787 14.5006 2.0501 14.5554 2.09997 14.6206C2.14984 14.6858 2.18638 14.7601 2.2075 14.8395C2.22863 14.9188 2.23392 15.0015 2.22309 15.0828C2.21225 15.1642 2.1855 15.2426 2.14435 15.3137C2.1032 15.3847 2.04847 15.4469 1.98327 15.4968C1.91808 15.5466 1.8437 15.5832 1.76438 15.6043C1.68507 15.6254 1.60236 15.6307 1.521 15.6199C1.43964 15.6091 1.36121 15.5823 1.29018 15.5412C0.961849 15.3512 0.353516 14.9228 0.353516 14.167V5.83366C0.353516 5.07783 0.961849 4.65033 1.29018 4.45866C1.36125 4.41754 1.43973 4.39083 1.52113 4.38005C1.60253 4.36927 1.68525 4.37464 1.76458 4.39584C1.8439 4.41705 1.91827 4.45368 1.98343 4.50363C2.04859 4.55359 2.10327 4.6159 2.14435 4.68699H2.14518Z" fill="#444A57"/>
</g>
<defs>
<clipPath id="clip0_647_112329">
<rect width="20" height="20" fill="white" transform="translate(0.353516)"/>
</clipPath>
</defs>
</svg>
