<svg width="20" height="20" viewBox="0 0 20 20" fill="none" xmlns="http://www.w3.org/2000/svg">
<g opacity="0.7">
<path d="M10.0003 11.2497C10.5529 11.2497 11.0828 11.0302 11.4735 10.6395C11.8642 10.2488 12.0837 9.71888 12.0837 9.16634C12.0837 8.61381 11.8642 8.0839 11.4735 7.6932C11.0828 7.3025 10.5529 7.08301 10.0003 7.08301C9.44779 7.08301 8.91789 7.3025 8.52719 7.6932C8.13649 8.0839 7.91699 8.61381 7.91699 9.16634C7.91699 9.71888 8.13649 10.2488 8.52719 10.6395C8.91789 11.0302 9.44779 11.2497 10.0003 11.2497Z" fill="#9FA4AF"/>
<path fill-rule="evenodd" clip-rule="evenodd" d="M15.8928 2.85762C12.6386 -0.396549 7.36193 -0.396549 4.10859 2.85762C0.854427 6.11178 0.854427 11.3884 4.10859 14.6426L4.13193 14.6659L8.61109 19.1451C8.97975 19.5137 9.47975 19.7208 10.0011 19.7208C10.5224 19.7208 11.0224 19.5137 11.3911 19.1451L15.8936 14.6426C19.1478 11.3884 19.1478 6.11178 15.8936 2.85762H15.8928ZM4.99193 3.74095C6.32362 2.42852 8.12021 1.69584 9.98993 1.70269C11.8596 1.70954 13.6508 2.45536 14.9729 3.77751C16.2949 5.09966 17.0406 6.8909 17.0473 8.76062C17.054 10.6303 16.3211 12.4269 15.0086 13.7584L10.5061 18.2618C10.3719 18.3958 10.1899 18.4711 10.0003 18.4711C9.81057 18.4711 9.62864 18.3958 9.49443 18.2618L5.01276 13.7801L5.01109 13.7785L4.99193 13.7584C3.66375 12.4301 2.91761 10.6286 2.91761 8.75012C2.91761 6.87167 3.66375 5.07014 4.99193 3.74178V3.74095Z" fill="#9FA4AF"/>
</g>
</svg>
