<svg width="21" height="20" viewBox="0 0 21 20" fill="none" xmlns="http://www.w3.org/2000/svg">
<g opacity="0.7" clip-path="url(#clip0_569_70198)">
<path fill-rule="evenodd" clip-rule="evenodd" d="M8.01648 2.08301C7.0364 2.08271 6.08203 2.39658 5.29345 2.97857C4.50487 3.56055 3.92361 4.37999 3.63499 5.31661C3.34637 6.25323 3.36558 7.25771 3.68981 8.1826C4.01405 9.1075 4.62622 9.90411 5.43648 10.4555C4.03023 10.9713 2.8105 11.8961 1.93428 13.1109C1.05806 14.3258 0.565436 15.775 0.519813 17.2722C0.51484 17.4379 0.575919 17.5989 0.689613 17.7196C0.803307 17.8403 0.960302 17.911 1.12606 17.9159C1.29182 17.9209 1.45277 17.8598 1.5735 17.7461C1.69422 17.6324 1.76484 17.4754 1.76981 17.3097C1.81944 15.6859 2.49936 14.1452 3.6655 13.0142C4.83164 11.8831 6.39235 11.2506 8.0169 11.2506C9.64144 11.2506 11.2022 11.8831 12.3683 13.0142C13.5344 14.1452 14.2144 15.6859 14.264 17.3097C14.2646 17.3929 14.2819 17.4751 14.3147 17.5516C14.3476 17.6281 14.3953 17.6972 14.4553 17.755C14.5152 17.8127 14.586 17.8579 14.6637 17.8879C14.7413 17.9179 14.8241 17.9321 14.9073 17.9297C14.9905 17.9272 15.0723 17.9082 15.1481 17.8737C15.2238 17.8392 15.2919 17.7899 15.3483 17.7287C15.4047 17.6676 15.4484 17.5958 15.4767 17.5175C15.505 17.4392 15.5174 17.3561 15.5131 17.273C15.4677 15.7757 14.9751 14.3263 14.0989 13.1113C13.2227 11.8963 12.0029 10.9713 10.5965 10.4555C11.4067 9.90411 12.0189 9.1075 12.3431 8.1826C12.6674 7.25771 12.6866 6.25323 12.398 5.31661C12.1093 4.37999 11.5281 3.56055 10.7395 2.97857C9.95093 2.39658 8.99656 2.08271 8.01648 2.08301ZM4.68315 6.66634C4.68315 5.78229 5.03434 4.93444 5.65946 4.30932C6.28458 3.6842 7.13242 3.33301 8.01648 3.33301C8.90053 3.33301 9.74838 3.6842 10.3735 4.30932C10.9986 4.93444 11.3498 5.78229 11.3498 6.66634C11.3498 7.5504 10.9986 8.39824 10.3735 9.02336C9.74838 9.64849 8.90053 9.99967 8.01648 9.99967C7.13242 9.99967 6.28458 9.64849 5.65946 9.02336C5.03434 8.39824 4.68315 7.5504 4.68315 6.66634Z" fill="#9FA4AF"/>
</g>
<defs>
<clipPath id="clip0_569_70198">
<rect width="20" height="20" fill="white" transform="translate(0.015625)"/>
</clipPath>
</defs>
</svg>
