<svg width="234" height="205" viewBox="0 0 234 205" fill="none" xmlns="http://www.w3.org/2000/svg">
<path d="M178.126 132.259C172.397 134.635 166.459 136.467 160.388 137.733C160.388 137.733 152.395 116.492 154.357 91.2297C155.789 86.0529 156.665 92.4035 156.665 92.4035C156.665 92.4035 164.548 124.813 167.176 129.521C169.804 134.23 177.25 129.412 177.25 129.412L178.126 132.259Z" fill="#E3E3E3"/>
<path d="M152.726 91.663L151.955 92.5959L151.211 91.1156L150.597 92.2105L149.954 91.247L149.472 92.4382L148.438 91.7287L147.694 92.1185L147.278 90.8922L146.954 93.4412L146.113 91.6674L145.762 92.7974L144.956 92.574L143.984 91.2513L143.796 92.8981L143.371 91.5097L142.631 93.2835L141.729 92.1229L140.603 93.1915L140.183 92.1273L139.28 93.1609L138.566 92.0309L152.468 89.6309L152.726 91.663Z" fill="#E3E3E3"/>
<path d="M100.874 144.68L100.704 146.83L83.2461 148.915L85.5148 97.7339L89.8989 97.3003L100.874 144.68Z" fill="#E3E3E3"/>
<path d="M119.236 139.372L119.109 142.981C119.109 142.981 112.145 145.959 101.713 145.368L101.516 97.458L109.001 98.7413L119.236 139.372Z" fill="#E3E3E3"/>
<path d="M139.23 136.727L139.493 140.594C139.493 140.594 129.56 143.703 122.075 141.303L120.949 91.5894L132.564 96.2187L139.23 136.727Z" fill="#E3E3E3"/>
<path d="M84.0177 104.29L84.0747 106.992L82.4892 105.669L81.8454 106.686L80.203 105.446L79.4935 106.51L77.9081 103.804L77.527 107.645L75.4905 105.643L74.3912 106.532L72.8802 105.227L72.1794 106.353L70.813 105.135L68.5443 108.56L68.207 100.046L84.0177 104.29Z" fill="#E3E3E3"/>
<path d="M67.8121 102.104L67.8778 103.974L67.1026 102.687L66.5858 104.04L66.069 102.525L65.6442 103.475L64.9741 102.59L64.6018 103.808L63.5551 101.85L62.9813 103.856L61.974 102.529L60.9754 103.917L60.2396 102.301L59.3944 103.436L58.4264 101.986L57.2658 102.678L56.5519 101.474L55.2643 102.731L54.6818 101.088L53.2015 103.313L51.8438 98.8633L67.8121 102.104Z" fill="#E3E3E3"/>
<path d="M49.1823 144.474L49.1911 151.442L29.9204 153.544L29.789 150.71L7.13281 153.294L11.7359 41.6514L39.1484 91.6763L49.1823 144.474Z" fill="#E3E3E3"/>
<path d="M180.254 129.04C180.254 129.04 163.891 134.957 163.015 133.275C161.244 129.798 159.755 126.185 158.561 122.47C154.414 108.363 153.397 90.2312 153.397 90.2312L152.929 91.0721L151.948 91.7247L151.3 90.6516L150.485 91.6414L149.802 90.7261L149.307 91.602L148.685 91.383L148.278 91.2079L147.651 91.4619L147.095 90.7217L146.837 92.8283L146.053 91.4706L145.698 91.9874L144.721 91.694L143.924 90.8925L143.631 92.0882L143.193 91.2823L142.641 92.5305L141.857 91.8123L140.775 92.3729L140.166 91.8123L139.29 92.3597L138.804 91.878L138.388 92.1977C138.388 92.1977 140.328 134.86 140.845 137.265C140.845 137.265 129.896 140.72 122.827 138.662L120.528 93.3101L120.475 139.866C120.475 139.866 119.788 140.155 118.224 140.62C117.033 140.974 115.36 141.43 113.135 141.934C109.911 142.678 106.04 142.459 104.599 142.341C104.231 142.315 104.03 142.293 104.03 142.293L101.739 98.8198L101.502 96.9234L101.419 97.7993L101.467 98.7103L102.286 144.697L98.8702 144.947L86.1472 145.823L85.2362 99.9892L84.1632 105.683L82.88 104.715L82.1091 105.687L80.6244 105.17L79.7222 105.49L78.1718 102.762L77.7908 106.375L76.3279 105.148L75.2067 105.665L74.3308 105.153L73.3235 104.439L72.3512 105.153L71.1249 104.64L70.1175 105.157L69.1277 106.835L68.0897 99.8665L67.4897 103.094L67.0255 102.442L66.513 103.243L65.948 101.995L65.4444 102.696L64.9144 101.951L64.4458 102.858L63.5699 101.053L62.7684 103.086L62.0238 102.175L60.9289 103.217L60.215 101.829L59.3391 102.604L58.3931 101.575L57.3595 102.013L56.6718 101.237L55.2966 101.929L54.609 100.725L53.3214 102.451L51.8498 99.0388L55.2003 147.351L34.2128 149.077L31.2346 99.1921L30.7002 147.404L27.1614 147.807L10.9872 149.624C10.9872 149.624 11.066 129.802 11.1186 117.276C11.158 109.029 10.5273 10.6827 10.5273 10.6827L162.761 10.2798C162.761 10.2798 167.321 107.391 180.254 129.04Z" fill="white"/>
<path d="M180.265 129.04C177.799 129.916 175.347 130.757 172.859 131.532C171.619 131.918 170.371 132.29 169.114 132.627C167.862 132.985 166.591 133.277 165.308 133.503C164.665 133.632 164.004 133.65 163.355 133.556C163.27 133.54 163.19 133.505 163.121 133.453C163.052 133.402 162.996 133.335 162.956 133.258L162.733 132.82L162.295 131.944C161.734 130.77 161.204 129.579 160.696 128.383C159.66 125.997 158.8 123.537 158.121 121.026C156.778 115.997 155.737 110.893 155.003 105.74C154.245 100.59 153.667 95.4174 153.325 90.2231L153.47 90.2537L153.001 91.0947C152.997 91.1077 152.987 91.1186 152.975 91.1253L151.99 91.7735C151.975 91.7877 151.955 91.7956 151.935 91.7956C151.914 91.7956 151.895 91.7877 151.88 91.7735L151.232 90.7005H151.359L150.544 91.6947C150.53 91.7088 150.51 91.7168 150.49 91.7168C150.469 91.7168 150.45 91.7088 150.435 91.6947L149.743 90.7924H149.874L149.379 91.6684C149.369 91.6841 149.355 91.6962 149.337 91.7025C149.32 91.7089 149.301 91.7092 149.283 91.7034L148.661 91.4844L148.249 91.3093H148.311L147.689 91.5633C147.672 91.5699 147.654 91.5709 147.636 91.5662C147.619 91.5615 147.603 91.5512 147.592 91.537L147.036 90.7968L147.181 90.7574L146.927 92.864C146.923 92.8854 146.912 92.9046 146.895 92.9177C146.878 92.9307 146.856 92.9366 146.835 92.9341C146.822 92.9326 146.81 92.9283 146.799 92.9215C146.789 92.9146 146.78 92.9055 146.773 92.8947L145.989 91.537H146.125L145.77 92.0538C145.76 92.0682 145.746 92.0792 145.73 92.0855C145.713 92.0917 145.696 92.0929 145.678 92.0888L144.702 91.7954L144.667 91.7735L143.874 90.9764L144.014 90.937L143.721 92.1283C143.718 92.1389 143.714 92.1489 143.707 92.1578C143.701 92.1667 143.692 92.1741 143.683 92.1798C143.674 92.1855 143.663 92.1893 143.653 92.191C143.642 92.1927 143.631 92.1922 143.62 92.1896C143.609 92.1878 143.598 92.1833 143.589 92.1764C143.58 92.1695 143.572 92.1605 143.567 92.1502L143.129 91.3443H143.278L142.722 92.5925C142.718 92.6026 142.712 92.6117 142.704 92.6194C142.696 92.627 142.687 92.6331 142.676 92.6371C142.666 92.6412 142.655 92.6432 142.645 92.6431C142.634 92.643 142.623 92.6406 142.613 92.6363H142.586L141.811 91.9049H141.912L140.83 92.4655C140.816 92.4749 140.799 92.4799 140.782 92.4799C140.765 92.4799 140.748 92.4749 140.734 92.4655L140.134 91.9093H140.239L139.363 92.4567C139.347 92.4685 139.328 92.4748 139.308 92.4748C139.288 92.4748 139.269 92.4685 139.253 92.4567L138.767 91.975H138.881L138.465 92.2947L138.5 92.2202L139.591 114.763L140.186 126.032L140.519 131.664C140.651 133.534 140.738 135.43 140.957 137.27C140.96 137.295 140.954 137.32 140.941 137.34C140.927 137.361 140.907 137.377 140.883 137.384C139.42 137.822 137.935 138.185 136.442 138.496C134.948 138.807 133.437 139.057 131.917 139.219C130.398 139.39 128.869 139.46 127.341 139.429C125.807 139.391 124.283 139.176 122.799 138.79C122.777 138.782 122.757 138.768 122.743 138.75C122.729 138.731 122.721 138.708 122.72 138.684L120.403 93.3371H120.666L120.609 139.893C120.61 139.918 120.602 139.942 120.588 139.963C120.574 139.983 120.554 139.999 120.53 140.007C119.869 140.27 119.216 140.48 118.533 140.682C117.85 140.883 117.18 141.041 116.501 141.22L114.469 141.746C113.79 141.921 113.115 142.114 112.423 142.236C111.037 142.472 109.634 142.596 108.228 142.609C106.824 142.631 105.42 142.574 104.023 142.438C103.995 142.436 103.968 142.424 103.948 142.404C103.928 142.383 103.916 142.357 103.914 142.328L101.623 98.8204L101.387 96.924H101.623L101.535 97.8C101.61 98.781 101.601 99.7577 101.623 100.734L101.676 103.664L101.776 109.529L101.978 121.253L102.385 144.707C102.385 144.728 102.377 144.748 102.362 144.764C102.348 144.779 102.328 144.789 102.306 144.79L86.1671 145.911C86.157 145.912 86.1467 145.911 86.1369 145.908C86.1272 145.905 86.1181 145.901 86.1103 145.894C86.1025 145.887 86.0961 145.879 86.0916 145.87C86.087 145.861 86.0844 145.851 86.0839 145.841L85.208 100.007H85.3174L84.24 105.701C84.239 105.708 84.2365 105.715 84.2329 105.721C84.2292 105.727 84.2243 105.732 84.2186 105.736C84.2129 105.74 84.2064 105.743 84.1996 105.744C84.1927 105.746 84.1856 105.746 84.1787 105.745H84.1568L82.8736 104.777H82.9436L82.1728 105.749C82.1652 105.755 82.156 105.758 82.1465 105.758C82.1371 105.758 82.1278 105.755 82.1203 105.749L80.6312 105.237H80.6662L79.764 105.556C79.7561 105.563 79.7459 105.567 79.7355 105.567C79.7251 105.567 79.715 105.563 79.7071 105.556L78.1566 102.854H78.2442L77.8588 106.467C77.8588 106.474 77.8576 106.48 77.8551 106.485C77.8526 106.491 77.849 106.496 77.8445 106.5C77.8399 106.504 77.8346 106.507 77.8287 106.509C77.8229 106.511 77.8167 106.512 77.8106 106.511C77.8065 106.513 77.802 106.514 77.7975 106.514C77.793 106.514 77.7885 106.513 77.7844 106.511L76.3215 105.285H76.3741L75.2529 105.802C75.246 105.805 75.2386 105.806 75.231 105.806C75.2234 105.806 75.216 105.805 75.2091 105.802L74.3332 105.285L73.3258 104.571H73.3828L72.4148 105.285C72.4075 105.289 72.3992 105.291 72.3908 105.291C72.3823 105.291 72.374 105.289 72.3667 105.285L71.136 104.768H71.1798L70.1724 105.285L69.1826 106.962C69.173 106.971 69.1605 106.976 69.1476 106.976C69.1347 106.976 69.1222 106.971 69.1126 106.962C69.1063 106.959 69.101 106.954 69.0972 106.948C69.0934 106.941 69.0911 106.934 69.0907 106.927L68.0483 99.9592H68.1534L67.5534 103.183C67.5523 103.19 67.5498 103.197 67.5459 103.204C67.542 103.21 67.5368 103.216 67.5307 103.221C67.5246 103.225 67.5176 103.228 67.5102 103.23C67.5028 103.232 67.4952 103.232 67.4877 103.231C67.4735 103.226 67.4612 103.217 67.4526 103.205L66.984 102.534H67.076L66.5855 103.275C66.5744 103.284 66.5605 103.289 66.5461 103.289C66.5316 103.289 66.5177 103.284 66.5066 103.275L66.4847 103.248L65.9198 102H66.0205L65.5124 102.705C65.5014 102.714 65.4874 102.72 65.473 102.72C65.4586 102.72 65.4447 102.714 65.4336 102.705L64.908 101.961H65.0044L64.5358 102.867C64.5283 102.881 64.5161 102.891 64.5015 102.896C64.4869 102.901 64.471 102.9 64.4569 102.894L64.4307 102.867L63.5547 101.058H63.6642L62.8627 103.095C62.8569 103.11 62.8453 103.122 62.8305 103.129C62.8158 103.135 62.799 103.136 62.7839 103.13H62.7576L62.0131 102.215H62.1007L61.0101 103.257C60.9981 103.268 60.9825 103.274 60.9663 103.274C60.9502 103.274 60.9346 103.268 60.9225 103.257L60.2086 101.873H60.305L59.429 102.648C59.417 102.659 59.4014 102.665 59.3853 102.665C59.3691 102.665 59.3535 102.659 59.3415 102.648L58.3954 101.615H58.4655L57.4363 102.053C57.4263 102.06 57.4139 102.065 57.4012 102.065C57.3885 102.065 57.3762 102.06 57.3662 102.053L56.6786 101.282H56.7531L55.3778 101.978C55.3624 101.984 55.3454 101.985 55.3295 101.98C55.3137 101.975 55.2998 101.965 55.2902 101.952L54.6026 100.743H54.7121L53.4245 102.469C53.4117 102.48 53.3954 102.486 53.3785 102.486C53.3616 102.486 53.3453 102.48 53.3325 102.469V102.442L51.8609 99.0307L51.9923 99L55.334 147.321C55.3352 147.332 55.3341 147.344 55.3308 147.355C55.3274 147.366 55.3218 147.376 55.3145 147.384C55.3071 147.393 55.298 147.4 55.2878 147.405C55.2776 147.41 55.2665 147.413 55.2552 147.413L34.2677 149.165C34.255 149.166 34.2422 149.165 34.2301 149.161C34.2179 149.157 34.2066 149.151 34.1969 149.143C34.1871 149.135 34.179 149.125 34.1732 149.114C34.1673 149.102 34.1637 149.09 34.1626 149.077L31.1099 99.2015H31.3464L30.8209 147.413C30.8211 147.448 30.8088 147.481 30.7862 147.507C30.7636 147.532 30.7323 147.549 30.6982 147.553L10.9896 149.783C10.9526 149.786 10.9155 149.776 10.8862 149.753C10.8568 149.73 10.8374 149.697 10.8319 149.66C10.8669 138.08 10.9458 126.5 10.9458 114.92L10.7487 80.1848L10.3633 10.6834C10.3633 10.6439 10.379 10.606 10.4069 10.5781C10.4348 10.5502 10.4727 10.5345 10.5122 10.5345L162.746 10.1885C162.769 10.1894 162.792 10.1989 162.809 10.215C162.826 10.2311 162.836 10.2528 162.838 10.2761C163.343 20.3143 164 30.3424 164.809 40.3602C165.602 50.3766 166.535 60.3842 167.665 70.3699C168.794 80.3556 170.126 90.3238 171.9 100.218C172.798 105.158 173.8 110.085 175.066 114.946C175.701 117.377 176.38 119.795 177.234 122.164L177.869 123.938C178.093 124.525 178.355 125.094 178.596 125.69C179.096 126.834 179.653 127.952 180.265 129.04ZM180.239 129.04C179.619 127.951 179.061 126.828 178.566 125.677C178.32 125.099 178.058 124.529 177.834 123.925L177.195 122.151C176.354 119.782 175.657 117.364 175.005 114.933C173.735 110.072 172.727 105.145 171.821 100.2C170.034 90.3107 168.703 80.3425 167.546 70.3568C166.39 60.3711 165.462 50.3635 164.651 40.3471C163.841 30.3307 163.162 20.3012 162.641 10.2586L162.737 10.3505L10.5253 10.8367L10.6786 10.6834L11.0684 80.1585L11.2611 114.898C11.2611 126.478 11.1779 138.054 11.1429 149.634L10.9633 149.494L30.6719 147.264L30.5493 147.404L31.1099 99.1927C31.1099 99.1772 31.113 99.1618 31.1189 99.1475C31.1249 99.1331 31.1336 99.1201 31.1445 99.1091C31.1555 99.0981 31.1686 99.0894 31.1829 99.0835C31.1973 99.0775 31.2126 99.0745 31.2282 99.0745C31.2581 99.0744 31.2869 99.0856 31.3088 99.1059C31.3308 99.1263 31.3442 99.1541 31.3464 99.184L34.3071 149.073L34.1976 148.981L55.1983 147.264L55.1194 147.361L51.8171 99.035C51.8165 99.0264 51.8176 99.0177 51.8204 99.0095C51.8232 99.0014 51.8275 98.9938 51.8332 98.9873C51.8389 98.9808 51.8459 98.9754 51.8536 98.9716C51.8614 98.9678 51.8698 98.9655 51.8784 98.965C51.8928 98.9628 51.9075 98.9656 51.9202 98.9727C51.9329 98.9798 51.9429 98.991 51.9485 99.0044L53.4157 102.416H53.3018L54.5895 100.691C54.6018 100.679 54.6183 100.672 54.6355 100.672C54.6527 100.672 54.6692 100.679 54.6815 100.691L55.3691 101.899L55.2815 101.873L56.6611 101.181C56.672 101.174 56.685 101.17 56.6983 101.17C56.7116 101.17 56.7246 101.174 56.7355 101.181L57.4231 101.956H57.3531L58.3823 101.518C58.3936 101.512 58.4065 101.508 58.4195 101.508C58.4326 101.508 58.4454 101.512 58.4568 101.518L59.3984 102.548H59.3108L60.1867 101.777C60.1921 101.77 60.1988 101.765 60.2063 101.762C60.2139 101.758 60.2222 101.756 60.2305 101.756C60.2389 101.756 60.2472 101.758 60.2547 101.762C60.2623 101.765 60.269 101.77 60.2743 101.777L60.9882 103.161H60.8919L61.9824 102.118C61.9878 102.112 61.9944 102.107 62.002 102.103C62.0096 102.1 62.0178 102.098 62.0262 102.098C62.0346 102.098 62.0428 102.1 62.0504 102.103C62.058 102.107 62.0647 102.112 62.07 102.118L62.8102 103.029H62.7094L63.5153 100.997C63.5177 100.99 63.5216 100.983 63.5268 100.977C63.5319 100.972 63.5381 100.967 63.545 100.964C63.552 100.96 63.5596 100.959 63.5672 100.958C63.5749 100.958 63.5826 100.959 63.5898 100.962C63.5968 100.965 63.6031 100.969 63.6084 100.974C63.6137 100.979 63.6178 100.986 63.6204 100.993L64.4964 102.797H64.3956L64.8643 101.891C64.8675 101.884 64.872 101.878 64.8776 101.874C64.8831 101.869 64.8896 101.865 64.8967 101.863C64.9037 101.861 64.911 101.861 64.9183 101.862C64.9255 101.862 64.9325 101.865 64.9387 101.869C64.9459 101.867 64.9534 101.867 64.9606 101.869L65.4862 102.609H65.3942L65.8979 101.908C65.9092 101.898 65.924 101.892 65.9395 101.892C65.9549 101.892 65.9697 101.898 65.9811 101.908C65.9829 101.915 65.9829 101.923 65.9811 101.93L66.5855 103.2H66.4847L67.0015 102.399C67.0064 102.394 67.0122 102.39 67.0186 102.387C67.025 102.385 67.0319 102.383 67.0388 102.383C67.0457 102.383 67.0525 102.385 67.0589 102.387C67.0653 102.39 67.0711 102.394 67.076 102.399L67.5446 103.069L67.4439 103.091L68.0483 99.8628C68.0483 99.8489 68.0538 99.8355 68.0637 99.8256C68.0735 99.8158 68.0869 99.8102 68.1008 99.8102C68.1148 99.8102 68.1282 99.8158 68.138 99.8256C68.1479 99.8355 68.1534 99.8489 68.1534 99.8628L69.2133 106.844H69.1169L70.1067 105.167C70.114 105.165 70.1214 105.165 70.1286 105.167L71.1316 104.65H71.1754L72.4061 105.167H72.3579L73.3258 104.453C73.3341 104.447 73.3441 104.443 73.3543 104.443C73.3645 104.443 73.3745 104.447 73.3828 104.453L74.3901 105.167L75.266 105.683H75.2222L76.3434 105.167C76.3508 105.162 76.3591 105.16 76.3675 105.16C76.376 105.16 76.3843 105.162 76.3916 105.167L77.8544 106.393L77.7756 106.424L78.1566 102.81C78.1587 102.798 78.1652 102.787 78.1748 102.779C78.1844 102.771 78.1966 102.766 78.2092 102.767C78.2251 102.77 78.2392 102.779 78.2486 102.793L79.799 105.495H79.7421L80.618 105.171H80.6531L82.1378 105.688H82.0808L82.8517 104.72C82.8562 104.715 82.8616 104.711 82.8676 104.709C82.8737 104.706 82.8801 104.705 82.8867 104.705C82.8933 104.705 82.8998 104.706 82.9058 104.709C82.9118 104.711 82.9172 104.715 82.9217 104.72L84.205 105.683L84.1262 105.718L85.1948 100.025C85.198 100.01 85.2066 99.9979 85.2188 99.9897C85.2311 99.9815 85.246 99.9784 85.2605 99.9811C85.2729 99.9831 85.2841 99.9896 85.2921 99.9992C85.3002 100.009 85.3045 100.021 85.3043 100.034L86.2328 145.872L86.1496 145.797L102.289 144.658L102.214 144.742L101.776 121.293L101.562 109.568L101.457 103.708L101.4 100.778C101.378 99.8015 101.4 98.8204 101.312 97.8481L101.4 96.9722C101.403 96.9451 101.417 96.9203 101.438 96.9031C101.459 96.886 101.486 96.8778 101.514 96.8802C101.537 96.883 101.559 96.8936 101.575 96.9103C101.592 96.927 101.603 96.9488 101.606 96.9722L101.842 98.8686L104.176 142.337L104.067 142.223C105.454 142.355 106.847 142.411 108.241 142.39C109.633 142.376 111.021 142.25 112.393 142.013C113.076 141.895 113.75 141.702 114.425 141.527L116.453 141.001C117.127 140.822 117.806 140.66 118.476 140.467C119.146 140.274 119.79 140.029 120.451 139.797L120.373 139.915L120.421 93.3589C120.421 93.3241 120.435 93.2907 120.459 93.266C120.484 93.2414 120.517 93.2276 120.552 93.2276C120.569 93.2276 120.585 93.2308 120.601 93.2372C120.616 93.2436 120.63 93.253 120.642 93.2648C120.654 93.2766 120.663 93.2906 120.669 93.306C120.676 93.3214 120.679 93.3379 120.679 93.3546L122.961 138.676L122.882 138.571C124.347 138.955 125.852 139.168 127.367 139.206C128.885 139.24 130.404 139.171 131.913 139C133.424 138.842 134.926 138.584 136.415 138.286C137.904 137.988 139.385 137.62 140.839 137.182L140.764 137.305C140.524 135.413 140.445 133.547 140.326 131.668L139.998 126.036L139.411 114.763L138.338 92.2202C138.338 92.2059 138.341 92.1918 138.347 92.1789C138.353 92.1659 138.362 92.1546 138.373 92.1458L138.789 91.8261C138.805 91.8125 138.825 91.805 138.846 91.805C138.867 91.805 138.887 91.8125 138.903 91.8261L139.389 92.3078H139.284L140.16 91.7604C140.175 91.7483 140.193 91.7417 140.213 91.7417C140.232 91.7417 140.25 91.7483 140.265 91.7604L140.865 92.3166H140.769L141.846 91.7604C141.861 91.7509 141.877 91.7459 141.894 91.7459C141.912 91.7459 141.928 91.7509 141.943 91.7604L142.718 92.4918L142.582 92.5181L143.138 91.2698C143.148 91.2502 143.164 91.2348 143.184 91.2267C143.205 91.2187 143.227 91.2184 143.248 91.226C143.265 91.2345 143.279 91.2484 143.287 91.2655L143.725 92.0669H143.572L143.865 90.8757C143.868 90.865 143.872 90.855 143.879 90.8461C143.885 90.8373 143.894 90.8298 143.903 90.8241C143.912 90.8184 143.923 90.8146 143.933 90.8129C143.944 90.8113 143.955 90.8117 143.966 90.8143H144.005L144.798 91.6115H144.763L145.74 91.9049L145.648 91.9355L146.003 91.4187C146.018 91.4043 146.038 91.3962 146.059 91.3962C146.081 91.3962 146.101 91.4043 146.116 91.4187L146.143 91.445L146.927 92.8027L146.778 92.8334L147.032 90.7268C147.036 90.7059 147.048 90.6873 147.065 90.6744C147.081 90.6615 147.103 90.6552 147.124 90.6567C147.145 90.6614 147.164 90.6739 147.176 90.6917L147.737 91.4319L147.641 91.4056L148.267 91.1516C148.287 91.1452 148.308 91.1452 148.328 91.1516L148.735 91.3268L149.357 91.5458L149.265 91.5808L149.756 90.7049C149.767 90.6868 149.784 90.6736 149.805 90.6679C149.825 90.6622 149.847 90.6645 149.865 90.6742H149.892L150.584 91.5764H150.461L151.276 90.5822C151.29 90.568 151.31 90.5601 151.33 90.5601C151.351 90.5601 151.37 90.568 151.385 90.5822L152.029 91.6553H151.92L152.901 91.0027L152.874 91.029L153.343 90.188C153.354 90.1711 153.37 90.1586 153.39 90.153C153.409 90.1474 153.43 90.1489 153.448 90.1574C153.46 90.1633 153.471 90.1727 153.478 90.1844C153.485 90.196 153.488 90.2095 153.487 90.2231C153.829 95.4086 154.394 100.581 155.139 105.727C155.855 110.877 156.879 115.98 158.204 121.008C158.878 123.52 159.734 125.979 160.767 128.366C161.27 129.562 161.796 130.753 162.356 131.927L162.794 132.803C162.956 133.074 163.022 133.451 163.368 133.499C164.009 133.591 164.66 133.573 165.295 133.446C166.576 133.232 167.845 132.95 169.097 132.601C170.354 132.264 171.598 131.896 172.841 131.515C175.325 130.74 177.83 129.916 180.239 129.04Z" fill="#3F4449"/>
<path d="M31.2464 99.1924L30.699 147.404L27.1602 147.807L31.2464 99.1924Z" fill="#DEDEDE"/>
<path d="M101.439 97.209L102.284 144.702L99.4023 144.926L101.439 97.209Z" fill="#DEDEDE"/>
<path d="M120.549 93.6611L120.571 139.867C120.571 139.867 119.849 140.156 118.285 140.62L120.549 93.6611Z" fill="#DEDEDE"/>
<path d="M10.5781 29.8008C10.5781 29.8008 16.2411 23.6692 18.0236 21.6589C19.8061 19.6486 26.6122 10.6221 26.6122 10.6221L10.5781 29.8008Z" fill="#CCCCCC"/>
<path d="M8.88013 31.7584L8.36333 31.3205L7.71513 30.4401L6.7297 30.4051L6.58517 29.5292L5.63478 29.4547L5.70923 28.5043L5.0917 28.5087L4.28583 28.2853L4.06685 27.6327L3.37485 27.5189L3.33982 27.0064L2.27993 26.8619L2.31497 25.8765L1.58356 26.0254L1.7675 25.075L0.856527 25.4035L0.782072 24.4531L0.015625 24.637L18.0863 3.24658L18.4366 3.87726L19.2031 3.90792L19.1768 4.56487L20.0002 4.61743L20.2192 5.38387L20.9287 5.30066L21.0951 6.04083L21.8309 6.12404L21.8878 6.80728L22.6543 6.64523L22.7901 7.43795L23.2017 7.41168L23.6923 8.23068L24.7084 8.39711L24.6777 8.99713L25.7464 8.86136L25.3653 10.2278L26.1318 10.149L26.1011 10.5037L26.8763 10.7884L8.88013 31.7584Z" fill="#E3E3E3"/>
<path d="M10.5278 15.6934C10.5278 15.6934 10.554 15.8598 10.5847 16.1313C10.6153 16.4029 10.6679 16.8408 10.7117 17.3445C10.7993 18.3475 10.8825 19.6876 10.9307 21.0322C10.9789 22.3768 10.9832 23.7126 10.9613 24.7199C10.9613 25.228 10.9263 25.6484 10.9175 25.9419C10.9088 26.2353 10.8913 26.4017 10.8913 26.4017C10.8913 26.4017 10.8913 26.2353 10.8343 25.9419C10.7774 25.6484 10.7511 25.2323 10.7117 24.7287C10.6197 23.7257 10.5365 22.3855 10.4927 21.0454C10.4489 19.7052 10.4402 18.3606 10.4577 17.3533C10.4577 16.8496 10.4927 16.4291 10.5015 16.1357C10.5102 15.8423 10.5278 15.6934 10.5278 15.6934Z" fill="#CCCCCC"/>
<path d="M16.0195 11.3139L16.3611 11.2614C16.5758 11.2614 16.8867 11.1869 17.2371 11.1519C17.9816 11.073 18.989 11.0073 19.9656 10.9723C20.9423 10.9373 21.954 10.9504 22.703 10.9723C23.0752 10.9723 23.3862 11.0161 23.6052 11.0292L23.9512 11.0599L23.6095 11.1125C23.3906 11.1387 23.084 11.1869 22.7117 11.2263C21.9672 11.3052 20.9598 11.3709 19.9788 11.4015C18.9977 11.4322 17.9904 11.4278 17.2415 11.4015C16.8692 11.4015 16.5582 11.3577 16.3392 11.349C16.1203 11.3402 16.0195 11.3139 16.0195 11.3139Z" fill="#CCCCCC"/>
<path d="M144.691 10.9507C144.691 10.9507 149.071 15.6939 152.794 19.0531C156.363 22.2722 162.867 27.011 163.743 27.3001L144.691 10.9507Z" fill="#CCCCCC"/>
<path d="M174.671 21.6191L174.473 22.4469L173.768 22.679L173.527 23.4674L172.884 23.7302L172.687 24.4922L171.96 24.8207L171.736 25.6572L170.97 25.6222L171.009 26.5332L170.024 26.8266L169.984 27.6281L169.148 27.7376L169.038 28.6135L168.123 28.7624L168.197 29.7829L166.993 29.38L167.116 30.5406L142.414 9.63629L143.124 9.27278L143.106 8.82605L143.816 8.65086L143.562 7.59097L144.731 7.33695L144.656 6.53546L145.532 6.27706L145.607 5.44054L146.553 5.58507L146.824 4.42883L147.578 4.1967L147.722 3.36894L148.16 3.6142L148.642 2.28278L149.365 2.15576L149.912 1.3499L149.969 0.714844L174.671 21.6191Z" fill="#E3E3E3"/>
<path d="M162.359 14.5283C162.359 14.5283 162.359 14.6947 162.359 14.9926C162.359 15.2904 162.359 15.7108 162.324 16.2145C162.289 16.7182 162.324 17.305 162.324 17.9313C162.324 18.5576 162.355 19.2453 162.368 19.8978C162.368 20.2307 162.394 20.5635 162.416 20.892C162.438 21.2205 162.447 21.549 162.464 21.8599C162.512 22.4906 162.556 23.0731 162.591 23.5768C162.626 24.0804 162.657 24.5009 162.692 24.7943C162.727 25.0878 162.731 25.2586 162.731 25.2586C162.573 24.7168 162.443 24.1671 162.342 23.6118C162.241 23.1125 162.166 22.5257 162.079 21.895C161.991 21.2643 161.952 20.5811 161.934 19.911C161.934 19.5737 161.934 19.2365 161.934 18.9036C161.924 18.5765 161.931 18.249 161.956 17.9226C161.978 17.6029 161.996 17.2963 162.013 17.0028C162.026 16.73 162.054 16.458 162.096 16.1882C162.171 15.6889 162.25 15.2729 162.298 14.9838C162.346 14.6947 162.359 14.5283 162.359 14.5283Z" fill="#CCCCCC"/>
<path d="M148.574 11.5194L148.977 11.4756C149.231 11.4537 149.595 11.4099 150.033 11.3836C150.909 11.3179 152.069 11.2697 153.239 11.2566C154.408 11.2434 155.569 11.2566 156.445 11.3179C156.883 11.3398 157.246 11.3748 157.5 11.3924L157.903 11.4318C157.903 11.4318 157.758 11.4537 157.5 11.4756C157.242 11.4975 156.883 11.5413 156.445 11.5719C155.569 11.6332 154.408 11.6814 153.243 11.6946C152.078 11.7077 150.909 11.6946 150.033 11.6332C149.595 11.6113 149.231 11.5763 148.977 11.5588C148.723 11.5413 148.574 11.5194 148.574 11.5194Z" fill="#CCCCCC"/>
<path d="M57.0162 32.0929C56.4016 32.2013 56.1124 31.7675 56.0401 31.406C55.2087 27.1042 55.3171 15.6808 55.3171 14.9578C55.3171 14.5963 55.6786 14.2348 56.0401 14.1625C56.4739 14.054 61.7518 13.5479 63.704 13.801C64.427 13.9094 64.4631 13.9817 65.4753 21.1756C65.9814 25.0798 66.2706 28.8032 66.3429 30.5023C66.3791 31.0445 66.0899 31.406 65.4753 31.406C64.9331 31.406 64.6077 30.9361 64.5716 30.6107C64.3185 27.2488 63.3425 17.3437 62.8002 15.3193C61.3542 15.2108 58.6068 15.5 57.0162 15.6808C57.0162 18.2474 57.1608 27.538 57.7392 31.2253C57.7753 31.5868 57.5584 32.0206 57.0162 32.0929Z" fill="#3F4449"/>
<path d="M71.8787 39.7928C72.3848 39.7205 72.674 39.2867 72.5655 38.8168C72.1679 36.467 71.6979 33.9365 71.4087 31.1891C73.2162 31.1891 75.9636 30.2854 77.3735 28.514C78.2049 27.4657 78.3857 26.0558 78.0965 24.7906C77.6627 23.0192 75.9275 22.007 74.5176 21.7901C73.7223 21.6455 72.8186 21.6094 72.0594 21.8263C71.4087 21.9709 70.3604 22.477 69.9266 22.9469C69.9266 22.9469 69.8543 22.6939 69.6735 22.5854C69.4205 22.4047 69.0228 22.4047 68.7698 22.5493C68.3721 22.8023 68.2998 23.3084 68.4444 23.6699C68.9144 24.9352 69.3482 28.1525 69.8181 31.4422C70.1796 34.1896 70.5411 36.9731 71.0111 39.106C71.0472 39.4313 71.3364 39.9013 71.8787 39.7928ZM71.1918 29.7793C70.9388 27.538 70.5411 25.5859 70.2519 24.2483C70.9749 23.453 72.4932 22.9469 74.0115 23.2723C74.9876 23.5253 76.0359 24.1399 76.3974 25.1882C76.6505 25.9835 76.4697 26.8873 75.9275 27.6103C74.8791 28.984 72.6017 29.7793 71.1918 29.7793Z" fill="#3F4449"/>
<path d="M82.7996 20.0188C84.6071 19.115 85.8362 19.2235 87.1376 19.6211C88.7282 20.0911 90.102 21.4648 90.5358 22.6939C91.6203 25.8751 90.9334 29.9239 86.8484 31.6229C86.3062 31.8398 85.7639 31.9121 85.2578 31.9121C84.5348 31.9121 83.8118 31.7314 83.1973 31.3699C81.4259 30.3577 80.2691 28.4779 80.0161 26.9596C79.4738 23.9591 80.956 20.9587 82.7996 20.0188ZM83.7757 21.2117C82.4743 21.9709 81.2452 24.3206 81.679 26.6342C81.8959 27.7187 82.6189 29.2732 83.9564 29.9962C84.7517 30.43 85.4747 30.43 86.1977 30.1769C89.9212 28.7671 89.5958 25.0075 88.9813 23.1638C88.6921 22.3324 87.8245 21.4648 86.7038 21.031C85.6916 20.6333 84.3179 20.9225 83.7757 21.2117Z" fill="#3F4449"/>
<path d="M99.0875 31.9483L99.1598 32.0206C98.6175 32.5628 97.8584 33.3943 97.3523 33.9727C95.7978 35.9609 94.3157 37.6238 94.1349 39.9013C93.9542 42.468 95.1471 43.5886 96.3039 44.1309C96.8462 44.3839 97.4607 44.4562 98.0753 44.4562C99.0513 44.4562 100.027 44.1309 100.642 43.6609C102.377 42.468 103.425 39.5759 102.739 34.1896C102.666 33.5027 102.558 32.4182 102.486 31.153C102.666 30.9722 103.498 30.0685 103.57 29.96C103.751 29.6708 103.932 29.2009 103.606 28.8394C103.245 28.4779 102.775 28.5863 102.558 28.8032C102.486 28.9117 102.341 29.0201 102.269 29.1286L102.16 29.0924C102.16 28.5502 101.979 20.6695 101.979 20.561C101.979 20.1272 101.654 19.7657 101.329 19.6934C100.859 19.5488 100.57 19.838 100.389 20.1272C98.979 19.6934 96.8823 19.5488 95.1833 20.5249C94.1349 21.1394 93.2673 22.3685 92.942 23.8868C92.4359 25.9112 92.8335 28.2971 93.918 29.9962C94.6049 31.0807 95.7978 31.7675 97.1354 31.9483C98.003 32.0567 98.8344 32.0206 99.0875 31.9483ZM98.4006 30.6107C97.4246 30.6107 96.0147 30.1769 95.4002 29.2009C94.5687 27.9356 94.1711 25.9112 94.5326 24.2845C94.7133 23.4892 95.1833 22.4408 96.087 21.8986C97.5692 20.9948 99.5936 21.3563 100.317 21.7178C100.317 23.4892 100.497 27.068 100.642 30.0685C100.317 30.3577 99.3767 30.6107 98.4006 30.6107ZM99.5213 42.3595C98.9067 42.7933 97.8945 43.0464 97.0992 42.6126C96.1232 42.0703 95.7978 41.0219 95.9063 40.0459C96.0147 38.7806 96.81 37.0816 98.8706 34.5149C99.3767 33.8642 100.172 32.9243 100.787 32.2013H100.931C101.003 32.9243 101.112 34.0811 101.148 34.6234C101.654 39.2867 100.678 41.5642 99.5213 42.3595Z" fill="#3F4449"/>
<path d="M115.553 30.7192C115.3 30.2492 114.83 29.4901 114.649 28.5863C114.324 26.9234 114.324 22.8746 114.034 21.4286C113.854 20.308 112.878 19.1873 111.179 18.8258C109.66 18.5005 107.274 18.6089 105.937 20.4887C105.684 20.8502 105.756 21.3925 106.118 21.6817C106.479 21.9347 107.094 21.754 107.383 21.3925C108.25 20.2357 109.588 19.9826 110.672 20.2357C111.648 20.4887 112.263 21.1394 112.335 21.5732C112.444 22.007 112.444 23.6338 112.444 23.7061C109.046 23.2723 106.551 24.3206 105.937 26.5619C105.141 29.4178 106.371 31.876 108.865 32.599C109.407 32.7436 111.215 32.9243 112.371 32.2013C112.805 31.9121 113.311 31.4422 113.601 30.8999H113.673C113.854 31.2614 114.034 31.6229 114.215 31.8037C114.396 31.9844 114.866 32.2736 115.372 31.9483C115.806 31.6952 115.733 31.1168 115.553 30.7192ZM109.371 31.1168C107.708 30.6469 106.985 29.0924 107.527 27.0319C108.07 24.899 111.359 25.0436 112.588 25.2244C112.697 26.6342 112.769 28.2248 113.131 29.4539C112.661 30.3577 110.998 31.5506 109.371 31.1168Z" fill="#3F4449"/>
<path d="M118.015 31.6591C117.581 31.5868 117.364 31.0445 117.472 30.6469C118.123 28.1164 119.822 22.4047 120.111 21.5732C120.364 20.9948 120.87 20.7779 121.123 20.7779C121.919 20.7779 122.389 21.6817 123.292 23.2723C123.509 23.7422 123.943 24.5014 124.124 24.8629H124.196C124.377 24.5737 124.738 23.9953 125.064 23.453C125.534 22.6577 125.931 21.8986 126.474 21.1394C126.871 20.5249 127.341 20.4887 127.63 20.5249C128.1 20.5972 128.353 20.9948 128.787 21.9709C129.33 23.0915 131.029 29.3093 131.137 29.8516C131.209 30.2854 131.065 30.7915 130.631 30.9361C130.161 31.0445 129.763 30.8276 129.619 30.3938C129.474 29.8516 128.39 25.7666 127.92 24.3568C127.739 23.7061 127.522 22.9831 127.377 22.477H127.305C127.016 23.0554 126.618 23.7784 126.365 24.2122C124.847 26.7788 124.413 26.8511 124.124 26.9234C123.762 26.9957 123.437 26.815 123.256 26.6704C122.678 26.092 122.316 25.3328 121.883 24.4291C121.702 24.0676 121.449 23.453 121.268 23.0192H121.196C120.979 23.7422 120.762 24.646 120.545 25.4413C120.039 27.3572 119.605 29.1647 118.918 31.153C118.882 31.2614 118.557 31.8037 118.015 31.6591Z" fill="#3F4449"/>
<path d="M113.576 52.5575C113.164 52.5575 112.697 52.3927 112.463 52.1179C112.079 51.692 111.9 50.8951 113.054 49.8784C113.329 49.6448 114.084 48.9854 114.112 48.477C114.126 48.3396 114.071 48.2022 113.947 48.1061C113.81 47.9961 113.604 47.9412 113.343 47.9961C113.068 48.0648 112.724 48.2709 112.601 48.6144C112.532 48.7793 112.326 48.8617 112.161 48.793C111.982 48.7243 111.969 48.532 112.037 48.3534C112.202 47.8862 112.697 47.529 113.233 47.4328C113.686 47.3504 114.153 47.4328 114.387 47.6664C114.62 47.9 114.73 48.1335 114.73 48.4358C114.73 49.1228 113.988 49.8234 113.425 50.3318C112.546 51.1012 112.834 51.5821 112.972 51.7194C113.15 51.9118 113.411 52.0217 113.713 51.9942C114.112 51.9393 114.455 51.6508 114.73 51.1424C114.813 50.9638 115.032 50.9088 115.17 50.9775C115.307 51.0462 115.362 51.2523 115.293 51.376C114.84 52.2965 114.181 52.5575 113.576 52.5575ZM119.786 52.0217C119.69 51.8431 119.512 51.5546 119.443 51.2111C119.319 50.5791 119.319 49.0403 119.209 48.4908C119.141 48.0648 118.77 47.6389 118.124 47.5015C117.547 47.3779 116.64 47.4191 116.132 48.1335C116.036 48.2709 116.063 48.477 116.2 48.5869C116.338 48.6831 116.571 48.6144 116.681 48.477C117.011 48.0374 117.519 47.9412 117.932 48.0374C118.303 48.1335 118.536 48.3808 118.564 48.5457C118.605 48.7106 118.605 49.3288 118.605 49.3563C117.313 49.1914 116.365 49.5899 116.132 50.4417C115.83 51.5271 116.297 52.4614 117.245 52.7361C117.451 52.7911 118.138 52.8598 118.577 52.585C118.742 52.4751 118.935 52.2965 119.044 52.0904H119.072C119.141 52.2278 119.209 52.3652 119.278 52.4339C119.347 52.5026 119.525 52.6125 119.718 52.4888C119.883 52.3927 119.855 52.1728 119.786 52.0217ZM117.437 52.1728C116.805 51.9942 116.53 51.4034 116.736 50.6203C116.942 49.8097 118.193 49.8647 118.66 49.9334C118.701 50.4692 118.728 51.0737 118.866 51.5408C118.687 51.8843 118.055 52.3377 117.437 52.1728ZM121.945 55.4702C122.137 55.4427 122.247 55.2779 122.206 55.0993C122.055 54.2062 121.876 53.2445 121.766 52.2003C122.453 52.2003 123.497 51.8568 124.033 51.1836C124.349 50.7852 124.418 50.2494 124.308 49.7685C124.143 49.0953 123.484 48.7106 122.948 48.6281C122.646 48.5732 122.302 48.5594 122.014 48.6419C121.766 48.6968 121.368 48.8892 121.203 49.0678C121.203 49.0678 121.175 48.9716 121.107 48.9304C121.011 48.8617 120.859 48.8617 120.763 48.9167C120.612 49.0128 120.585 49.2052 120.64 49.3426C120.818 49.8234 120.983 51.0462 121.162 52.2965C121.299 53.3407 121.436 54.3986 121.615 55.2092C121.629 55.3328 121.739 55.5114 121.945 55.4702ZM121.684 51.6645C121.588 50.8127 121.436 50.0708 121.327 49.5624C121.601 49.2601 122.178 49.0678 122.755 49.1914C123.126 49.2876 123.525 49.5212 123.662 49.9196C123.758 50.2219 123.69 50.5654 123.484 50.8401C123.085 51.3622 122.22 51.6645 121.684 51.6645ZM128.83 52.0217C128.733 51.8431 128.555 51.5546 128.486 51.2111C128.362 50.5791 128.362 49.0403 128.252 48.4908C128.184 48.0648 127.813 47.6389 127.167 47.5015C126.59 47.3779 125.683 47.4191 125.175 48.1335C125.079 48.2709 125.106 48.477 125.244 48.5869C125.381 48.6831 125.615 48.6144 125.724 48.477C126.054 48.0374 126.563 47.9412 126.975 48.0374C127.346 48.1335 127.579 48.3808 127.607 48.5457C127.648 48.7106 127.648 49.3288 127.648 49.3563C126.356 49.1914 125.408 49.5899 125.175 50.4417C124.873 51.5271 125.34 52.4614 126.288 52.7361C126.494 52.7911 127.181 52.8598 127.62 52.585C127.785 52.4751 127.978 52.2965 128.088 52.0904H128.115C128.184 52.2278 128.252 52.3652 128.321 52.4339C128.39 52.5026 128.568 52.6125 128.761 52.4888C128.926 52.3927 128.898 52.1728 128.83 52.0217ZM126.48 52.1728C125.848 51.9942 125.573 51.4034 125.779 50.6203C125.986 49.8097 127.236 49.8647 127.703 49.9334C127.744 50.4692 127.772 51.0737 127.909 51.5408C127.73 51.8843 127.098 52.3377 126.48 52.1728ZM132.609 51.1149C132.705 50.9775 132.884 50.7165 133.076 50.4142C133.653 50.5516 134.327 51.5958 134.629 52.2278C134.698 52.3652 134.89 52.4751 135.055 52.4064C135.288 52.3102 135.206 52.0354 135.165 51.8981C135.096 51.7194 134.684 50.8127 133.928 50.2219C133.763 50.0982 133.612 50.0158 133.406 49.9059C133.502 49.7822 133.681 49.5761 133.763 49.4662C134.093 49.0678 134.478 48.6007 134.56 48.4908C134.615 48.4358 134.629 48.216 134.505 48.1198C134.368 48.0099 134.189 48.0511 134.093 48.1473C134.038 48.2022 133.488 48.8617 132.98 49.5624C132.884 49.6998 132.637 50.0433 132.54 50.2081H132.513C132.513 50.0021 132.458 48.8892 132.444 48.5457C132.431 48.3808 132.307 48.2434 132.101 48.2434C131.895 48.2434 131.799 48.3808 131.799 48.5457C131.799 48.8617 131.908 49.9334 131.922 50.112H131.895C131.799 49.9746 131.592 49.6998 131.496 49.5624C131.002 48.9441 130.452 48.3534 130.315 48.2434C130.191 48.161 129.985 48.1061 129.848 48.2297C129.724 48.3534 129.724 48.5594 129.834 48.6831C130.081 48.9441 130.383 49.2601 130.754 49.6311C130.851 49.741 131.084 49.9883 131.153 50.0708C131.07 50.112 130.727 50.3593 130.631 50.4692C129.944 51.1424 129.573 51.9255 129.504 52.1041C129.449 52.2415 129.463 52.4339 129.6 52.5026C129.779 52.5987 129.999 52.4751 130.04 52.3652C130.342 51.637 131.015 50.7165 131.565 50.5516C131.73 50.744 131.908 50.9501 131.977 51.0874C131.991 51.5134 131.963 51.953 131.936 52.3514C131.922 52.5301 132.005 52.7087 132.197 52.7087C132.403 52.7087 132.527 52.5713 132.554 52.4064C132.609 52.0354 132.609 51.5546 132.609 51.1149Z" fill="#3F4449"/>
<path d="M29.3086 61.1064C39.125 61.1298 48.9399 61.2437 58.7533 61.4481C58.381 68.714 58.0088 76.0193 58.8453 83.2458L44.0945 83.3247C40.6695 83.3247 36.211 84.1042 32.9043 83.0268C29.5977 81.9494 29.9086 78.7829 29.8079 75.7741L29.3086 61.1064Z" stroke="#3F4449" stroke-width="0.43797" stroke-miterlimit="10"/>
<path d="M26.4727 61.5234C32.1225 55.9918 39.7738 53.11 47.1886 50.3726C47.737 50.1205 48.3374 50.0019 48.9405 50.0266C49.475 50.1245 49.9791 50.3465 50.4121 50.6748C55.7553 54.2399 59.1014 60.4854 64.922 63.192" stroke="#3F4449" stroke-width="0.43797" stroke-miterlimit="10"/>
<path d="M43.6236 61.4395C44.1667 64.9432 43.4659 68.5039 43.5141 72.0471C43.5842 74.1203 43.7831 76.1871 44.1098 78.2356L44.7492 82.9044" stroke="#3F4449" stroke-width="0.43797" stroke-miterlimit="10"/>
<path d="M81.9161 81.5946L78.0094 81.6603C77.0459 81.6603 76.0429 81.6822 75.1714 81.2661C74.2998 80.85 73.6166 79.8777 73.8575 78.9449C73.9668 78.6218 74.1518 78.3295 74.3972 78.0926C74.6425 77.8556 74.941 77.6808 75.2677 77.5828C75.9233 77.3944 76.6053 77.3146 77.2868 77.3463L80.2343 77.3244C80.9002 77.3399 81.566 77.2915 82.2227 77.1798C84.1059 76.8032 85.6169 75.428 86.9221 74.0265C88.2272 72.625 89.4711 71.0833 91.1616 70.1855C93.3515 69.0117 96.0538 69.0862 98.467 69.7475C99.0082 69.8587 99.5172 70.0907 99.9561 70.4263C100.867 71.2235 100.906 72.6162 101.546 73.6498C102.461 75.1301 104.38 75.5594 106.092 75.8397L109.644 76.4528C110.583 76.5504 111.49 76.8492 112.302 77.3288C113.073 77.8675 113.616 78.8792 113.275 79.7639C112.933 80.6486 111.961 81.0778 111.032 81.2836C109.283 81.692 107.467 81.7204 105.707 81.3668" stroke="#3F4449" stroke-width="0.43797" stroke-miterlimit="10"/>
<path d="M85.9214 83.9025C86.5477 83.8786 87.14 83.6115 87.5725 83.1579C87.8981 82.6245 88.0077 81.9869 87.8791 81.3754C87.8634 81.0728 87.7715 80.779 87.612 80.5214C86.736 79.2994 84.2396 79.5841 83.6965 80.9944C83.5501 81.3369 83.4973 81.7122 83.5436 82.0818C83.5899 82.4514 83.7336 82.8021 83.9599 83.098C84.1863 83.3938 84.4872 83.6242 84.8318 83.7656C85.1765 83.9069 85.5525 83.9542 85.9214 83.9025V83.9025Z" stroke="#3F4449" stroke-width="0.43797" stroke-miterlimit="10"/>
<path d="M101.185 81.363C101.05 81.4775 100.946 81.6246 100.884 81.7905C100.821 81.9563 100.802 82.1354 100.828 82.3108C100.853 82.4861 100.924 82.652 101.031 82.7927C101.139 82.9334 101.281 83.0443 101.444 83.1149C101.735 83.2194 102.047 83.2569 102.355 83.2244L103.121 83.1981C103.181 83.2029 103.241 83.1892 103.292 83.1587C103.327 83.1303 103.356 83.0944 103.375 83.0536C103.689 82.3514 103.725 81.5563 103.476 80.8287C103.174 80.1323 102.272 79.668 101.615 80.0535C101.215 80.3618 100.936 80.8003 100.826 81.2929" stroke="#3F4449" stroke-width="0.43797" stroke-miterlimit="10"/>
<path d="M90.5508 81.5553C93.1304 81.6532 95.7137 81.5669 98.2809 81.2969" stroke="#3F4449" stroke-width="0.43797" stroke-miterlimit="10"/>
<path d="M115.613 79.3216C115.979 79.4042 116.358 79.4051 116.723 79.3241C117.089 79.2431 117.432 79.0822 117.729 78.8529C118.294 78.3493 118.736 77.3726 118.364 76.9302C118.075 76.5843 117.343 76.628 117.299 76.7726C117.256 76.9171 117.965 77.4646 118.74 77.4733C119.119 77.4603 119.487 77.3472 119.808 77.1457C120.129 76.9442 120.391 76.6613 120.567 76.3258C120.719 76.0939 120.813 75.8293 120.843 75.5537C120.873 75.2781 120.837 74.9993 120.738 74.7404C120.392 74.0309 119.424 73.7462 119.275 73.9258C119.178 74.0396 119.345 74.4163 119.599 74.6134C120.269 75.1258 121.846 74.6134 122.616 73.5535C123.387 72.4936 123.374 71.0001 122.997 70.8337C122.859 70.8143 122.718 70.8489 122.604 70.9304C122.489 71.0119 122.411 71.1341 122.384 71.2717C122.384 71.7096 123.882 72.533 125.012 71.9155C125.012 71.9155 126.076 71.2892 125.919 69.4585C125.923 69.3944 125.912 69.3303 125.886 69.2716C125.86 69.2129 125.82 69.1613 125.77 69.1212C125.59 69.0205 125.376 69.257 125.415 69.4541C125.446 69.5541 125.5 69.6456 125.572 69.7216C125.644 69.7975 125.733 69.8558 125.831 69.8921C126.212 70.0488 126.623 70.1207 127.035 70.1028C127.447 70.0849 127.85 69.9776 128.216 69.7885C128.582 69.5993 128.903 69.3328 129.156 69.0073C129.409 68.6819 129.588 68.3053 129.681 67.9037C129.696 67.8601 129.699 67.8134 129.691 67.7682C129.682 67.7229 129.662 67.6806 129.633 67.6453C129.593 67.6103 129.51 67.6978 129.471 67.7416" stroke="#3F4449" stroke-width="0.43797" stroke-miterlimit="10"/>
<path d="M25.0553 112.581C25.0911 112.076 24.9637 111.572 24.6918 111.145H23.5618C23.8349 111.542 23.9731 112.016 23.956 112.498C23.956 113.492 23.1851 113.899 21.972 113.899C20.7588 113.899 20.0449 113.396 20.0449 112.485C20.0491 112.014 20.1742 111.553 20.4084 111.145H19.2259C19.0156 111.613 18.9195 112.125 18.9456 112.638C18.9456 114.412 20.2201 115.336 22.0114 115.336C23.9691 115.336 25.0553 114.438 25.0553 112.581ZM24.5428 121.27H23.4085C23.7571 121.818 23.9466 122.452 23.956 123.101C23.956 124.117 23.4786 124.503 22.4975 124.564V121.209H21.7617C19.7164 121.209 18.9456 122.111 18.9456 123.5C18.9456 125.195 20.2595 126 22.0114 126C24.0523 126 25.0465 124.993 25.0465 123.219C25.0766 122.534 24.9012 121.855 24.5428 121.27ZM19.0638 133.998H21.3895V135.855H19.0638V137.243H24.937V135.855H22.4844V133.998H24.937V132.609H19.0638V133.998ZM23.8421 126.338V126.955H19.0638V131.006H19.5675C21.004 131.006 22.861 131.103 23.8421 131.593V132.031H26.2947V130.748H24.937V127.63H26.2947V126.346L23.8421 126.338ZM24.937 116.829V115.253L21.7749 117.486L19.0638 115.524V116.926L21.7749 118.888H19.0638V120.281H24.937V118.892H22.0552L24.937 116.834V116.829ZM20.0449 123.522C20.0449 122.834 20.6186 122.646 21.3588 122.646H21.4771V124.586C20.5442 124.551 20.0537 124.209 20.0537 123.543L20.0449 123.522ZM23.8421 128.339V130.301C22.9662 129.916 21.3544 129.811 20.3383 129.811H20.1631V128.339H23.8421Z" fill="#3F4449"/>
<path d="M24.9354 138.413V139.827H17.9279V140.458C17.9279 141.614 18.5104 142.21 19.3732 142.21C20.3543 142.21 20.8097 141.772 21.3966 140.927L21.874 140.213L24.9398 142.271V143.8L22.1981 141.956C21.436 143.016 20.7003 143.611 19.452 143.611C17.8885 143.611 16.8242 142.525 16.8242 140.458V138.413H24.9354Z" fill="#027FF3"/>
<path d="M165.817 94.7341C165.797 94.2311 165.614 93.7482 165.295 93.3589L164.196 93.6217C164.512 93.9796 164.7 94.4327 164.73 94.9093C164.849 95.9166 164.139 96.5035 162.943 96.7794C161.748 97.0554 160.986 96.7181 160.902 95.8028C160.863 95.3126 160.941 94.8202 161.13 94.3662L159.987 94.6421C159.821 95.147 159.77 95.6829 159.838 96.2101C160 97.9882 161.38 98.6233 163.154 98.2204C165.098 97.778 166.044 96.6305 165.817 94.7341ZM166.609 103.59L165.466 103.84C165.908 104.313 166.211 104.9 166.342 105.534C166.539 106.542 166.136 107.024 165.155 107.286C164.879 105.972 164.752 105.302 164.516 103.971L163.771 104.133C161.708 104.571 161.078 105.644 161.34 107.015C161.665 108.683 163.167 109.205 164.971 108.802C167.047 108.364 167.827 107.159 167.481 105.403C167.374 104.726 167.071 104.096 166.609 103.59ZM164.034 117.215L166.381 116.698C166.6 117.408 166.71 117.758 166.942 118.45L164.608 118.976C164.787 119.501 164.875 119.768 165.046 120.29L170.923 118.976C170.748 118.455 170.66 118.192 170.485 117.662L168.02 118.214C167.792 117.509 167.678 117.158 167.463 116.462L169.947 115.901C169.789 115.371 169.71 115.108 169.557 114.587L163.614 115.901C163.771 116.436 163.85 116.703 164.016 117.237L164.034 117.215ZM166.911 108.749C166.968 108.99 166.995 109.113 167.052 109.354L162.195 110.396C162.558 111.981 162.759 112.77 163.189 114.338L163.701 114.228C165.155 113.908 167.065 113.593 168.19 113.847C168.234 114.014 168.26 114.097 168.304 114.263L170.779 113.711C170.643 113.216 170.573 112.971 170.441 112.476L169.079 112.77C168.76 111.57 168.606 110.965 168.317 109.748L169.684 109.454C169.566 108.955 169.509 108.705 169.395 108.202L166.911 108.736V108.749ZM166.276 99.07C166.18 98.435 166.136 98.1152 166.049 97.4802C164.919 98.6671 164.349 99.2583 163.211 100.432C162.015 99.889 161.424 99.6175 160.254 99.0744C160.32 99.635 160.355 99.9153 160.429 100.476L163.421 101.834L160.701 102.429C160.78 102.985 160.824 103.261 160.911 103.813L166.833 102.521C166.736 101.965 166.688 101.689 166.596 101.133L163.701 101.768C164.73 100.695 165.247 100.152 166.276 99.07ZM162.475 106.809C162.343 106.13 162.886 105.797 163.631 105.635L163.749 105.609C163.894 106.375 163.968 106.761 164.126 107.523C163.171 107.694 162.606 107.466 162.475 106.809ZM167.371 110.707C167.56 111.469 167.656 111.85 167.857 112.608C166.855 112.432 165.203 112.682 164.174 112.905L163.995 112.945C163.846 112.371 163.776 112.069 163.635 111.513L167.371 110.707Z" fill="#3F4449"/>
<path d="M171.315 120.066C171.499 120.596 171.596 120.859 171.788 121.38L164.833 122.992L165.066 123.583C165.504 124.665 166.323 125.089 167.168 124.897C168.131 124.669 168.407 124.174 168.67 123.237C168.753 122.926 168.797 122.773 168.885 122.462C170.391 122.948 171.149 123.184 172.651 123.653C172.87 124.213 172.984 124.494 173.216 125.054L169.844 124.003C169.493 125.16 169.02 125.878 167.807 126.171C166.283 126.539 164.772 125.79 163.984 123.854C163.673 123.084 163.52 122.694 163.23 121.919L171.315 120.066Z" fill="#027FF3"/>
<path d="M111.132 129.535L111.294 132.601L112.2 132.553L112.091 130.363C113.37 130.402 113.97 131.436 114.022 132.439C114.033 133.071 113.799 133.682 113.367 134.144C112.936 134.606 112.341 134.882 111.71 134.914C111.079 134.946 110.46 134.731 109.984 134.315C109.508 133.899 109.213 133.314 109.161 132.684C109.129 132.073 109.334 131.474 109.734 131.011L109.042 130.411C108.476 131.06 108.191 131.908 108.25 132.767C108.302 133.654 108.704 134.483 109.368 135.072C109.696 135.364 110.079 135.589 110.495 135.733C110.91 135.877 111.35 135.938 111.788 135.912C112.227 135.886 112.657 135.774 113.052 135.582C113.448 135.39 113.802 135.122 114.094 134.794C114.386 134.465 114.61 134.082 114.754 133.667C114.898 133.252 114.959 132.812 114.933 132.373C114.934 131.964 114.85 131.559 114.686 131.185C114.522 130.81 114.282 130.473 113.98 130.197C113.679 129.92 113.324 129.709 112.937 129.577C112.549 129.445 112.139 129.395 111.732 129.43C111.529 129.438 111.328 129.467 111.132 129.517V129.535Z" fill="#027FF3"/>
<path d="M110.345 127.056C110.368 127.48 110.516 127.888 110.77 128.228C111.024 128.568 111.374 128.825 111.774 128.967C112.175 129.108 112.608 129.128 113.02 129.024C113.431 128.92 113.803 128.696 114.088 128.381C114.372 128.066 114.557 127.673 114.619 127.253C114.681 126.833 114.617 126.404 114.436 126.02C114.254 125.636 113.963 125.315 113.599 125.096C113.235 124.877 112.814 124.771 112.39 124.791C112.105 124.801 111.826 124.868 111.568 124.988C111.31 125.109 111.078 125.279 110.888 125.49C110.697 125.702 110.551 125.949 110.457 126.218C110.364 126.487 110.326 126.772 110.345 127.056ZM111.19 126.999C111.161 126.738 111.21 126.474 111.332 126.241C111.455 126.009 111.644 125.818 111.876 125.694C112.107 125.57 112.371 125.518 112.632 125.545C112.893 125.573 113.141 125.678 113.342 125.847C113.543 126.016 113.688 126.242 113.76 126.495C113.831 126.748 113.825 127.016 113.743 127.266C113.66 127.515 113.504 127.734 113.296 127.894C113.088 128.054 112.836 128.148 112.574 128.164C112.407 128.182 112.238 128.166 112.078 128.116C111.917 128.067 111.769 127.985 111.641 127.876C111.514 127.766 111.41 127.632 111.336 127.482C111.262 127.331 111.22 127.167 111.212 126.999H111.19Z" fill="#027FF3"/>
<path d="M110.104 122.362C110.128 122.786 110.277 123.193 110.532 123.533C110.787 123.872 111.137 124.128 111.538 124.269C111.939 124.41 112.372 124.429 112.783 124.324C113.195 124.219 113.566 123.995 113.85 123.679C114.134 123.363 114.318 122.971 114.379 122.55C114.441 122.13 114.376 121.701 114.193 121.317C114.011 120.934 113.719 120.613 113.355 120.395C112.99 120.177 112.569 120.072 112.145 120.093C111.86 120.1 111.579 120.166 111.32 120.285C111.06 120.405 110.828 120.576 110.637 120.788C110.446 121.001 110.3 121.25 110.209 121.52C110.117 121.791 110.082 122.077 110.104 122.362ZM110.945 122.305C110.915 122.043 110.964 121.777 111.086 121.543C111.209 121.31 111.399 121.118 111.631 120.994C111.864 120.869 112.129 120.818 112.391 120.846C112.654 120.875 112.902 120.981 113.102 121.153C113.303 121.324 113.448 121.551 113.518 121.806C113.587 122.061 113.579 122.33 113.493 122.58C113.407 122.829 113.248 123.047 113.037 123.205C112.825 123.363 112.571 123.454 112.307 123.465C112.141 123.483 111.973 123.466 111.813 123.417C111.653 123.367 111.505 123.286 111.377 123.177C111.25 123.069 111.146 122.935 111.072 122.785C110.997 122.635 110.954 122.472 110.945 122.305Z" fill="#027FF3"/>
<path d="M109.867 117.754C109.927 118.299 110.192 118.8 110.609 119.157C111.026 119.513 111.562 119.697 112.11 119.671C112.658 119.645 113.175 119.412 113.556 119.018C113.938 118.625 114.155 118.1 114.164 117.552C114.164 117.328 114.111 117.107 114.01 116.907C113.909 116.707 113.762 116.533 113.581 116.401L114.019 116.379C114.173 116.355 114.33 116.365 114.48 116.408C114.629 116.451 114.768 116.526 114.886 116.628C115.004 116.729 115.099 116.855 115.164 116.996C115.229 117.138 115.263 117.292 115.263 117.447C115.274 117.686 115.212 117.922 115.086 118.126C114.961 118.329 114.776 118.489 114.558 118.586L114.943 119.396C115.315 119.217 115.624 118.93 115.832 118.573C116.039 118.217 116.135 117.806 116.108 117.395C116.051 116.247 115.28 115.411 113.765 115.49L109.907 115.691L109.95 116.589H110.318C110.165 116.743 110.047 116.929 109.971 117.133C109.896 117.337 109.865 117.554 109.88 117.771L109.867 117.754ZM110.704 117.627C110.704 117.465 110.737 117.304 110.801 117.155C110.864 117.006 110.956 116.871 111.073 116.758C111.189 116.645 111.327 116.556 111.478 116.497C111.629 116.438 111.79 116.41 111.952 116.414C112.114 116.391 112.278 116.402 112.436 116.445C112.593 116.488 112.74 116.563 112.868 116.665C112.996 116.767 113.101 116.895 113.178 117.039C113.254 117.183 113.301 117.341 113.314 117.504C113.319 117.668 113.29 117.832 113.23 117.985C113.171 118.138 113.081 118.277 112.966 118.394C112.851 118.511 112.713 118.604 112.562 118.667C112.41 118.731 112.248 118.762 112.083 118.761C111.918 118.781 111.75 118.767 111.589 118.721C111.429 118.674 111.28 118.595 111.151 118.489C111.022 118.383 110.916 118.252 110.839 118.104C110.762 117.956 110.716 117.793 110.704 117.627Z" fill="#027FF3"/>
<path d="M109.547 111.692C109.564 111.966 109.637 112.234 109.76 112.479C109.884 112.724 110.056 112.941 110.266 113.118C110.476 113.295 110.72 113.428 110.982 113.508C111.245 113.588 111.521 113.614 111.794 113.584C112.076 113.58 112.355 113.518 112.613 113.403C112.87 113.288 113.102 113.121 113.294 112.914C113.485 112.706 113.632 112.461 113.726 112.195C113.82 111.928 113.858 111.646 113.839 111.364C113.821 111.01 113.718 110.666 113.538 110.36C113.358 110.055 113.107 109.798 112.805 109.612L112.367 110.378C112.555 110.477 112.713 110.623 112.826 110.802C112.939 110.982 113.003 111.187 113.011 111.399C113.032 111.619 112.986 111.841 112.88 112.035C112.774 112.229 112.612 112.387 112.416 112.489L111.071 109.669L110.729 109.835C110.372 109.992 110.071 110.253 109.863 110.583C109.655 110.913 109.551 111.298 109.564 111.688L109.547 111.692ZM110.37 111.613C110.357 111.452 110.389 111.29 110.462 111.145C110.536 111 110.648 110.879 110.786 110.794L111.693 112.678C111.378 112.711 111.062 112.617 110.816 112.418C110.569 112.218 110.412 111.929 110.379 111.613H110.37Z" fill="#027FF3"/>
<path d="M113.889 114.854L113.84 113.908L107.512 114.237L107.56 115.183L113.889 114.854Z" fill="#027FF3"/>
<path d="M130.913 121.524C132.227 122.496 131.89 123.342 130.606 124.021C130.898 124.308 131.166 124.619 131.408 124.949C131.514 125.097 131.577 125.271 131.589 125.452C131.6 125.634 131.561 125.815 131.474 125.975C131.388 126.135 131.258 126.267 131.1 126.357C130.942 126.447 130.762 126.49 130.58 126.482C130.265 126.482 129.945 126.482 129.625 126.482C129.513 126.512 129.406 126.561 129.31 126.627C129.363 126.736 129.393 126.889 129.481 126.942C129.71 127.067 129.948 127.172 130.195 127.257C130.501 127.384 130.812 127.498 131.11 127.634C131.257 127.7 131.375 127.816 131.445 127.961C131.515 128.106 131.531 128.271 131.491 128.427C131.477 128.582 131.404 128.727 131.288 128.832C131.172 128.936 131.021 128.993 130.865 128.992C130.457 129.018 130.046 128.97 129.634 128.992C129.498 129.017 129.367 129.063 129.244 129.127C129.336 129.237 129.402 129.395 129.516 129.451C129.984 129.666 130.488 129.859 130.966 130.073C131.124 130.14 131.272 130.23 131.403 130.341C131.492 130.419 131.557 130.521 131.591 130.635C131.625 130.749 131.626 130.87 131.595 130.984C131.563 131.099 131.5 131.202 131.413 131.283C131.326 131.363 131.218 131.418 131.101 131.44C131.034 131.458 130.965 131.47 130.895 131.475C129.936 131.475 128.964 131.506 127.996 131.475C127.741 131.465 127.493 131.383 127.282 131.238C127.083 131.086 126.94 130.872 126.875 130.63C126.774 130.262 126.949 130.078 127.352 130.06C127.659 130.06 127.97 130.06 128.281 130.06L128.325 129.903C128.211 129.784 128.088 129.676 127.957 129.578C127.624 129.377 127.278 129.206 126.945 129.005C126.8 128.934 126.684 128.813 126.62 128.664C126.556 128.516 126.547 128.349 126.595 128.194C126.631 128.044 126.722 127.912 126.849 127.824C126.977 127.736 127.133 127.698 127.287 127.717H128.342L128.381 127.581C128.297 127.484 128.203 127.394 128.101 127.314C127.76 127.025 127.4 126.758 127.068 126.46C126.927 126.341 126.816 126.191 126.743 126.022C126.703 125.94 126.679 125.851 126.674 125.759C126.668 125.668 126.68 125.576 126.71 125.489C126.739 125.403 126.786 125.323 126.847 125.254C126.907 125.185 126.981 125.129 127.063 125.089C127.198 125.021 127.352 124.999 127.501 125.028C128.193 125.076 128.885 125.12 129.582 125.159C129.707 125.158 129.833 125.151 129.958 125.137C129.876 124.884 129.725 124.659 129.523 124.487C129.32 124.314 129.074 124.201 128.811 124.161C128.239 124.125 127.67 124.057 127.107 123.955C126.941 123.928 126.788 123.846 126.674 123.722C126.559 123.598 126.49 123.44 126.476 123.272C126.446 123.121 126.46 122.964 126.516 122.821C126.572 122.677 126.668 122.553 126.792 122.461C126.939 122.359 127.113 122.302 127.292 122.298C127.471 122.294 127.648 122.343 127.799 122.44C128.262 122.683 128.795 122.755 129.306 122.645C129.417 122.63 129.523 122.591 129.618 122.531C129.713 122.471 129.795 122.392 129.857 122.299C129.984 122.041 129.752 121.822 129.525 121.721C129.054 121.537 128.575 121.376 128.088 121.24C127.751 121.143 127.396 121.099 127.063 121.003C126.966 120.987 126.873 120.951 126.79 120.898C126.707 120.844 126.637 120.774 126.582 120.692C126.528 120.609 126.491 120.517 126.475 120.42C126.458 120.322 126.461 120.223 126.485 120.127C126.535 119.925 126.659 119.749 126.833 119.634C127.006 119.519 127.217 119.473 127.422 119.505C127.663 119.536 127.86 119.628 128.11 119.663C128.811 119.781 129.516 119.882 130.26 119.991C130.09 119.453 129.945 119.023 129.822 118.581C129.779 118.375 129.765 118.164 129.783 117.955C129.783 117.556 129.98 117.372 130.431 117.236C131.087 117.069 131.677 116.707 132.124 116.2C132.572 115.692 132.856 115.061 132.941 114.39C133.011 113.881 132.966 113.364 132.81 112.875C132.655 112.386 132.392 111.938 132.041 111.564C131.69 111.19 131.26 110.898 130.782 110.711C130.305 110.524 129.791 110.446 129.279 110.483C129.139 110.483 128.995 110.518 128.841 110.527C128.66 110.557 128.473 110.516 128.321 110.413C128.169 110.309 128.062 110.151 128.022 109.972C127.983 109.792 128.014 109.604 128.11 109.446C128.205 109.289 128.357 109.174 128.535 109.125H128.671C129.557 108.953 130.473 109.037 131.313 109.369C132.153 109.7 132.88 110.264 133.409 110.995C134.19 112.02 134.531 113.313 134.359 114.589C134.186 115.865 133.514 117.021 132.49 117.801C132.314 117.934 132.129 118.056 131.938 118.165C131.368 118.493 131.333 118.603 131.622 119.194L131.671 119.291C131.764 119.554 131.938 119.781 132.169 119.939C132.4 120.096 132.675 120.176 132.954 120.166C133.972 120.245 134.983 120.404 135.976 120.644C137.246 120.964 137.469 121.739 136.694 122.794C135.744 124.108 134.277 124.336 133.033 123.337C132.54 122.907 132.099 122.421 131.719 121.888C131.641 121.753 131.523 121.647 131.382 121.583C131.24 121.52 131.082 121.502 130.93 121.533L130.913 121.524ZM133.287 121.625L133.221 121.769C133.495 121.974 133.78 122.162 134.075 122.334C134.215 122.402 134.372 122.423 134.525 122.394C134.677 122.365 134.816 122.287 134.92 122.172C135.087 122.023 135.131 121.861 134.842 121.822C134.316 121.743 133.808 121.695 133.287 121.625Z" fill="#3F4449"/>
<path d="M125.606 111.57C125.359 111.601 125.107 111.567 124.877 111.471C124.646 111.375 124.445 111.22 124.292 111.022C124.025 110.724 123.719 110.462 123.452 110.146C123.378 110.036 123.322 109.915 123.285 109.787C123.394 109.734 123.511 109.697 123.631 109.678C124.069 109.678 124.481 109.678 124.906 109.678C125.199 109.678 125.344 109.546 125.344 109.24V107.926C125.361 107.816 125.397 107.709 125.449 107.61C125.566 107.641 125.679 107.69 125.782 107.755C126.149 108.101 126.495 108.469 126.859 108.824C126.983 108.943 127.076 109.091 127.13 109.254C127.184 109.417 127.198 109.591 127.17 109.761C127.135 109.997 127.165 110.239 127.256 110.46C127.348 110.68 127.499 110.872 127.691 111.013C128.129 111.386 128.484 111.819 128.896 112.209C129.017 112.316 129.172 112.376 129.334 112.38C129.729 112.35 130.12 112.479 130.421 112.738C130.721 112.996 130.907 113.364 130.936 113.759C130.966 114.155 130.837 114.546 130.579 114.847C130.32 115.147 129.952 115.333 129.557 115.362H129.404C129.211 115.356 129.021 115.312 128.845 115.232C128.669 115.152 128.51 115.039 128.378 114.897C128.247 114.756 128.144 114.59 128.076 114.409C128.009 114.228 127.978 114.036 127.985 113.843C127.982 113.8 127.982 113.758 127.985 113.716C128.002 113.613 127.992 113.508 127.957 113.411C127.922 113.313 127.862 113.227 127.783 113.159C127.367 112.761 126.951 112.358 126.566 111.929C126.463 111.77 126.315 111.647 126.14 111.575C125.966 111.503 125.773 111.486 125.589 111.526L125.606 111.57Z" fill="#027FF3"/>
<path d="M127.44 118.297C127.313 118.257 127.19 118.205 127.072 118.143C126.202 117.638 125.508 116.876 125.087 115.962C124.665 115.049 124.536 114.027 124.716 113.037C124.812 112.546 125.154 112.266 125.561 112.336C125.664 112.353 125.763 112.391 125.85 112.449C125.938 112.507 126.012 112.583 126.068 112.671C126.124 112.76 126.16 112.859 126.175 112.963C126.189 113.067 126.182 113.173 126.152 113.273C126.028 113.955 126.111 114.659 126.392 115.293C126.672 115.927 127.136 116.462 127.725 116.829C127.839 116.89 127.948 116.962 128.049 117.044C128.162 117.141 128.24 117.272 128.272 117.418C128.303 117.563 128.287 117.715 128.224 117.85C128.163 117.997 128.056 118.12 127.918 118.199C127.78 118.278 127.619 118.31 127.462 118.288L127.44 118.297Z" fill="#3F4449"/>
<path d="M42.2313 139.074L41.9072 139.1C41.9007 139.214 41.9007 139.328 41.9072 139.442C41.9501 139.976 42.162 140.483 42.5121 140.888C42.8622 141.294 43.3323 141.578 43.8544 141.698C44.3765 141.819 44.9235 141.77 45.4159 141.559C45.9084 141.348 46.3209 140.985 46.5935 140.524C46.2654 140.886 45.8391 141.145 45.3666 141.269C44.8942 141.393 44.3957 141.378 43.9319 141.224C43.4681 141.071 43.0588 140.786 42.7538 140.404C42.4488 140.023 42.2612 139.56 42.2138 139.074H42.2313Z" fill="#027FF3"/>
<path d="M45.8886 138.728C45.865 138.431 45.7267 138.154 45.5028 137.956C45.2789 137.758 44.9869 137.655 44.6885 137.669L39.2095 138.106L39.1307 137.104C39.0191 137.135 38.9047 137.156 38.7891 137.165L38.8942 138.527L44.3732 138.089C44.5676 138.081 44.7609 138.122 44.9351 138.209C45.1093 138.295 45.2587 138.425 45.3693 138.585C45.48 138.745 45.5483 138.93 45.5679 139.124C45.5874 139.318 45.5576 139.513 45.4812 139.692C45.6204 139.575 45.7298 139.427 45.8006 139.259C45.8714 139.092 45.9015 138.91 45.8886 138.728Z" fill="#027FF3"/>
<path d="M40.8507 135.08L40.5442 135.106C40.573 135.474 40.4938 135.843 40.3164 136.166C40.606 135.871 40.7933 135.49 40.8507 135.08Z" fill="#027FF3"/>
<path d="M40.3104 136.166C39.9885 136.494 39.5593 136.694 39.1016 136.731L39.1278 137.095C39.3776 137.028 39.6113 136.911 39.8146 136.752C40.0179 136.592 40.1865 136.393 40.3104 136.166Z" fill="#027FF3"/>
<path d="M43.2749 139.332C43.3047 139.581 43.4143 139.813 43.5871 139.993C43.76 140.174 43.9868 140.294 44.2335 140.335C44.4803 140.376 44.7337 140.336 44.9557 140.221C45.1777 140.105 45.3563 139.921 45.4648 139.696C45.303 139.833 45.1066 139.922 44.8972 139.955C44.6878 139.987 44.4735 139.961 44.2779 139.88C44.0824 139.798 43.913 139.664 43.7886 139.493C43.6642 139.321 43.5895 139.119 43.5727 138.908C43.5615 138.792 43.5704 138.674 43.599 138.562L42.2019 138.671C42.1931 138.785 42.1931 138.899 42.2019 139.013C42.2019 139.035 42.2019 139.052 42.2019 139.074L43.2749 138.991C43.2572 139.104 43.2572 139.219 43.2749 139.332Z" fill="#027FF3"/>
<path d="M40.853 135.079L41.9129 134.996C41.9691 135.679 41.8065 136.361 41.4486 136.945L44.2297 136.726C44.6904 136.688 45.1526 136.778 45.5656 136.986C45.9786 137.194 46.3265 137.511 46.5712 137.903C46.8159 138.295 46.9479 138.747 46.9528 139.209C46.9578 139.671 46.8354 140.126 46.5991 140.523C46.9443 140.151 47.1689 139.683 47.2435 139.181C47.3181 138.679 47.2391 138.166 47.017 137.709C46.7949 137.253 46.44 136.874 45.9989 136.623C45.5578 136.372 45.051 136.259 44.5451 136.301L41.7683 136.52C42.1151 135.933 42.2683 135.251 42.2063 134.571L40.8398 134.681C40.8596 134.813 40.8641 134.946 40.853 135.079Z" fill="#027FF3"/>
<path d="M44.2492 136.727L41.4681 136.946C41.826 136.362 41.9886 135.68 41.9324 134.997L40.8725 135.08C40.8066 135.494 40.6084 135.875 40.3075 136.166C40.1837 136.393 40.015 136.593 39.8117 136.752C39.6084 136.912 39.3748 137.028 39.125 137.095L39.2038 138.098L44.6828 137.66C44.9361 137.675 45.18 137.761 45.3874 137.907C45.5947 138.053 45.7573 138.254 45.8569 138.487C45.9566 138.721 45.9893 138.977 45.9514 139.228C45.9136 139.479 45.8066 139.714 45.6426 139.908C45.4785 140.101 45.2639 140.245 45.0226 140.323C44.7813 140.402 44.523 140.412 44.2766 140.351C44.0301 140.291 43.8052 140.164 43.6271 139.983C43.449 139.803 43.3248 139.576 43.2682 139.329C43.2592 139.213 43.268 139.096 43.2945 138.983L42.2214 139.066C42.2253 139.546 42.376 140.014 42.6533 140.407C42.9306 140.799 43.3213 141.098 43.773 141.262C44.2247 141.426 44.7158 141.448 45.1804 141.325C45.645 141.202 46.0609 140.94 46.3723 140.574C46.6837 140.208 46.8758 139.755 46.9227 139.277C46.9696 138.799 46.8691 138.318 46.6347 137.898C46.4004 137.478 46.0433 137.141 45.6114 136.93C45.1796 136.719 44.6936 136.645 44.2186 136.718L44.2492 136.727Z" fill="#3F4449"/>
<path d="M40.7157 133.332L40.3828 129.062L41.6354 129.36L41.723 130.468L46.2385 130.113L46.348 131.493L41.8281 131.848L41.942 133.231L40.7157 133.332Z" fill="#3F4449"/>
<path d="M39.8299 122.072L39.4883 117.692L40.7409 117.99L40.8372 119.195L45.3571 118.84L45.4622 120.224L40.9467 120.579L41.0562 121.963L39.8299 122.072Z" fill="#3F4449"/>
<path d="M42.1895 128.659L42.0625 127.288L45.978 126.981L46.0874 128.339L42.1895 128.659Z" fill="#3F4449"/>
<path d="M40.195 126.89L40.0898 125.537L42.7615 125.327L41.3249 124.079L41.1848 122.432L42.9804 124.017L45.582 121.884L45.7002 123.387L43.8958 124.819L44.3338 125.195L45.8448 125.073L45.9543 126.444L40.195 126.882V126.89Z" fill="#3F4449"/>
<path d="M39.0626 112.398L38.9531 111.031L41.6291 110.821L40.1926 109.573L40.0612 107.939L41.8612 109.525L44.4584 107.392L44.5767 108.894L42.7722 110.322L43.2102 110.698L44.7256 110.58L44.8307 111.946L39.0626 112.398Z" fill="#3F4449"/>
<path d="M41.6868 128.012C41.6769 127.875 41.6265 127.744 41.5422 127.636C41.4578 127.528 41.3433 127.448 41.2131 127.405C41.0829 127.362 40.943 127.359 40.8109 127.396C40.6789 127.432 40.5608 127.507 40.4715 127.612C40.3823 127.716 40.3259 127.844 40.3096 127.98C40.2933 128.116 40.3178 128.254 40.3799 128.376C40.4421 128.498 40.5391 128.599 40.6587 128.666C40.7784 128.733 40.9152 128.763 41.0518 128.752C41.2339 128.737 41.4029 128.651 41.5219 128.513C41.6408 128.374 41.7001 128.194 41.6868 128.012Z" fill="#3F4449"/>
<path d="M42.9036 117.614C42.3142 117.66 41.7292 117.482 41.2649 117.116C40.8007 116.75 40.4913 116.222 40.3984 115.638C40.3984 115.7 40.3984 115.783 40.3984 115.84C40.4681 116.445 40.7697 116.999 41.2398 117.386C41.7099 117.773 42.3119 117.963 42.919 117.915C43.5261 117.868 44.091 117.587 44.495 117.131C44.8989 116.675 45.1103 116.08 45.0847 115.472C45.0847 115.415 45.0847 115.332 45.0847 115.271C45.0831 115.864 44.8575 116.435 44.4532 116.869C44.0488 117.304 43.4954 117.57 42.9036 117.614Z" fill="#027FF3"/>
<path d="M40.3472 115.104C40.3472 115.17 40.3472 115.253 40.3472 115.31C40.3509 114.72 40.576 114.154 40.9778 113.722C41.3796 113.29 41.9288 113.026 42.5167 112.98C43.1046 112.934 43.6882 113.111 44.1519 113.475C44.6156 113.839 44.9256 114.364 45.0204 114.946C45.0204 114.885 45.0204 114.802 45.0204 114.736C44.9507 114.131 44.6491 113.577 44.179 113.19C43.7089 112.803 43.107 112.613 42.4999 112.661C41.8928 112.708 41.3278 112.989 40.9239 113.445C40.5199 113.901 40.3085 114.496 40.3341 115.104H40.3472Z" fill="#027FF3"/>
<path d="M43.8592 115.201C43.8767 115.426 43.827 115.652 43.7164 115.849C43.6058 116.046 43.4393 116.206 43.2379 116.308C43.0365 116.411 42.8092 116.451 42.5848 116.424C42.3605 116.398 42.149 116.305 41.9772 116.158C41.8053 116.012 41.6809 115.817 41.6195 115.6C41.5581 115.382 41.5625 115.152 41.6322 114.937C41.7019 114.722 41.8337 114.532 42.0111 114.392C42.1884 114.252 42.4033 114.168 42.6285 114.15C42.9309 114.127 43.2301 114.224 43.4608 114.421C43.6914 114.618 43.8346 114.899 43.8592 115.201ZM40.3555 115.477C40.3916 115.941 40.5645 116.383 40.8523 116.749C41.1401 117.115 41.5299 117.387 41.9723 117.531C42.4148 117.675 42.89 117.684 43.3379 117.558C43.7857 117.432 44.1861 117.176 44.4884 116.822C44.7906 116.468 44.9812 116.033 45.0359 115.571C45.0906 115.109 45.007 114.641 44.7957 114.226C44.5844 113.812 44.2549 113.469 43.8488 113.242C43.4428 113.015 42.9785 112.913 42.5147 112.95C41.899 113.003 41.3291 113.297 40.9284 113.768C40.5276 114.238 40.3281 114.847 40.373 115.464L40.3555 115.477Z" fill="#3F4449"/>
<path d="M95.7679 135.273C97.1563 135.273 98.2818 134.147 98.2818 132.759C98.2818 131.37 97.1563 130.245 95.7679 130.245C94.3794 130.245 93.2539 131.37 93.2539 132.759C93.2539 134.147 94.3794 135.273 95.7679 135.273Z" fill="#027FF3"/>
<path d="M95.7709 138.654C96.4168 138.654 96.9403 138.13 96.9403 137.484C96.9403 136.838 96.4168 136.315 95.7709 136.315C95.1251 136.315 94.6016 136.838 94.6016 137.484C94.6016 138.13 95.1251 138.654 95.7709 138.654Z" fill="#027FF3"/>
<path d="M91.0419 134.375C91.9344 134.375 92.658 133.651 92.658 132.759C92.658 131.866 91.9344 131.143 91.0419 131.143C90.1493 131.143 89.4258 131.866 89.4258 132.759C89.4258 133.651 90.1493 134.375 91.0419 134.375Z" fill="#027FF3"/>
<path d="M91.0438 139.551C92.1855 139.551 93.111 138.625 93.111 137.484C93.111 136.342 92.1855 135.417 91.0438 135.417C89.9021 135.417 88.9766 136.342 88.9766 137.484C88.9766 138.625 89.9021 139.551 91.0438 139.551Z" fill="#027FF3"/>
<path d="M96.925 123.71V122.396L90.3555 124.814V125.76L96.925 128.177V126.863L95.668 126.412V124.165L96.925 123.701L94.6782 126.049L92.611 125.287L94.6782 124.529V126.049L96.925 123.71ZM92.4271 119.173L95.6987 120.373L92.4271 121.594V122.821L96.925 121.157V119.606L92.4271 117.946V119.173ZM92.4271 117.421V116.194H96.9206V117.421H92.4271Z" fill="#3F4449"/>
<path d="M91.1321 117.605C91.5675 117.605 91.9204 117.252 91.9204 116.817C91.9204 116.381 91.5675 116.028 91.1321 116.028C90.6967 116.028 90.3438 116.381 90.3438 116.817C90.3438 117.252 90.6967 117.605 91.1321 117.605Z" fill="#3F4449"/>
<path d="M93.4211 111.876H92.427V113.348H91.1875V114.587H92.427V115.559H93.4168V114.587H95.3526C96.3468 114.587 97.0125 114.092 97.0125 112.835C97.0069 112.519 96.9461 112.206 96.8329 111.911L95.8606 112.06C95.9095 112.235 95.9346 112.417 95.9351 112.599C95.9351 112.962 95.7774 113.383 95.2738 113.383H93.4168V111.911L93.4211 111.876ZM95.8913 109.099C95.8861 109.337 95.8109 109.568 95.6749 109.764C95.539 109.959 95.3485 110.11 95.1272 110.197C94.9059 110.285 94.6637 110.305 94.431 110.255C94.1983 110.206 93.9853 110.089 93.8189 109.919C93.6525 109.748 93.5399 109.533 93.4954 109.299C93.4508 109.066 93.4762 108.824 93.5685 108.605C93.6607 108.385 93.8156 108.198 94.0137 108.066C94.2119 107.935 94.4446 107.864 94.6825 107.864C94.843 107.866 95.0015 107.899 95.1491 107.962C95.2967 108.025 95.4305 108.117 95.5427 108.231C95.655 108.346 95.7435 108.482 95.8033 108.631C95.8631 108.78 95.893 108.939 95.8913 109.099ZM92.3131 109.099C92.3226 109.563 92.4689 110.014 92.7337 110.395C92.9985 110.777 93.37 111.071 93.8016 111.242C94.2331 111.413 94.7055 111.452 95.1595 111.356C95.6135 111.259 96.0288 111.031 96.3533 110.699C96.6779 110.367 96.8972 109.947 96.9838 109.491C97.0704 109.035 97.0204 108.563 96.84 108.136C96.6597 107.708 96.3571 107.343 95.9701 107.087C95.5832 106.83 95.1291 106.694 94.665 106.695C94.0346 106.703 93.4331 106.961 92.9923 107.411C92.5515 107.862 92.3072 108.469 92.3131 109.099Z" fill="#3F4449"/>
<path d="M9.06555 204.091C10.8174 196.207 10.0948 195.848 5.78516 191.915C15.9767 186.173 32.4444 181.277 39.1147 170.862C39.5526 170.77 39.7453 170.722 40.122 170.612C40.2665 170.888 40.3322 171.05 40.4549 171.322C40.5557 171.691 40.6304 172.067 40.6782 172.447C40.9982 172.257 41.3015 172.041 41.5848 171.799C41.8366 172.206 42.052 172.634 42.2286 173.078C42.7321 172.931 43.2138 172.717 43.6608 172.443C43.95 173.126 44.1858 173.83 44.3659 174.55C44.6741 174.279 44.9359 173.959 45.1411 173.604C45.3645 174.339 45.4652 174.72 45.6579 175.513L46.6609 175.793C46.8066 176.743 46.8871 177.702 46.9018 178.662C47.1208 178.561 47.2259 178.509 47.4317 178.395C47.7208 178.934 47.8697 179.21 48.2025 179.788C48.5442 179.967 48.7237 180.059 49.0785 180.226C49.2817 180.012 49.4677 179.782 49.6347 179.538C45.0141 196.321 19.7608 193.177 9.06555 204.091Z" fill="white"/>
<path d="M9.05572 204.109L9.38858 202.4C9.49369 201.835 9.59443 201.275 9.67764 200.706C9.87569 199.581 9.91256 198.433 9.78713 197.298C9.58717 196.174 9.03681 195.143 8.21482 194.351C7.43086 193.518 6.56368 192.765 5.71839 191.99L5.61328 191.898L5.73591 191.828C8.63527 190.19 11.6573 188.788 14.6617 187.374C17.6662 185.959 20.7057 184.606 23.6576 183.077C26.6253 181.588 29.4694 179.864 32.163 177.922C34.878 176.002 37.2164 173.598 39.061 170.832V170.81H39.0873L40.0903 170.556H40.1428V170.599L40.4801 171.318L40.7122 172.448L40.6071 172.4L41.483 171.756L41.5487 171.708L41.5925 171.773C41.8432 172.183 42.06 172.612 42.2407 173.056L42.1443 173.017C42.6413 172.865 43.1168 172.65 43.559 172.378L43.6378 172.329L43.6772 172.417C43.9688 173.105 44.2089 173.813 44.3955 174.537L44.2466 174.493C44.5459 174.224 44.8002 173.909 44.9999 173.56L45.1138 173.363L45.1751 173.582L45.7007 175.5L45.6262 175.422L46.6335 175.697H46.6992V175.772C46.8498 176.724 46.9347 177.685 46.9533 178.649L46.7781 178.54L47.2993 178.277L47.4087 178.225L47.4701 178.33L48.2453 179.714L48.1927 179.665L49.0687 180.103L48.9066 180.13L49.4497 179.451L49.6993 179.569C49.1547 181.57 48.2347 183.448 46.9883 185.105C45.7177 186.738 44.186 188.15 42.4553 189.283C39.0172 191.578 35.1062 192.993 31.217 194.259C27.3278 195.524 23.3335 196.549 19.5101 197.968C17.6242 198.675 15.7929 199.52 14.0311 200.495C12.2152 201.466 10.5411 202.682 9.05572 204.109ZM9.05572 204.078C10.4938 202.616 12.1357 201.369 13.9303 200.377C15.7285 199.376 17.6013 198.515 19.532 197.802C23.3686 196.343 27.3278 195.253 31.217 193.978C35.1062 192.704 38.9953 191.324 42.3852 189.042C44.0893 187.928 45.5973 186.54 46.8481 184.934C48.0777 183.31 48.9846 181.465 49.5198 179.499L49.7694 179.617L49.2 180.318L49.1343 180.401L49.038 180.349L48.1402 179.889H48.1051V179.854L47.3168 178.457L47.4832 178.509L46.9445 178.772L46.7737 178.855V178.662C46.7637 177.708 46.6876 176.755 46.5459 175.811L46.6248 175.899L45.6262 175.619H45.5649V175.557L45.0568 173.648L45.232 173.67C45.0182 174.029 44.7509 174.354 44.4393 174.633L44.3254 174.738L44.286 174.594C44.1083 173.877 43.877 173.174 43.594 172.491L43.7123 172.531C43.2571 172.803 42.7702 173.017 42.2626 173.17H42.1925L42.1662 173.105C41.99 172.664 41.7776 172.24 41.5312 171.835H41.6407L40.7209 172.487L40.6377 172.544V172.435L40.4187 171.318L40.064 170.648L40.1384 170.678L39.1267 170.932L39.1662 170.906C37.2874 173.666 34.9447 176.08 32.2418 178.041C29.5582 180.017 26.7197 181.775 23.754 183.296C20.8065 184.838 17.7932 186.253 14.78 187.65C11.7668 189.047 8.73601 190.418 5.83227 192.029L5.85416 191.867C6.69507 192.647 7.55787 193.409 8.34621 194.254C9.18581 195.083 9.74221 196.156 9.93604 197.32C10.0519 198.471 9.99583 199.632 9.76962 200.767C9.67764 201.336 9.56815 201.901 9.4499 202.462C9.33165 203.022 9.21339 203.495 9.06886 204.078H9.05572Z" fill="#3F4449"/>
<path d="M19.7245 189.371C18.0646 190.115 17.25 190.496 15.7083 191.28C15.8024 191.521 15.8828 191.766 15.9492 192.016C17.0485 191.46 17.6223 191.188 18.7916 190.658C18.9624 191.793 17.4996 193.006 16.2164 193.645C14.5784 194.469 13.317 194.25 12.9097 193.115C12.5024 191.981 13.1462 190.544 14.8193 189.686C15.5645 189.293 16.399 189.099 17.2412 189.125C17.4471 188.771 17.5434 188.595 17.7274 188.249C16.5088 188.204 15.3001 188.482 14.2236 189.055C11.8586 190.277 11.2542 192.397 11.7754 193.803C12.2965 195.209 13.628 195.866 16.2558 194.56C18.5639 193.413 20.5041 191.328 19.9742 189.83C19.9196 189.666 19.8282 189.516 19.707 189.392L19.7245 189.371Z" fill="#027FF3"/>
<path d="M22.9043 187.343C21.1831 188.096 20.386 189.379 20.64 190.408C20.894 191.438 22.2211 191.994 24.1438 191.254C25.8957 190.588 27.1877 189.064 26.7716 187.908C26.2854 186.594 24.3146 186.738 22.8956 187.36L22.9043 187.343ZM23.281 188.013C24.1569 187.645 25.1818 187.702 25.4314 188.451C25.6811 189.2 24.9234 190.027 24.0124 190.386C23.0051 190.776 22.151 190.54 21.9627 189.861C21.7744 189.182 22.3131 188.442 23.2766 188.03L23.281 188.013Z" fill="#027FF3"/>
<path d="M29.2904 184.518C27.6217 185.284 26.9078 186.594 27.3151 187.645C27.7224 188.696 29.2904 189.318 31.2087 188.556C32.9606 187.864 33.9416 186.248 33.3241 185.078C32.6146 183.738 30.6612 183.887 29.2904 184.518ZM29.7765 185.219C30.6174 184.842 31.6817 184.899 32.0583 185.656C32.435 186.414 31.8043 187.294 30.9021 187.667C29.9167 188.07 28.9575 187.811 28.6641 187.111C28.3706 186.41 28.8393 185.643 29.7765 185.223V185.219Z" fill="#027FF3"/>
<path d="M35.054 181.597C33.7138 182.367 33.2408 183.765 33.8233 184.833C34.4847 186.051 36.3022 186.371 37.5811 185.709C37.8675 185.581 38.1218 185.391 38.3256 185.152C38.5294 184.913 38.6775 184.633 38.7593 184.33C38.8556 184.505 38.9038 184.597 39.0001 184.768C39.1027 184.957 39.1641 185.167 39.1802 185.382C39.1963 185.597 39.1668 185.813 39.0936 186.016C39.0205 186.219 38.9053 186.404 38.7556 186.56C38.6059 186.715 38.425 186.837 38.2249 186.918C37.9321 187.081 37.597 187.153 37.2628 187.125C36.9287 187.096 36.6109 186.967 36.3504 186.756C35.9694 187.128 35.7723 187.317 35.3694 187.684C35.837 188.056 36.4038 188.282 36.9989 188.333C37.594 188.385 38.191 188.259 38.7155 187.974C39.0844 187.807 39.4132 187.564 39.6797 187.26C39.9463 186.955 40.1442 186.597 40.2601 186.21C40.376 185.822 40.4072 185.414 40.3515 185.013C40.2958 184.613 40.1546 184.229 39.9374 183.887C39.2843 182.573 38.44 181.363 37.4322 180.296C37.0512 180.55 36.8585 180.673 36.4599 180.922L36.7271 181.229C36.1442 181.166 35.5567 181.295 35.054 181.597ZM35.7373 182.258C36.0792 182.035 36.4937 181.951 36.8955 182.024C37.2972 182.098 37.6555 182.322 37.8965 182.652C38.0009 182.829 38.0671 183.025 38.0906 183.229C38.1141 183.433 38.0945 183.64 38.0329 183.836C37.9714 184.031 37.8693 184.212 37.7334 184.366C37.5974 184.52 37.4307 184.643 37.2439 184.728C36.8848 184.945 36.4557 185.013 36.0471 184.919C35.6385 184.825 35.2824 184.576 35.054 184.224C34.6161 183.445 35.0234 182.643 35.7373 182.24V182.258Z" fill="#027FF3"/>
<path d="M40.9787 177.169C40.5551 177.622 40.3106 178.214 40.2904 178.835C40.2703 179.455 40.4759 180.061 40.8692 180.541C41.7714 181.763 43.2868 181.82 44.1277 180.826C44.4032 180.458 44.5952 180.034 44.6905 179.584C44.7858 179.134 44.782 178.668 44.6795 178.22C44.3773 178.334 44.2415 178.391 43.8955 178.492C43.9562 178.751 43.9569 179.02 43.8977 179.28C43.8385 179.54 43.7209 179.782 43.5539 179.989C43.4103 180.193 43.1967 180.335 42.9541 180.39C42.7115 180.445 42.4572 180.409 42.24 180.287C42.8114 179.167 43.227 177.973 43.4751 176.74L43.1379 176.604C42.7587 176.464 42.3459 176.443 41.9546 176.544C41.5632 176.645 41.212 176.863 40.948 177.169H40.9787ZM41.6619 177.778C41.7668 177.643 41.909 177.541 42.0708 177.486C42.2327 177.431 42.4073 177.424 42.5729 177.467C42.3363 178.257 42.0285 179.023 41.6531 179.757C41.42 179.48 41.2921 179.13 41.2921 178.768C41.2921 178.405 41.42 178.055 41.6531 177.778H41.6619Z" fill="#027FF3"/>
<path d="M40.7485 183.603C41.1865 183.313 41.3617 183.165 41.7471 182.862C40.1222 180.178 39.6361 179.258 36.8681 177.396C36.5221 177.664 36.3426 177.799 35.9922 178.062C38.7164 179.954 39.1981 180.887 40.7485 183.603Z" fill="#027FF3"/>
<path d="M146.606 168.387C134.557 176.371 136.094 176.323 140.413 180.261C126.398 189.778 112.037 192.848 96.918 184.614L95.3325 183.681C95.405 183.87 95.5155 184.042 95.6571 184.187C95.7987 184.332 95.9685 184.446 96.1559 184.522L94.404 183.506C94.3821 183.506 94.3821 183.48 94.404 183.344C93.3004 182.722 92.7967 182.446 91.8945 182.008C91.9295 181.829 91.9558 181.653 92.039 181.176C91.4815 180.964 90.9072 180.8 90.3222 180.685C90.3791 180.348 90.4098 180.134 90.4842 179.617C90.0188 179.287 89.5331 178.988 89.0302 178.719C89.2985 178.058 89.6056 177.413 89.9499 176.787C89.6482 176.717 89.3425 176.664 89.0345 176.63C88.8331 176.087 88.7236 175.793 88.4915 175.18C88.0535 174.874 87.8433 174.742 87.379 174.431C86.9915 174.539 86.6159 174.686 86.2578 174.869C103.194 160.272 129.345 180.817 146.606 168.387Z" fill="white"/>
<path d="M146.593 168.396L142.975 170.902C141.775 171.747 140.588 172.618 139.471 173.56C138.905 174.019 138.389 174.536 137.93 175.102C137.701 175.378 137.527 175.697 137.417 176.039C137.315 176.375 137.335 176.737 137.474 177.059C137.818 177.696 138.285 178.257 138.849 178.711L140.496 180.182L140.593 180.27L140.483 180.344C137.177 182.634 133.657 184.598 129.972 186.209C126.27 187.802 122.351 188.836 118.344 189.274C114.335 189.683 110.285 189.387 106.378 188.399C102.489 187.381 98.7644 185.812 95.3196 183.739L95.4116 183.66L95.6218 184.036C95.7844 184.222 95.9844 184.371 96.2087 184.474L96.143 184.593L94.3911 183.581H94.4568C94.4455 183.587 94.4327 183.591 94.4196 183.591C94.4065 183.591 94.3937 183.587 94.3824 183.581C94.3619 183.569 94.3463 183.551 94.3386 183.528C94.3386 183.506 94.3386 183.498 94.3386 183.489V183.436V183.349L94.3736 183.423L91.8684 182.109L91.8159 182.079V182.022L91.956 181.19L92.0086 181.281C91.4551 181.074 90.8852 180.913 90.3049 180.8H90.2217V180.712L90.3793 179.643L90.4188 179.731L88.9691 178.855L88.8859 178.807L88.9253 178.728L89.845 176.784L89.9151 176.941L89.0085 176.788H88.9384V176.727L88.3953 175.277L88.4348 175.329L87.3223 174.594H87.423C87.0432 174.704 86.675 174.85 86.3237 175.032L86.1836 174.821C88.1745 173.092 90.4648 171.741 92.9415 170.836C95.4242 169.965 98.0212 169.461 100.65 169.342C105.905 169.062 111.117 169.877 116.268 170.705C121.418 171.532 126.578 172.5 131.798 172.54C134.406 172.582 137.009 172.288 139.541 171.664C140.172 171.502 140.79 171.287 141.412 171.099C142.034 170.91 142.62 170.613 143.225 170.372L144.977 169.496L146.593 168.396ZM146.619 168.396C144.504 169.963 142.107 171.108 139.559 171.769C137.018 172.416 134.403 172.73 131.781 172.702C126.525 172.702 121.353 171.795 116.202 170.95C111.052 170.105 105.857 169.307 100.65 169.579C98.0485 169.692 95.478 170.186 93.0203 171.046C90.5763 171.942 88.3116 173.266 86.3325 174.957L86.1967 174.747C86.5612 174.564 86.9425 174.418 87.3354 174.309H87.3924L87.4362 174.34L88.553 175.093L88.5793 175.115V175.146L89.1136 176.604L89.026 176.53L89.9545 176.692L90.0859 176.713L90.0246 176.845L89.0961 178.768L89.0523 178.641L90.5151 179.547L90.5633 179.578V179.639L90.3969 180.712L90.3268 180.607C90.9144 180.727 91.4914 180.894 92.0524 181.106L92.1181 181.128V181.198L91.9911 182.035L91.9429 181.952L94.4525 183.296H94.4963V183.349V183.432V183.467C94.4963 183.467 94.4963 183.467 94.4656 183.432C94.4569 183.427 94.4471 183.424 94.4371 183.424C94.4271 183.424 94.4173 183.427 94.4087 183.432H94.4787L96.2306 184.457L96.1693 184.575C95.9323 184.463 95.7206 184.303 95.5474 184.106L95.324 183.708L95.2058 183.498L95.416 183.625C98.8323 185.726 102.55 187.293 106.44 188.271C110.334 189.228 114.366 189.495 118.352 189.06C122.332 188.602 126.222 187.554 129.893 185.95C133.575 184.368 137.095 182.433 140.404 180.173V180.335L138.766 178.855C138.495 178.605 138.228 178.347 137.978 178.067C137.72 177.79 137.508 177.474 137.352 177.13C137.201 176.768 137.182 176.365 137.299 175.991C137.415 175.629 137.599 175.293 137.842 175.001C138.313 174.426 138.843 173.902 139.423 173.437C140.558 172.496 141.766 171.651 142.98 170.81C144.193 169.969 145.349 169.167 146.619 168.379V168.396Z" fill="#3F4449"/>
<path d="M112.742 182.035C111.757 183.568 110.578 183.244 109.203 181.658C108.916 182.001 108.601 182.318 108.262 182.609C107.504 183.134 106.286 182.609 105.857 181.549C105.699 181.159 105.594 180.756 105.459 180.344C105.372 180.195 105.268 180.057 105.148 179.933C105.016 180.003 104.815 180.029 104.775 180.138C104.697 180.424 104.651 180.718 104.64 181.014C104.6 181.391 104.6 181.772 104.574 182.127C104.548 182.481 104.215 182.665 103.764 182.565C103.538 182.527 103.325 182.435 103.142 182.298C102.959 182.161 102.812 181.982 102.712 181.776C102.467 181.281 102.327 180.769 102.112 180.252C102.015 180.074 101.899 179.907 101.766 179.753C101.661 179.867 101.491 179.946 101.469 180.09C101.422 180.673 101.406 181.258 101.42 181.842C101.435 182.016 101.411 182.191 101.35 182.354C101.228 182.644 100.768 182.639 100.317 182.354C100.144 182.238 99.9957 182.089 99.8788 181.917C99.8164 181.842 99.7621 181.761 99.7168 181.676C99.1394 180.543 98.6404 179.373 98.2233 178.172C98.1159 177.87 98.1082 177.541 98.2014 177.235C98.2578 177.1 98.3426 176.98 98.4499 176.882C98.5573 176.783 98.6847 176.71 98.8233 176.665C99.2613 176.516 99.5854 176.753 99.765 177.292C99.9095 177.708 100.015 178.119 100.146 178.522L100.374 178.579C100.481 178.427 100.572 178.264 100.645 178.093C100.781 177.655 100.886 177.186 101.053 176.722C101.084 176.619 101.137 176.524 101.207 176.443C101.278 176.362 101.364 176.296 101.462 176.25C101.559 176.204 101.665 176.179 101.772 176.177C101.88 176.175 101.987 176.195 102.086 176.236C102.313 176.291 102.519 176.413 102.675 176.586C102.831 176.76 102.931 176.977 102.962 177.208C103.085 177.782 103.15 178.084 103.291 178.619L103.496 178.68C103.6 178.564 103.695 178.441 103.781 178.312C104.075 177.874 104.364 177.375 104.727 176.919C104.886 176.722 105.095 176.571 105.332 176.481C105.596 176.383 105.885 176.379 106.152 176.47C106.418 176.561 106.645 176.742 106.794 176.981C106.909 177.157 106.966 177.366 106.956 177.576C107.004 178.497 107.109 179.414 107.272 180.322C107.311 180.485 107.36 180.644 107.421 180.8C107.733 180.716 108.008 180.53 108.201 180.271C108.394 180.012 108.494 179.695 108.485 179.372C108.414 178.612 108.429 177.847 108.529 177.09C108.568 176.85 108.694 176.633 108.883 176.479C109.072 176.326 109.311 176.247 109.554 176.258C109.793 176.224 110.038 176.252 110.264 176.341C110.489 176.429 110.688 176.574 110.841 176.762C110.996 176.952 111.085 177.188 111.095 177.434C111.104 177.68 111.034 177.922 110.894 178.124C110.729 178.417 110.633 178.744 110.613 179.08C110.593 179.416 110.648 179.752 110.776 180.064C110.881 180.362 111.098 180.609 111.38 180.752C111.456 180.782 111.538 180.796 111.62 180.792C111.702 180.789 111.782 180.767 111.855 180.73C111.928 180.693 111.992 180.64 112.043 180.576C112.094 180.511 112.131 180.437 112.151 180.357C112.339 179.784 112.532 179.188 112.724 178.57C112.869 178.132 112.939 177.673 113.119 177.23C113.227 176.95 113.438 176.72 113.708 176.588C113.978 176.455 114.289 176.43 114.577 176.516C114.719 176.54 114.854 176.594 114.975 176.672C115.095 176.751 115.198 176.854 115.276 176.975C115.355 177.095 115.408 177.231 115.431 177.373C115.455 177.515 115.449 177.66 115.414 177.8C115.339 178.102 115.177 178.369 115.107 178.676C114.9 179.522 114.772 180.385 114.726 181.255C115.462 181.049 116.062 180.874 116.679 180.73C116.968 180.674 117.262 180.652 117.555 180.664C117.779 180.636 118.005 180.689 118.194 180.812C118.382 180.936 118.521 181.122 118.585 181.338C119.263 182.823 120.774 183.498 122.675 183.414C123.843 183.365 124.965 182.952 125.887 182.233C126.809 181.515 127.483 180.527 127.817 179.407C127.848 179.28 127.878 179.157 127.922 179.03C127.966 178.693 128.478 178.29 129.021 178.154C129.564 178.019 129.897 178.176 129.818 178.5C129.806 178.541 129.79 178.581 129.77 178.619C129.25 180.299 128.261 181.796 126.919 182.933C124.729 184.847 120.971 185.534 118.217 183.55C117.993 183.39 117.782 183.213 117.586 183.02C117.008 182.455 116.859 182.416 116.128 182.766L116.009 182.823C115.857 182.858 115.715 182.926 115.593 183.022C115.471 183.119 115.372 183.242 115.303 183.381C115.234 183.521 115.197 183.674 115.195 183.83C115.193 183.986 115.226 184.14 115.291 184.282C115.619 185.397 116.015 186.491 116.478 187.558C117.065 188.95 116.478 189.358 114.507 188.6C112.094 187.676 110.565 185.994 111.187 184.544C111.503 183.932 111.952 183.397 112.501 182.981C112.652 182.887 112.76 182.738 112.803 182.565C112.846 182.393 112.821 182.211 112.733 182.057L112.742 182.035ZM113.535 184.737L113.311 184.676C113.184 184.99 113.102 185.32 113.066 185.657C113.101 185.862 113.188 186.056 113.32 186.217C113.452 186.378 113.625 186.502 113.819 186.577C114.126 186.747 114.349 186.782 114.205 186.458C113.943 185.899 113.72 185.322 113.535 184.733V184.737Z" fill="#3F4449"/>
<path d="M128.442 175.789C128.923 175.062 129.622 174.507 130.439 174.204C131.157 173.866 131.902 173.477 132.677 173.117C132.922 173.023 133.174 172.949 133.43 172.894C133.363 173.05 133.276 173.197 133.172 173.332C132.686 173.871 132.213 174.383 131.771 174.878C131.477 175.22 131.543 175.355 131.95 175.316C132.668 175.263 133.019 175.228 133.702 175.145C133.803 175.146 133.903 175.167 133.995 175.207C133.833 175.34 133.664 175.464 133.487 175.579C132.695 176.017 131.928 176.455 131.21 176.849C130.776 177.115 130.282 177.266 129.773 177.287C129.063 177.317 128.375 177.552 127.794 177.961C127.067 178.43 126.327 178.837 125.67 179.275C125.505 179.377 125.378 179.532 125.31 179.713C125.175 180.488 124.343 181.233 123.265 181.417C122.188 181.601 121.189 181.093 121.202 180.234C121.198 180.18 121.198 180.126 121.202 180.072C121.351 179.223 122.556 178.491 123.708 178.483H123.878C124.19 178.499 124.498 178.411 124.754 178.233C125.494 177.769 126.292 177.3 127.154 176.853C127.776 176.542 128.254 176.223 128.442 175.736V175.789Z" fill="#027FF3"/>
<path d="M117.293 177.887C117.385 177.731 117.492 177.584 117.612 177.449C119.649 175.259 123.994 174.173 126.915 174.712C127.624 174.852 127.76 175.268 127.353 175.763C127.127 176.021 126.841 176.218 126.519 176.336C126.198 176.455 125.852 176.491 125.513 176.442C123.569 176.148 120.888 176.849 119.461 178.268C119.337 178.401 119.205 178.527 119.066 178.645C118.895 178.781 118.691 178.871 118.475 178.907C118.259 178.942 118.037 178.921 117.831 178.846C117.734 178.82 117.643 178.775 117.563 178.714C117.484 178.652 117.417 178.575 117.368 178.487C117.319 178.399 117.289 178.302 117.278 178.202C117.267 178.102 117.276 178.001 117.306 177.904L117.293 177.887Z" fill="#3F4449"/>
<path d="M233.017 165.483C219.878 171.045 220.754 173.423 233.017 178.819C206.652 184.329 182.949 163.792 156.863 165.242C156.953 165.08 157.024 164.908 157.074 164.73L159.29 164.068C160.573 163.731 161.204 163.569 162.447 163.271C162.05 163.086 161.642 162.925 161.225 162.789C162.57 162.203 163.201 161.913 164.401 161.327C164.008 160.75 163.526 160.24 162.973 159.816C164.418 158.817 165.075 158.327 166.337 157.385C165.498 157.043 164.636 156.762 163.757 156.544C164.685 155.751 165.132 155.37 166.03 154.639C165.522 153.962 164.933 153.349 164.278 152.812C165.607 152.232 166.972 151.738 168.364 151.332C167.777 151.104 167.488 150.995 166.84 150.785C167.03 150.341 167.246 149.91 167.488 149.493C167.137 149.163 166.766 148.856 166.376 148.573C165.382 148.455 164.865 148.406 163.783 148.332C189.527 148.674 208.386 162.325 233.017 165.483Z" fill="white"/>
<path d="M233.04 165.479C231.183 166.311 229.365 167.108 227.614 168.107C226.74 168.573 225.909 169.115 225.13 169.727C224.744 170.037 224.395 170.391 224.092 170.783C223.793 171.169 223.623 171.639 223.606 172.127C223.636 172.609 223.817 173.069 224.123 173.441C224.271 173.639 224.433 173.825 224.609 173.998C224.797 174.16 224.968 174.339 225.17 174.488C225.958 175.097 226.796 175.639 227.675 176.109C229.427 177.077 231.257 177.9 233.088 178.71L233.373 178.837L233.066 178.903C226.668 180.265 220.01 180.09 213.598 178.925C207.187 177.76 200.946 175.728 194.792 173.612C188.639 171.497 182.507 169.259 176.205 167.599C169.902 165.939 163.376 164.954 156.873 165.33H156.75L156.798 165.208L157 164.708V164.664H157.039L158.353 164.266C158.791 164.135 159.229 163.994 159.698 163.885L162.395 163.193V163.368L161.187 162.891L160.972 162.807L161.178 162.711L164.344 161.244L164.305 161.397C164.11 161.116 163.895 160.85 163.661 160.6C163.42 160.354 163.164 160.122 162.895 159.908L162.785 159.816L162.903 159.733L166.254 157.298L166.285 157.508C165.449 157.172 164.592 156.894 163.718 156.676L163.477 156.615L163.666 156.453L165.939 154.543L165.917 154.731C165.664 154.4 165.394 154.083 165.106 153.781C164.822 153.479 164.511 153.203 164.195 152.927L164.025 152.778L164.231 152.69C164.901 152.41 165.575 152.13 166.258 151.884C166.942 151.639 167.638 151.42 168.334 151.206V151.473L166.819 150.938L166.661 150.886L166.731 150.746L167.384 149.432L167.415 149.611L166.315 148.7L166.385 148.731L163.814 148.486V148.197C169.796 148.313 175.747 149.074 181.565 150.465C187.369 151.877 193.089 153.612 198.699 155.66C204.327 157.644 209.92 159.72 215.618 161.476C221.307 163.281 227.133 164.62 233.04 165.479ZM233.009 165.479C227.09 164.715 221.25 163.431 215.556 161.642C209.841 159.917 204.235 157.867 198.598 155.918C192.987 153.904 187.275 152.18 181.487 150.755C175.694 149.367 169.769 148.606 163.814 148.486V148.197L166.416 148.442H166.442L166.473 148.468L167.594 149.397L167.673 149.463L167.62 149.572L166.977 150.855L166.893 150.663L168.426 151.21L168.825 151.355L168.418 151.477C167.721 151.687 167.034 151.915 166.355 152.147C165.676 152.379 165.01 152.668 164.34 152.949L164.379 152.717C164.699 152.993 165.014 153.277 165.312 153.593C165.603 153.903 165.876 154.229 166.131 154.569L166.21 154.674L166.109 154.758L163.832 156.654L163.784 156.431C164.665 156.665 165.53 156.958 166.372 157.307L166.578 157.39L166.403 157.517L163.03 159.939V159.764C163.306 159.985 163.568 160.224 163.814 160.477C164.053 160.736 164.272 161.011 164.471 161.301L164.546 161.406L164.432 161.459L161.252 162.913V162.737L162.501 163.202L162.768 163.307L162.483 163.377L159.785 164.056C159.347 164.161 158.909 164.301 158.445 164.428L157.109 164.822L157.162 164.77L156.951 165.295L156.873 165.181C163.407 164.818 169.924 165.882 176.218 167.529C182.511 169.176 188.674 171.37 194.84 173.459C201.007 175.548 207.226 177.545 213.634 178.679C216.832 179.271 220.074 179.594 223.326 179.643C226.579 179.682 229.827 179.372 233.014 178.719L232.992 178.912C231.161 178.093 229.335 177.26 227.578 176.284C226.691 175.805 225.846 175.253 225.051 174.633C224.65 174.321 224.291 173.959 223.983 173.555C223.641 173.158 223.453 172.651 223.453 172.127C223.453 171.604 223.641 171.097 223.983 170.7C224.294 170.299 224.655 169.938 225.056 169.627C225.852 169.012 226.701 168.469 227.592 168.002C228.468 167.524 229.374 167.086 230.29 166.688C231.205 166.289 232.085 165.856 233.014 165.483L233.009 165.479Z" fill="#3F4449"/>
<path d="M213.688 172.977C213.766 173.091 213.81 173.152 213.898 173.266C214.042 173.31 214.188 173.347 214.336 173.375C216.022 173.726 216.342 172.916 216.013 171.711C215.831 170.938 215.462 170.221 214.94 169.622C215.225 170.154 215.414 170.732 215.496 171.33C215.676 172.535 215.304 173.319 213.688 172.977Z" fill="#027FF3"/>
<path d="M212.679 169.592C211.983 169.382 211.291 169.662 211.313 170.232C211.493 172.303 212.535 173.297 214.414 175.295C213.866 175.185 213.59 175.124 213.039 174.997C213.152 175.102 213.26 175.213 213.363 175.33C214.125 175.5 214.506 175.579 215.263 175.715C213.31 173.722 212.198 172.75 211.812 170.7C211.733 170.135 212.373 169.851 213.074 170.043C213.285 170.104 213.485 170.2 213.665 170.328C213.433 169.974 213.084 169.714 212.679 169.592Z" fill="#027FF3"/>
<path d="M209.254 172.557L209.438 172.85C209.979 173.026 210.5 173.258 210.993 173.542C210.447 173.157 209.864 172.827 209.254 172.557Z" fill="#027FF3"/>
<path d="M210.996 173.542C211.562 173.913 212.079 174.354 212.533 174.856L213.041 174.979C212.419 174.42 211.733 173.938 210.996 173.542Z" fill="#027FF3"/>
<path d="M213.525 172.15C214.265 172.325 214.589 171.983 214.449 171.418C214.323 170.974 214.046 170.588 213.665 170.328C213.806 170.529 213.899 170.76 213.937 171.002C214.015 171.576 213.652 171.909 212.912 171.72C212.77 171.683 212.632 171.632 212.5 171.567C212.672 172.02 212.903 172.449 213.188 172.842C213.331 172.889 213.478 172.928 213.626 172.96H213.696C213.473 172.655 213.279 172.329 213.118 171.988C213.248 172.055 213.384 172.109 213.525 172.15Z" fill="#027FF3"/>
<path d="M209.26 172.557C209.054 172.227 208.867 171.886 208.699 171.536C209.642 171.882 210.547 172.322 211.401 172.85C210.705 171.812 210.416 171.291 210.245 170.222C210.031 168.908 211.94 168.273 213.517 168.742C214.062 168.897 214.553 169.2 214.936 169.618C214.76 169.296 214.523 169.012 214.237 168.782C213.951 168.552 213.623 168.381 213.272 168.278C211.695 167.783 209.654 168.396 209.768 169.736C209.842 170.809 210.083 171.335 210.714 172.364C209.89 171.817 209.009 171.361 208.086 171.006C208.275 171.459 208.496 171.898 208.747 172.32C208.896 172.399 209.076 172.478 209.26 172.557Z" fill="#027FF3"/>
<path d="M210.241 170.235C210.412 171.295 210.701 171.816 211.398 172.863C210.544 172.335 209.638 171.894 208.695 171.549C208.864 171.899 209.051 172.24 209.256 172.569C209.871 172.84 210.457 173.17 211.008 173.555C211.745 173.957 212.431 174.445 213.053 175.009C213.605 175.136 213.881 175.197 214.428 175.307C212.549 173.301 211.507 172.315 211.328 170.244C211.306 169.674 211.998 169.394 212.694 169.604C213.099 169.727 213.449 169.987 213.684 170.34C214.063 170.602 214.34 170.988 214.468 171.431C214.604 171.996 214.279 172.337 213.539 172.162C213.389 172.128 213.242 172.08 213.101 172.018C213.262 172.359 213.457 172.684 213.684 172.985C215.3 173.331 215.672 172.548 215.488 171.343C215.405 170.745 215.217 170.167 214.932 169.635C214.549 169.218 214.058 168.914 213.513 168.759C211.941 168.286 210.031 168.895 210.241 170.235Z" fill="#3F4449"/>
<path d="M206.982 171.786C204.749 170.993 203.619 170.542 201.328 169.596C201.42 169.184 201.464 168.974 201.569 168.562L202.979 169.167C202.541 167.332 202.41 166.403 203.36 164.507C203.995 164.827 204.311 164.984 204.941 165.291C204 167.165 204.171 168.081 204.718 169.894C205.414 170.174 205.765 170.332 206.47 170.577C206.618 170.989 206.789 171.393 206.982 171.786Z" fill="#3F4449"/>
<path d="M191.79 165.554C189.372 164.542 188.155 164.043 185.711 163.127C186.101 162.689 186.285 162.466 186.639 162.019C187.292 162.278 187.616 162.409 188.264 162.676C188.729 160.727 188.86 159.729 189.793 157.784C190.498 158.095 190.848 158.253 191.545 158.573C190.594 160.517 190.485 161.511 190.117 163.452C190.857 163.767 191.229 163.929 191.965 164.253C191.891 164.774 191.847 165.037 191.79 165.554Z" fill="#3F4449"/>
<path d="M200.656 167.582L198.935 166.789C198.865 165.156 198.891 164.328 199.723 162.659L201.313 163.478C200.49 165.134 200.49 165.953 200.656 167.582Z" fill="#3F4449"/>
<path d="M198.414 168.384L196.531 167.582C196.469 166.644 196.479 165.703 196.561 164.766C195.834 165.007 195.479 165.13 194.739 165.37L192.598 164.407C193.587 164.1 194.056 163.969 195.024 163.649C194.368 162.349 193.888 160.968 193.596 159.541C194.341 159.9 194.709 160.084 195.44 160.452C195.605 161.42 195.879 162.367 196.259 163.273L196.855 163.097C196.992 162.536 197.198 161.993 197.468 161.481L199.088 162.318C197.858 164.77 198.129 165.992 198.396 168.379L198.414 168.384Z" fill="#3F4449"/>
<path d="M178.269 160.727C177.498 160.517 177.112 160.421 176.342 160.246C176.833 159.319 177.234 158.346 177.537 157.342C176.591 157.745 176.114 157.955 175.115 158.389C174.2 158.213 173.744 158.135 172.82 158.012C174.086 157.416 174.686 157.136 175.886 156.597C175.309 155.396 174.612 154.256 173.806 153.194C174.73 153.304 175.185 153.37 176.088 153.523C176.561 154.3 176.992 155.103 177.38 155.927L178.08 155.629C178.273 154.977 178.369 154.648 178.571 154.005C179.368 154.184 179.758 154.281 180.537 154.486C179.631 156.939 179.482 158.253 178.269 160.727Z" fill="#3F4449"/>
<path d="M199.845 167.647C199.359 167.428 198.969 167.573 199.035 167.967C199.108 168.217 199.238 168.447 199.415 168.638C199.592 168.83 199.811 168.978 200.055 169.071C200.567 169.285 200.931 169.141 200.839 168.751C200.761 168.507 200.632 168.283 200.46 168.092C200.289 167.902 200.079 167.75 199.845 167.647Z" fill="#3F4449"/>
<path d="M187.029 159.545C186.621 160.885 185.058 161.468 183.367 160.99C183.446 161.025 183.56 161.065 183.643 161.095C185.417 161.722 187.112 161.161 187.532 159.751C187.953 158.34 187.121 156.641 185.382 156.01L185.106 155.918C186.674 156.602 187.418 158.205 187.029 159.545Z" fill="#027FF3"/>
<path d="M182.623 160.744L182.908 160.836C181.287 160.166 180.389 158.686 180.823 157.333C181.256 155.979 182.978 155.287 184.655 155.756L184.375 155.651C182.623 155.046 180.744 155.765 180.289 157.175C179.833 158.585 180.845 160.136 182.623 160.744Z" fill="#027FF3"/>
<path d="M184.372 157.131C184.748 157.237 185.069 157.482 185.272 157.816C185.474 158.15 185.542 158.549 185.462 158.931C185.247 159.614 184.407 159.912 183.561 159.61C182.716 159.308 182.204 158.533 182.427 157.858C182.65 157.184 183.526 156.833 184.372 157.131ZM183.128 160.92C184.901 161.533 186.631 160.963 187.043 159.553C187.455 158.143 186.605 156.448 184.88 155.835C183.154 155.222 181.249 155.922 180.793 157.333C180.338 158.743 181.336 160.306 183.128 160.92Z" fill="#3F4449"/>
</svg>
