<svg width="33" height="33" viewBox="0 0 33 33" fill="none" xmlns="http://www.w3.org/2000/svg">
<g opacity="0.4" clip-path="url(#clip0_569_69944)">
<path fill-rule="evenodd" clip-rule="evenodd" d="M13.849 29.8615C13.1417 29.8615 12.4634 29.5805 11.9633 29.0804C11.4632 28.5803 11.1823 27.9021 11.1823 27.1948V5.86149C11.1823 5.15425 11.4632 4.47597 11.9633 3.97587C12.4634 3.47578 13.1417 3.19482 13.849 3.19482H28.5156C29.2229 3.19482 29.9011 3.47578 30.4012 3.97587C30.9013 4.47597 31.1823 5.15425 31.1823 5.86149V27.1948C31.1823 27.9021 30.9013 28.5803 30.4012 29.0804C29.9011 29.5805 29.2229 29.8615 28.5156 29.8615H13.849ZM13.1823 27.1948C13.1823 27.3716 13.2525 27.5412 13.3776 27.6662C13.5026 27.7913 13.6721 27.8615 13.849 27.8615H28.5156C28.6924 27.8615 28.862 27.7913 28.987 27.6662C29.1121 27.5412 29.1823 27.3716 29.1823 27.1948V5.86149C29.1823 5.68468 29.1121 5.51511 28.987 5.39009C28.862 5.26506 28.6924 5.19482 28.5156 5.19482H13.849C13.6721 5.19482 13.5026 5.26506 13.3776 5.39009C13.2525 5.51511 13.1823 5.68468 13.1823 5.86149V27.1948ZM8.74229 6.08149C8.86084 6.31861 8.88039 6.5931 8.79663 6.84462C8.71287 7.09615 8.53267 7.30412 8.29562 7.42282C7.99162 7.57482 7.90229 7.65882 7.87562 7.69082C7.87038 7.69696 7.86671 7.70428 7.86496 7.71216C7.85237 7.76089 7.84698 7.8112 7.84896 7.86149V25.1948C7.84896 25.2882 7.85962 25.3308 7.86496 25.3442C7.86626 25.3522 7.86998 25.3596 7.87562 25.3655C7.90229 25.3975 7.99162 25.4815 8.29562 25.6335C8.41416 25.6915 8.52003 25.7724 8.60714 25.8716C8.69425 25.9707 8.76087 26.0861 8.80317 26.2112C8.84546 26.3362 8.8626 26.4683 8.85357 26.6C8.84455 26.7317 8.80956 26.8602 8.75061 26.9783C8.69166 27.0964 8.60992 27.2016 8.5101 27.288C8.41028 27.3743 8.29436 27.44 8.16902 27.4814C8.04368 27.5227 7.9114 27.5388 7.7798 27.5287C7.64821 27.5187 7.51991 27.4827 7.40229 27.4228C7.03962 27.2415 6.62896 27.0028 6.32229 26.6255C5.98229 26.2068 5.84896 25.7188 5.84896 25.1948V7.86149C5.84896 7.33749 5.98229 6.84949 6.32229 6.43082C6.62896 6.05349 7.03962 5.81482 7.40229 5.63349C7.63957 5.51504 7.91419 5.49569 8.16574 5.5797C8.41728 5.66372 8.62516 5.84422 8.74362 6.08149H8.74229ZM3.38229 8.02682C3.44808 8.14054 3.49082 8.2661 3.50806 8.39634C3.52531 8.52658 3.51672 8.65894 3.4828 8.78585C3.44887 8.91277 3.39026 9.03176 3.31033 9.13602C3.2304 9.24028 3.13071 9.32777 3.01696 9.39349C2.81696 9.50949 2.67429 9.62016 2.59029 9.72016C2.51562 9.80816 2.51562 9.84816 2.51562 9.86149V23.1948C2.51562 23.2082 2.51562 23.2482 2.59029 23.3362C2.67429 23.4348 2.81696 23.5468 3.01696 23.6628C3.1306 23.7287 3.23015 23.8162 3.30995 23.9205C3.38974 24.0249 3.4482 24.1439 3.482 24.2708C3.5158 24.3977 3.52428 24.53 3.50694 24.6602C3.4896 24.7904 3.44679 24.9159 3.38096 25.0295C3.31512 25.1431 3.22755 25.2427 3.12324 25.3225C3.01892 25.4023 2.89992 25.4607 2.77301 25.4945C2.64611 25.5283 2.51378 25.5368 2.3836 25.5195C2.25342 25.5021 2.12793 25.4593 2.01429 25.3935C1.48896 25.0895 0.515625 24.4042 0.515625 23.1948V9.86149C0.515625 8.65216 1.48896 7.96816 2.01429 7.66149C2.12801 7.5957 2.25357 7.55296 2.38381 7.53572C2.51404 7.51847 2.6464 7.52706 2.77332 7.56099C2.90024 7.59491 3.01923 7.65352 3.12349 7.73345C3.22775 7.81338 3.31524 7.91307 3.38096 8.02682H3.38229Z" fill="#444A57"/>
</g>
<defs>
<clipPath id="clip0_569_69944">
<rect width="32" height="32" fill="white" transform="translate(0.515625 0.52832)"/>
</clipPath>
</defs>
</svg>
