<svg width="213" height="151" viewBox="0 0 213 151" fill="none" xmlns="http://www.w3.org/2000/svg">
<path d="M106.013 125.229H89.6133V140.029H106.013V125.229Z" fill="#E3E3E3"/>
<path d="M89.6132 140.028L97.8132 139.928C100.513 139.928 103.313 139.928 106.013 139.928L105.913 140.028L106.013 132.628C106.013 130.128 106.013 127.728 106.013 125.228L106.113 125.328L97.9132 125.428H89.7132L89.8132 125.328C89.8132 127.728 89.8132 130.228 89.8132 132.628L89.6132 140.028ZM89.6132 140.028L89.5132 132.628C89.5132 130.128 89.4132 127.728 89.5132 125.228V125.128H89.6132H97.8132L106.013 125.228H106.113V125.328C106.113 127.828 106.113 130.228 106.113 132.728L106.213 140.128V140.228H106.113C103.313 140.228 100.613 140.228 97.8132 140.228L89.6132 140.028Z" fill="#3F4449"/>
<path d="M106.017 116.829H89.6172V125.229H106.017V116.829Z" fill="#E3E3E3"/>
<path d="M89.6156 125.229L97.9156 125.129C100.616 125.129 103.316 125.129 106.116 125.129L106.016 125.229C106.016 123.829 106.016 122.429 106.016 121.029V116.829L106.116 116.929C103.416 116.929 100.616 117.029 97.9156 117.029C95.2156 117.029 92.4156 117.029 89.7156 117.029L89.8156 116.929L89.6156 125.229ZM89.6156 125.229L89.5156 116.829V116.729H89.6156C92.3156 116.729 95.1156 116.729 97.8156 116.729C100.516 116.729 103.316 116.729 106.016 116.829H106.116V116.929V121.129C106.116 122.529 106.116 123.929 106.116 125.329V125.429H106.016C103.316 125.429 100.516 125.529 97.7156 125.429L89.6156 125.229Z" fill="#3F4449"/>
<path d="M120.117 146.029V150.029H89.6172V139.929H114.017C117.417 140.029 120.117 142.729 120.117 146.029Z" fill="#C4C4C4"/>
<path d="M120.116 146.029V150.029C115.016 150.029 109.916 150.129 104.916 150.129C99.8156 150.129 94.7156 150.029 89.7156 150.029H89.6156V149.929L89.5156 139.829V139.729H89.6156H106.616H110.816H112.916C113.616 139.729 114.316 139.729 115.016 139.829C116.416 140.129 117.716 140.829 118.616 141.929C119.616 143.229 120.116 144.629 120.116 146.029ZM120.116 146.029C120.116 144.629 119.616 143.229 118.716 142.129C117.816 141.029 116.516 140.329 115.116 140.129C114.416 140.029 113.716 140.029 113.016 140.029H110.916H106.716H89.7156L89.8156 139.929L89.7156 150.029L89.6156 149.929C94.7156 149.929 99.8156 149.929 104.816 149.829C109.916 149.729 115.016 149.929 120.016 149.929L120.116 146.029Z" fill="#3F4449"/>
<path d="M175.017 0.628418C177.217 0.628418 179.017 2.42842 179.017 4.62842V110.928C179.017 111.928 178.717 112.928 178.317 113.728C177.317 115.528 175.417 116.728 173.217 116.728H89.6172V112.028H171.917C173.217 112.028 174.317 110.928 174.317 109.628V9.42842C174.317 7.22842 172.517 5.42842 170.317 5.42842H89.6172V0.628418H175.017Z" fill="#ECECEC"/>
<path d="M175.016 0.62832C176.116 0.62832 177.116 1.02832 177.916 1.82832C178.716 2.62832 179.116 3.72832 179.016 4.72832V11.1283V23.9283V49.6283L179.116 100.928V107.328V110.528C179.116 111.628 178.916 112.728 178.416 113.728C177.416 115.628 175.216 116.928 173.016 116.828H166.616H140.916H89.6156H89.5156V116.728V112.028V111.928H89.6156H158.016H166.516H170.816C171.516 111.928 172.216 112.028 172.916 111.728C173.516 111.428 174.016 110.928 174.216 110.228C174.316 109.928 174.316 109.528 174.316 109.228V108.128V106.028V101.728V93.2283V59.0283V24.8283V16.3283V12.0283V9.92832C174.316 9.22832 174.316 8.52832 174.016 7.92832C173.516 6.62832 172.316 5.72832 170.916 5.52832C169.516 5.42832 168.116 5.52832 166.616 5.52832H158.116H89.7156H89.6156V5.42832V0.72832V0.52832H89.7156L175.016 0.62832ZM175.016 0.72832L89.6156 0.82832L89.7156 0.72832V5.42832L89.6156 5.32832H158.016H166.516C167.916 5.32832 169.316 5.32832 170.816 5.32832C172.316 5.52832 173.616 6.52832 174.116 7.92832C174.416 8.62832 174.416 9.42832 174.416 10.0283V12.1283V16.4283V24.9283V59.1283V93.3283V101.828V106.128V108.228V109.328C174.416 109.628 174.416 110.028 174.316 110.428C174.116 111.128 173.616 111.728 172.916 112.028C172.216 112.328 171.516 112.228 170.816 112.228H166.516H158.016H89.6156L89.7156 112.128V116.828L89.6156 116.728H140.916H166.616H173.016C175.116 116.828 177.216 115.628 178.216 113.728C178.716 112.828 178.916 111.728 178.916 110.728V107.528V101.128L179.016 49.8283V24.1283V11.3283V4.92832C179.016 3.82832 178.616 2.82832 177.916 2.02832C177.116 1.12832 176.116 0.72832 175.016 0.72832Z" fill="#3F4449"/>
<path d="M174.313 9.42822V109.828C174.313 111.128 173.213 112.228 171.913 112.228H89.6133V104.628H165.013C166.913 104.628 168.413 103.128 168.413 101.228V16.4282C168.413 14.5282 166.913 13.0282 165.013 13.0282H89.6133V5.42822H170.313C172.513 5.42822 174.313 7.12822 174.313 9.42822Z" fill="white"/>
<path d="M193.013 23.0284C192.813 22.7284 192.813 22.3284 192.813 21.8284C192.813 21.3284 192.913 20.9284 193.013 20.6284C193.213 20.3284 193.413 20.2284 193.613 20.2284C193.913 20.2284 194.113 20.3284 194.213 20.6284C194.413 20.9284 194.413 21.3284 194.413 21.8284C194.413 22.3284 194.313 22.7284 194.213 23.0284C194.013 23.3284 193.813 23.4284 193.613 23.4284C193.413 23.3284 193.213 23.2284 193.013 23.0284ZM199.013 23.3284C199.313 23.3284 199.513 23.2284 199.613 22.9284C199.813 22.6284 199.813 22.2284 199.813 21.7284C199.813 21.2284 199.713 20.8284 199.613 20.5284C199.413 20.2284 199.213 20.1284 199.013 20.1284C198.713 20.1284 198.513 20.2284 198.413 20.5284C198.213 20.8284 198.213 21.2284 198.213 21.7284C198.213 22.2284 198.313 22.6284 198.413 22.9284C198.513 23.2284 198.713 23.3284 199.013 23.3284ZM187.513 15.1284H210.913C211.913 15.1284 212.813 15.9284 212.813 17.0284V26.4284C212.813 27.4284 212.013 28.3284 210.913 28.3284H188.713C188.013 29.1284 186.713 30.2284 184.513 30.8284C184.113 30.9284 183.813 30.4284 184.013 30.1284C184.413 29.4284 185.013 28.1284 185.613 25.9284V17.0284C185.613 15.9284 186.413 15.1284 187.513 15.1284ZM202.613 21.0284C202.713 22.1284 203.313 23.1284 204.113 23.8284C204.913 24.5284 205.813 25.0284 206.813 25.4284C207.813 25.0284 208.713 24.5284 209.513 23.8284C210.313 23.1284 210.913 22.1284 211.013 21.0284C211.113 19.9284 210.613 18.7284 209.613 18.2284C208.613 17.7284 207.213 18.1284 206.813 19.1284C206.313 18.1284 204.913 17.7284 204.013 18.2284C203.013 18.7284 202.513 19.9284 202.613 21.0284ZM196.613 21.8284C196.613 22.4284 196.713 22.9284 196.913 23.3284C197.113 23.7284 197.413 24.1284 197.813 24.3284C198.213 24.5284 198.613 24.6284 199.013 24.6284C199.513 24.6284 199.913 24.5284 200.213 24.3284C200.613 24.1284 200.813 23.8284 201.113 23.3284C201.313 22.9284 201.413 22.4284 201.413 21.8284C201.413 21.2284 201.313 20.7284 201.113 20.3284C200.913 19.9284 200.613 19.5284 200.213 19.3284C199.813 19.1284 199.413 19.0284 199.013 19.0284C198.513 19.0284 198.113 19.1284 197.813 19.3284C197.413 19.5284 197.213 19.8284 196.913 20.3284C196.713 20.7284 196.613 21.2284 196.613 21.8284ZM191.313 21.8284C191.313 22.4284 191.413 22.9284 191.613 23.3284C191.813 23.7284 192.113 24.1284 192.513 24.3284C192.913 24.5284 193.313 24.6284 193.713 24.6284C194.213 24.6284 194.613 24.5284 194.913 24.3284C195.313 24.1284 195.513 23.8284 195.813 23.3284C196.013 22.9284 196.113 22.4284 196.113 21.8284C196.113 21.2284 196.013 20.7284 195.813 20.3284C195.613 19.9284 195.313 19.5284 194.913 19.3284C194.513 19.1284 194.113 19.0284 193.713 19.0284C193.213 19.0284 192.813 19.1284 192.513 19.3284C192.113 19.5284 191.913 19.8284 191.613 20.3284C191.413 20.7284 191.313 21.2284 191.313 21.8284ZM187.913 20.2284H188.913V24.5284H190.413V19.0284H187.813V20.2284H187.913Z" fill="#027FF3"/>
<path d="M193.013 23.0279C192.713 22.4279 192.613 21.7279 192.713 21.0279C192.813 20.7279 193.013 20.3279 193.413 20.2279C193.713 20.1279 194.113 20.2279 194.313 20.5279C194.513 20.8279 194.613 21.2279 194.613 21.5279C194.613 21.8279 194.613 22.2279 194.513 22.5279C194.413 22.8279 194.213 23.2279 193.813 23.3279C193.513 23.5279 193.213 23.3279 193.013 23.0279ZM193.013 22.9279C193.213 23.2279 193.513 23.3279 193.813 23.2279C194.113 23.1279 194.213 22.8279 194.213 22.5279C194.313 21.9279 194.413 21.2279 194.113 20.6279C194.013 20.3279 193.613 20.1279 193.313 20.3279C193.013 20.4279 192.913 20.8279 192.813 21.1279C192.713 21.4279 192.713 21.7279 192.713 22.1279C192.913 22.3279 192.913 22.7279 193.013 22.9279Z" fill="#3F4449"/>
<path d="M199.016 23.328C199.316 23.328 199.616 23.028 199.616 22.728C199.716 22.428 199.716 22.128 199.716 21.728C199.716 21.428 199.716 21.028 199.616 20.728C199.516 20.428 199.216 20.128 198.916 20.228C198.616 20.228 198.416 20.528 198.316 20.828C198.216 21.128 198.216 21.428 198.216 21.728C198.216 22.028 198.216 22.328 198.316 22.728C198.416 23.028 198.616 23.328 199.016 23.328ZM199.016 23.328C198.616 23.328 198.316 23.128 198.216 22.728C198.016 22.428 198.016 22.028 198.016 21.728C198.016 21.428 198.016 21.028 198.216 20.728C198.316 20.428 198.716 20.028 199.016 20.128C199.416 20.128 199.716 20.428 199.816 20.728C199.916 21.028 200.016 21.428 200.016 21.728C200.016 22.028 200.016 22.428 199.816 22.728C199.716 23.128 199.316 23.428 199.016 23.328Z" fill="#3F4449"/>
<path d="M187.514 15.0282L202.714 14.9282C205.214 14.9282 207.814 14.9282 210.314 14.9282C210.614 14.9282 210.914 14.9282 211.314 14.9282C211.614 15.0282 211.914 15.1282 212.214 15.3282C212.714 15.7282 212.914 16.5282 212.914 17.1282V20.9282V24.7282C212.914 25.3282 212.914 26.0282 212.914 26.6282C212.814 27.2282 212.314 27.8282 211.714 28.0282C211.414 28.1282 211.114 28.1282 210.714 28.1282H209.714H207.814H204.014H188.814H188.914C188.314 28.8282 187.614 29.3282 186.814 29.8282C186.414 30.0282 186.014 30.2282 185.614 30.4282C185.414 30.5282 185.214 30.5282 185.014 30.6282L184.714 30.7282C184.614 30.7282 184.414 30.7282 184.314 30.7282C184.014 30.6282 183.914 30.3282 184.014 30.0282C184.114 29.7282 184.214 29.6282 184.314 29.4282C184.514 29.0282 184.714 28.6282 184.814 28.2282C185.114 27.4282 185.414 26.6282 185.614 25.7282V19.8282V16.8282C185.514 15.9282 186.514 15.0282 187.514 15.0282ZM187.514 15.1282C186.514 15.1282 185.614 16.0282 185.714 17.0282V20.0282V25.9282C185.514 26.8282 185.214 27.6282 184.914 28.4282C184.714 28.8282 184.614 29.2282 184.414 29.6282C184.314 29.8282 184.214 30.0282 184.114 30.2282C184.114 30.3282 184.114 30.5282 184.314 30.6282C184.414 30.6282 184.414 30.6282 184.514 30.6282L184.814 30.5282C185.014 30.4282 185.214 30.4282 185.414 30.3282C185.814 30.2282 186.214 30.0282 186.614 29.8282C187.414 29.4282 188.114 28.8282 188.614 28.2282H188.714H203.914H207.714H209.614H210.614C210.914 28.2282 211.214 28.2282 211.514 28.1282C212.114 27.9282 212.514 27.4282 212.614 26.8282C212.714 26.2282 212.614 25.5282 212.614 24.9282V21.1282V17.3282C212.714 16.7282 212.514 16.0282 212.014 15.7282C211.814 15.5282 211.514 15.4282 211.214 15.3282C210.914 15.2282 210.614 15.3282 210.314 15.3282C207.814 15.3282 205.214 15.3282 202.714 15.3282L187.514 15.1282Z" fill="#3F4449"/>
<path d="M202.613 21.0279C202.713 22.1279 203.313 23.0279 204.113 23.7279C204.913 24.4279 205.913 24.9279 206.813 25.3279C207.813 24.9279 208.813 24.4279 209.613 23.7279C210.413 23.0279 211.013 22.0279 211.013 20.9279C211.113 19.8279 210.513 18.7279 209.613 18.3279C208.713 17.9279 207.413 18.2279 207.013 19.1279L206.913 19.4279L206.813 19.1279C206.413 18.2279 205.113 17.8279 204.113 18.2279C203.013 18.8279 202.513 19.9279 202.613 21.0279ZM202.513 21.0279C202.413 19.9279 202.913 18.7279 203.913 18.2279C204.413 17.9279 205.013 17.9279 205.613 18.0279C206.213 18.1279 206.713 18.5279 206.913 19.1279H206.613C207.113 18.0279 208.613 17.6279 209.613 18.1279C210.613 18.6279 211.113 19.9279 211.113 20.9279C211.013 22.0279 210.413 23.0279 209.613 23.8279C208.813 24.6279 207.813 25.1279 206.813 25.5279C205.813 25.1279 204.813 24.6279 204.013 23.8279C203.213 23.1279 202.613 22.1279 202.513 21.0279Z" fill="#3F4449"/>
<path d="M196.613 21.8281C196.613 22.5281 196.813 23.2281 197.213 23.7281C197.613 24.2281 198.313 24.5281 199.013 24.5281C199.713 24.5281 200.413 24.3281 200.813 23.7281C201.213 23.2281 201.413 22.4281 201.313 21.8281C201.313 21.1281 201.113 20.4281 200.713 19.9281C200.313 19.4281 199.613 19.1281 199.013 19.1281C198.313 19.1281 197.713 19.4281 197.313 19.9281C196.813 20.4281 196.613 21.1281 196.613 21.8281ZM196.613 21.8281C196.613 21.1281 196.713 20.4281 197.113 19.8281C197.513 19.2281 198.313 18.8281 199.013 18.8281C199.713 18.8281 200.513 19.1281 200.913 19.7281C201.313 20.3281 201.513 21.1281 201.513 21.8281C201.513 22.5281 201.313 23.2281 200.913 23.8281C200.513 24.4281 199.813 24.7281 199.013 24.8281C198.313 24.8281 197.513 24.5281 197.113 23.9281C196.713 23.2281 196.613 22.5281 196.613 21.8281Z" fill="#3F4449"/>
<path d="M191.315 21.8281C191.315 22.5281 191.515 23.2281 191.915 23.7281C192.315 24.2281 193.015 24.5281 193.715 24.5281C194.415 24.5281 195.115 24.3281 195.515 23.7281C195.915 23.2281 196.115 22.4281 196.015 21.8281C196.015 21.1281 195.815 20.4281 195.415 19.9281C195.015 19.4281 194.315 19.1281 193.715 19.1281C193.015 19.1281 192.415 19.4281 192.015 19.9281C191.515 20.4281 191.315 21.1281 191.315 21.8281ZM191.215 21.8281C191.215 21.1281 191.315 20.4281 191.715 19.8281C192.115 19.2281 192.915 18.8281 193.615 18.8281C194.315 18.8281 195.115 19.1281 195.515 19.7281C195.915 20.3281 196.115 21.1281 196.115 21.8281C196.115 22.5281 195.915 23.2281 195.515 23.8281C195.115 24.4281 194.415 24.7281 193.615 24.8281C192.915 24.8281 192.115 24.5281 191.715 23.9281C191.415 23.2281 191.215 22.5281 191.215 21.8281Z" fill="#3F4449"/>
<path d="M187.915 20.2281L188.915 20.1281H189.015V20.2281C189.115 21.6281 189.115 23.0281 189.015 24.5281L188.915 24.4281C189.415 24.4281 189.915 24.4281 190.415 24.4281L190.315 24.5281C190.315 22.7281 190.215 20.9281 190.215 19.0281L190.315 19.1281C189.415 19.1281 188.615 19.1281 187.715 19.0281L187.815 18.9281C188.015 19.4281 187.915 19.8281 187.915 20.2281ZM187.915 20.2281C187.915 19.8281 187.815 19.4281 187.815 19.0281V18.9281H187.915C188.815 18.9281 189.615 18.8281 190.515 18.8281H190.615V18.9281C190.615 20.7281 190.515 22.5281 190.515 24.4281V24.5281H190.415C189.915 24.5281 189.415 24.5281 188.915 24.5281H188.815V24.4281C188.715 23.0281 188.715 21.6281 188.815 20.1281L188.915 20.2281C188.515 20.3281 188.215 20.2281 187.915 20.2281Z" fill="#3F4449"/>
<path d="M163.213 15.1284C164.313 15.1284 165.213 16.0284 165.213 17.1284C165.213 18.2284 164.313 19.1284 163.213 19.1284C162.113 19.1284 161.213 18.2284 161.213 17.1284C161.213 15.9284 162.113 15.1284 163.213 15.1284ZM156.613 15.1284C157.713 15.1284 158.613 16.0284 158.613 17.1284C158.613 18.2284 157.713 19.1284 156.613 19.1284C155.513 19.1284 154.613 18.2284 154.613 17.1284C154.713 15.9284 155.613 15.1284 156.613 15.1284ZM150.113 15.1284C151.213 15.1284 152.113 16.0284 152.113 17.1284C152.113 18.2284 151.213 19.1284 150.113 19.1284C149.013 19.1284 148.113 18.2284 148.113 17.1284C148.113 15.9284 149.013 15.1284 150.113 15.1284Z" fill="#8A84E0"/>
<path d="M168.413 16.4283V101.228C168.413 103.128 166.913 104.628 165.013 104.628H89.6133V102.128H164.213C165.313 102.128 166.213 101.228 166.213 100.128V23.1283C166.213 22.0283 165.313 21.1283 164.213 21.1283H89.6133V13.0283H165.013C166.913 13.0283 168.413 14.5283 168.413 16.4283Z" fill="white"/>
<path d="M168.413 16.4283L168.513 99.1283C168.513 100.028 168.513 100.828 168.513 101.728C168.413 102.628 167.913 103.428 167.213 103.928C166.513 104.528 165.513 104.728 164.713 104.628H162.113H151.813H131.113H89.7133H89.6133V104.528V102.028V101.928H89.7133H147.813H162.313H164.113C164.713 101.928 165.313 101.728 165.713 101.328C166.113 100.928 166.313 100.328 166.213 99.7283V97.9283V90.6283V61.6283V32.6283V25.3283V23.5283C166.213 22.9283 166.113 22.3283 165.713 21.9283C165.313 21.5283 164.713 21.2283 164.113 21.3283H162.313H147.813H89.7133H89.6133V21.2283V13.1283V13.0283H89.7133H130.013H150.213H160.313H165.313C166.113 13.1283 167.013 13.4283 167.513 14.1283C168.013 14.7283 168.413 15.5283 168.413 16.4283ZM168.313 16.4283C168.313 15.6283 168.013 14.7283 167.413 14.1283C166.813 13.5283 166.013 13.1283 165.213 13.1283H160.213H150.113H129.913H89.6133L89.7133 13.0283V21.1283L89.6133 21.0283H147.713H162.213H164.013C164.613 21.0283 165.313 21.2283 165.713 21.7283C166.113 22.2283 166.313 22.8283 166.313 23.4283V25.2283V32.5283V61.5283V90.5283V97.8283V99.6283C166.313 100.228 166.213 100.928 165.713 101.328C165.313 101.828 164.613 102.028 164.013 102.028H162.213H147.713H89.6133L89.7133 101.928V104.428L89.6133 104.328H131.013H151.713H162.013H164.613C165.513 104.328 166.313 104.228 167.013 103.728C167.713 103.228 168.113 102.428 168.213 101.628C168.313 100.828 168.213 99.9283 168.213 99.0283L168.313 16.4283Z" fill="#3F4449"/>
<path d="M91.3125 66.6284V96.0284C91.3125 96.7284 91.9125 97.3284 92.6125 97.3284H161.413C162.113 97.3284 162.712 96.7284 162.712 96.0284V66.6284H91.3125ZM102.312 95.5284H93.1125V69.1284H102.312V95.5284ZM113.412 95.1284H104.213V91.9284H113.412V95.1284ZM113.412 89.4284H104.213V86.2284H113.412V89.4284ZM113.412 83.7284H104.213V80.5284H113.412V83.7284ZM113.412 78.0284H104.213V74.8284H113.412V78.0284ZM160.212 95.5284H116.012V69.1284H160.212V95.5284Z" fill="white"/>
<path d="M166.213 23.1284C166.213 22.0284 165.313 21.1284 164.213 21.1284H89.6133V26.3284H161.213V30.7284H89.6133V34.4284H109.813V36.6284H89.6133V39.9284V42.1284V45.4284H96.7133V47.6284H89.6133V50.9284V53.1284V56.4284H95.7133V58.6284H89.6133V101.928H164.213C165.313 101.928 166.213 101.028 166.213 99.9284V23.1284ZM124.313 34.4284H146.413V36.6284H124.313V34.4284ZM112.713 36.6284V34.4284H121.113V36.6284H112.713ZM98.5133 47.7284V45.4284H122.513V47.6284H98.5133V47.7284ZM161.913 62.7284C162.713 62.7284 163.413 63.4284 163.413 64.2284V96.0284C163.413 97.1284 162.513 98.0284 161.413 98.0284H92.6133C91.5133 98.0284 90.6133 97.1284 90.6133 96.0284V64.2284C90.6133 63.4284 91.3133 62.7284 92.1133 62.7284H161.913Z" fill="white"/>
<path d="M163.215 19.0283C164.315 19.0283 165.215 18.1283 165.215 17.0283C165.215 15.9283 164.315 15.0283 163.215 15.0283C162.115 15.0283 161.215 15.9283 161.215 17.0283C161.215 18.1283 162.115 19.0283 163.215 19.0283Z" fill="white"/>
<path d="M163.213 19.0282C163.713 19.0282 164.213 18.8282 164.613 18.4282C165.013 18.0282 165.113 17.5282 165.113 17.0282C165.113 16.0282 164.213 15.1282 163.213 15.2282C162.213 15.2282 161.313 16.0282 161.313 17.0282C161.313 17.5282 161.513 18.0282 161.813 18.4282C162.213 18.8282 162.713 19.0282 163.213 19.0282ZM163.213 19.0282C162.113 19.0282 161.213 18.1282 161.113 17.0282C161.113 16.5282 161.313 15.9282 161.713 15.5282C162.113 15.1282 162.613 14.9282 163.213 14.9282C163.813 14.9282 164.313 15.1282 164.713 15.5282C165.113 15.9282 165.313 16.5282 165.313 17.0282C165.213 18.1282 164.313 19.1282 163.213 19.0282Z" fill="#3F4449"/>
<path d="M156.617 19.0283C157.717 19.0283 158.617 18.1283 158.617 17.0283C158.617 15.9283 157.717 15.0283 156.617 15.0283C155.517 15.0283 154.617 15.9283 154.617 17.0283C154.717 18.1283 155.617 19.0283 156.617 19.0283Z" fill="white"/>
<path d="M156.616 19.0282C157.116 19.0282 157.616 18.8282 158.016 18.4282C158.416 18.0282 158.516 17.5282 158.516 17.0282C158.516 16.0282 157.616 15.1282 156.616 15.2282C155.616 15.2282 154.716 16.0282 154.716 17.0282C154.716 17.5282 154.916 18.0282 155.216 18.4282C155.616 18.8282 156.116 19.0282 156.616 19.0282ZM156.616 19.0282C155.516 19.0282 154.616 18.1282 154.516 17.0282C154.516 16.5282 154.716 15.9282 155.116 15.5282C155.516 15.1282 156.016 14.9282 156.616 14.9282C157.216 14.9282 157.716 15.1282 158.116 15.5282C158.516 15.9282 158.716 16.5282 158.716 17.0282C158.716 18.1282 157.716 19.1282 156.616 19.0282Z" fill="#3F4449"/>
<path d="M150.117 19.0283C151.217 19.0283 152.117 18.1283 152.117 17.0283C152.117 15.9283 151.217 15.0283 150.117 15.0283C149.017 15.0283 148.117 15.9283 148.117 17.0283C148.117 18.1283 149.017 19.0283 150.117 19.0283Z" fill="white"/>
<path d="M150.116 19.0282C150.616 19.0282 151.116 18.8282 151.516 18.4282C151.916 18.0282 152.016 17.5282 152.016 17.0282C152.016 16.0282 151.116 15.1282 150.116 15.2282C149.116 15.2282 148.216 16.0282 148.216 17.0282C148.216 17.5282 148.416 18.0282 148.716 18.4282C149.116 18.8282 149.616 19.0282 150.116 19.0282ZM150.116 19.0282C149.016 19.0282 148.116 18.1282 148.016 17.0282C148.016 16.5282 148.216 15.9282 148.616 15.5282C149.016 15.1282 149.516 14.9282 150.116 14.9282C150.716 14.9282 151.216 15.1282 151.616 15.5282C152.016 15.9282 152.216 16.5282 152.216 17.0282C152.116 18.1282 151.216 19.1282 150.116 19.0282Z" fill="#3F4449"/>
<path d="M161.213 26.2285H89.6133V30.6285H161.213V26.2285Z" fill="white"/>
<path d="M161.214 30.6284V26.2284L143.314 26.3284C137.314 26.3284 131.414 26.3284 125.414 26.3284L107.514 26.2284H89.6141L89.7141 26.1284V30.5284L89.6141 30.4284H125.314L161.214 30.6284ZM161.214 30.7284L125.414 30.8284H89.5141H89.4141V30.7284V26.3284V26.2284H89.5141H107.414L125.314 26.1284C131.314 26.1284 137.214 26.1284 143.214 26.1284L161.114 26.2284L161.214 30.7284Z" fill="#3F4449"/>
<path d="M109.813 34.4282H89.6133V36.6282H109.813V34.4282Z" fill="white"/>
<path d="M109.814 36.6281V34.4281L109.914 34.5281C106.514 34.5281 103.214 34.6281 99.8141 34.5281H94.7141H89.6141L89.7141 34.4281V36.6281L89.6141 36.5281C93.0141 36.5281 96.3141 36.5281 99.7141 36.5281H104.814L109.814 36.6281ZM109.814 36.6281L104.814 36.7281C103.114 36.7281 101.414 36.8281 99.7141 36.7281C96.3141 36.7281 92.9141 36.7281 89.5141 36.7281H89.4141V36.6281V34.4281V34.3281H89.5141H94.6141H99.7141C103.114 34.2281 106.414 34.3281 109.814 34.3281H109.914V34.4281L109.814 36.6281Z" fill="#3F4449"/>
<path d="M121.115 34.4282H112.715V36.6282H121.115V34.4282Z" fill="white"/>
<path d="M121.113 34.4281C119.613 34.5281 118.213 34.5281 116.913 34.5281C115.513 34.5281 114.113 34.4281 112.713 34.4281V36.6281L112.613 36.5281C115.413 36.4281 118.213 36.4281 121.013 36.5281L120.913 36.6281C121.013 35.9281 121.013 35.2281 121.113 34.4281ZM121.113 34.4281C121.113 35.1281 121.213 35.9281 121.213 36.6281V36.7281H121.113C118.313 36.8281 115.513 36.8281 112.713 36.7281H112.613V36.6281V34.4281C114.013 34.4281 115.413 34.3281 116.913 34.3281C118.313 34.3281 119.713 34.3281 121.113 34.4281Z" fill="#3F4449"/>
<path d="M146.416 34.4282H124.316V36.6282H146.416V34.4282Z" fill="white"/>
<path d="M146.415 34.4281L140.815 34.5281C139.015 34.5281 137.115 34.6281 135.315 34.5281C131.615 34.5281 128.015 34.4281 124.315 34.5281L124.415 34.4281V36.6281L124.315 36.5281C128.015 36.4281 131.715 36.4281 135.315 36.4281C139.015 36.4281 142.715 36.4281 146.315 36.5281L146.215 36.6281L146.415 34.4281ZM146.415 34.4281V36.6281V36.7281H146.315C142.615 36.7281 138.915 36.8281 135.315 36.8281C131.615 36.8281 127.915 36.8281 124.315 36.7281H124.215V36.6281V34.4281V34.3281H124.315C128.015 34.4281 131.715 34.3281 135.415 34.3281C137.315 34.3281 139.115 34.3281 140.915 34.3281L146.415 34.4281Z" fill="#3F4449"/>
<path d="M96.7172 45.4282H89.6172V47.6282H96.7172V45.4282Z" fill="white"/>
<path d="M96.7156 47.6282C96.7156 46.8282 96.6156 46.1282 96.6156 45.4282L96.7156 45.5282C95.5156 45.5282 94.3156 45.5282 93.2156 45.5282C92.0156 45.4282 90.8156 45.5282 89.7156 45.5282L89.8156 45.4282L89.9156 47.6282L89.8156 47.5282C91.9156 47.5282 94.3156 47.6282 96.7156 47.6282ZM96.7156 47.7282C94.4156 47.8282 92.0156 47.9282 89.6156 47.8282H89.5156V47.7282L89.6156 45.5282V45.4282H89.7156C90.9156 45.4282 92.1156 45.5282 93.2156 45.4282C94.4156 45.3282 95.6156 45.4282 96.7156 45.4282H96.8156V45.5282C96.8156 46.2282 96.8156 47.0282 96.7156 47.7282Z" fill="#3F4449"/>
<path d="M122.512 45.4282H98.5117V47.6282H122.512V45.4282Z" fill="#027FF3"/>
<path d="M122.512 45.5281L116.512 45.6281C114.512 45.6281 112.512 45.7281 110.512 45.6281C106.512 45.6281 102.512 45.5281 98.5125 45.6281L98.6125 45.5281V47.7281L98.5125 47.6281C102.512 47.5281 106.512 47.5281 110.512 47.5281C114.512 47.5281 118.512 47.5281 122.512 47.6281L122.412 47.7281L122.512 45.5281ZM122.512 45.4281V47.6281V47.7281H122.412C118.412 47.7281 114.412 47.8281 110.412 47.8281C106.412 47.8281 102.412 47.8281 98.4125 47.7281H98.3125V47.6281V45.4281V45.3281H98.4125C102.412 45.4281 106.412 45.3281 110.512 45.3281C112.512 45.3281 114.512 45.3281 116.512 45.3281L122.512 45.4281Z" fill="#3F4449"/>
<path d="M95.7172 56.5283H89.6172V58.7283H95.7172V56.5283Z" fill="white"/>
<path d="M95.7156 58.7285C95.7156 57.9285 95.6156 57.2285 95.6156 56.5285L95.7156 56.6285C94.7156 56.6285 93.7156 56.6285 92.7156 56.6285C91.7156 56.5285 90.7156 56.6285 89.7156 56.6285L89.8156 56.5285C89.8156 57.2285 89.9156 58.0285 89.9156 58.7285L89.8156 58.6285C91.6156 58.5285 93.6156 58.6285 95.7156 58.7285ZM95.7156 58.7285C93.8156 58.8285 91.7156 58.9285 89.6156 58.8285H89.5156V58.7285C89.5156 58.0285 89.5156 57.2285 89.6156 56.5285V56.4285H89.7156C90.7156 56.4285 91.7156 56.5285 92.7156 56.4285C93.7156 56.3285 94.7156 56.3285 95.7156 56.4285H95.8156V56.5285C95.8156 57.3285 95.8156 58.0285 95.7156 58.7285Z" fill="#3F4449"/>
<path d="M161.913 62.7285H92.1133C91.3133 62.7285 90.6133 63.4285 90.6133 64.2285V96.0285C90.6133 97.1285 91.5133 98.0285 92.6133 98.0285H161.413C162.513 98.0285 163.413 97.1285 163.413 96.0285V64.2285C163.413 63.3285 162.713 62.7285 161.913 62.7285ZM162.713 96.0285C162.713 96.7285 162.113 97.3285 161.413 97.3285H92.6133C91.9133 97.3285 91.3133 96.7285 91.3133 96.0285V66.6285H162.613V96.0285H162.713Z" fill="#ECECEC"/>
<path d="M161.915 62.7283C144.115 62.7283 126.415 62.8283 108.615 62.8283H95.3152C94.2152 62.8283 93.1152 62.8283 92.0152 62.8283C91.5152 62.9283 91.0152 63.3283 90.8152 63.8283C90.7152 64.0283 90.7152 64.3283 90.7152 64.6283V65.4283V72.1283V85.4283V92.1283V95.4283C90.7152 96.0283 90.7152 96.5283 90.9152 97.0283C91.2152 97.5283 91.6152 97.8283 92.1152 97.9283H145.415H158.715H160.415C161.015 97.9283 161.515 98.0283 162.015 97.8283C162.515 97.6283 162.915 97.2283 163.115 96.7283C163.315 96.2283 163.215 95.7283 163.215 95.1283V88.4283V75.1283V68.4283V65.1283C163.215 64.6283 163.315 64.0283 163.015 63.5283C163.015 63.0283 162.415 62.7283 161.915 62.7283ZM161.915 62.7283C162.515 62.7283 163.015 63.0283 163.315 63.5283C163.615 64.0283 163.415 64.6283 163.515 65.1283V68.4283V75.1283V88.4283V95.1283C163.515 95.6283 163.615 96.2283 163.415 96.8283C163.215 97.3283 162.715 97.8283 162.215 98.0283C161.615 98.2283 161.115 98.1283 160.515 98.1283H158.815H145.515C127.715 98.1283 110.015 98.2283 92.2152 98.0283C91.6152 97.9283 91.1152 97.5283 90.9152 97.0283C90.6152 96.5283 90.7152 95.9283 90.7152 95.3283V92.0283V85.3283V72.0283V65.3283V64.5283C90.7152 64.2283 90.7152 63.9283 90.8152 63.7283C91.0152 63.1283 91.5152 62.7283 92.1152 62.6283C93.2152 62.6283 94.3152 62.6283 95.4152 62.6283H108.715C126.315 62.5283 144.115 62.6283 161.915 62.7283Z" fill="#3F4449"/>
<path d="M162.715 96.0284C162.715 96.5284 162.315 97.1284 161.815 97.2284C161.315 97.3284 160.715 97.2284 160.215 97.3284H157.015H150.615L137.815 97.4284C129.315 97.4284 120.815 97.5284 112.315 97.4284H99.5148H93.1148C92.8148 97.4284 92.6148 97.4284 92.3148 97.4284C92.0148 97.3284 91.8148 97.2284 91.6148 97.0284C91.4148 96.8284 91.3148 96.5284 91.3148 96.3284C91.3148 96.0284 91.3148 95.8284 91.3148 95.5284V92.3284V66.8284V66.7284H91.4148H127.115H162.815H162.915V66.8284L162.715 96.0284ZM162.615 96.0284L162.515 66.6284L162.615 66.7284H126.915H91.2148L91.3148 66.6284V92.1284V95.3284C91.3148 95.6284 91.3148 95.8284 91.3148 96.1284C91.3148 96.4284 91.4148 96.6284 91.6148 96.8284C91.8148 97.0284 92.0148 97.1284 92.3148 97.2284C92.5148 97.2284 92.8148 97.2284 93.1148 97.2284H99.5148H112.315C120.815 97.2284 129.315 97.2284 137.815 97.2284H150.615H157.015H160.215C160.715 97.2284 161.315 97.3284 161.815 97.1284C162.315 97.1284 162.615 96.6284 162.615 96.0284Z" fill="#3F4449"/>
<path d="M102.317 69.1284H93.1172V95.5284H102.317V69.1284Z" fill="white"/>
<path d="M93.2156 95.5283L102.316 95.4283L102.216 95.5283C102.216 93.3283 102.216 91.1283 102.216 88.9283V82.3283C102.216 77.9283 102.216 73.5283 102.216 69.1283L102.316 69.2283L93.1156 69.3283L93.2156 69.2283V82.4283V95.5283ZM93.1156 95.5283L93.0156 82.4283V69.1283V69.0283H93.1156L102.316 69.1283H102.416V69.2283C102.416 73.6283 102.416 78.0283 102.416 82.4283V89.0283C102.416 91.2283 102.416 93.4283 102.416 95.6283V95.7283H102.316L93.1156 95.5283Z" fill="#3F4449"/>
<path d="M137.316 77.7285H129.516V93.1285H137.316V77.7285Z" fill="white"/>
<path d="M137.316 77.8283C134.616 77.9283 132.116 77.9283 129.516 77.9283L129.616 77.8283C129.616 80.4283 129.616 82.9283 129.616 85.5283C129.616 86.8283 129.616 88.1283 129.616 89.4283V93.3283L129.516 93.2283C132.116 93.2283 134.716 93.1283 137.316 93.1283L137.216 93.2283C137.216 90.6283 137.216 88.1283 137.216 85.5283L137.316 77.8283ZM137.316 77.7283L137.416 85.4283C137.416 88.0283 137.416 90.6283 137.416 93.2283V93.3283H137.316C134.716 93.3283 132.116 93.3283 129.516 93.2283H129.416V93.1283V89.2283C129.416 87.9283 129.416 86.6283 129.416 85.3283C129.416 82.7283 129.316 80.2283 129.416 77.6283V77.5283H129.516C132.116 77.7283 134.716 77.7283 137.316 77.7283Z" fill="#3F4449"/>
<path d="M116.012 69.1284V95.5284H160.212V69.1284H116.012ZM118.312 70.5284H158.012V73.2284H118.312V70.5284ZM126.912 93.5284H118.412V77.4284H126.912V93.5284ZM147.812 93.5284H139.312V77.4284H147.812V93.5284Z" fill="white"/>
<path d="M116.012 69.1283L116.113 95.5283L116.012 95.4283L138.113 95.5283H149.212H160.312L160.212 95.6283L160.113 69.2283L160.212 69.3283C152.812 69.3283 145.513 69.3283 138.113 69.3283L116.012 69.1283ZM116.012 69.1283L138.113 69.0283C145.513 68.9283 152.912 69.0283 160.312 69.0283H160.413V69.1283L160.312 95.5283V95.6283H160.212H149.113H138.012L115.912 95.7283H115.812V95.6283L116.012 69.1283Z" fill="#3F4449"/>
<path d="M118.312 70.5282L128.213 70.4282C131.513 70.4282 134.813 70.3282 138.113 70.4282C144.713 70.4282 151.412 70.5282 158.012 70.4282H158.113V70.5282V73.2282V73.3282H158.012L138.113 73.4282H128.213L118.312 73.3282V70.5282ZM118.312 70.5282V73.2282L128.213 73.1282H138.113L158.012 73.2282L157.913 73.3282V70.6282L158.012 70.7282C151.412 70.6282 144.812 70.7282 138.212 70.7282C134.912 70.7282 131.613 70.7282 128.312 70.7282L118.312 70.5282Z" fill="#3F4449"/>
<path d="M126.911 93.5285C124.111 93.6285 121.211 93.6285 118.311 93.6285H118.211V93.5285C118.211 90.8285 118.211 88.1285 118.211 85.4285C118.211 84.1285 118.211 82.7285 118.211 81.4285V77.4285V77.3285H118.311C121.111 77.3285 124.011 77.2285 126.811 77.2285H126.911V77.3285C126.911 80.0285 126.911 82.7285 126.911 85.4285V93.5285ZM126.911 93.5285L126.811 85.4285C126.811 82.7285 126.811 80.0285 126.811 77.4285L126.911 77.5285C124.111 77.5285 121.211 77.5285 118.411 77.4285L118.511 77.3285V81.3285C118.511 82.6285 118.511 84.0285 118.511 85.3285C118.511 88.0285 118.611 90.7285 118.511 93.4285L118.411 93.3285C121.111 93.4285 124.011 93.5285 126.911 93.5285Z" fill="#3F4449"/>
<path d="M147.911 93.5285C145.111 93.6285 142.211 93.6285 139.311 93.6285H139.211V93.5285C139.211 90.8285 139.211 88.1285 139.211 85.4285C139.211 84.1285 139.211 82.7285 139.211 81.4285V77.4285V77.3285H139.311C142.111 77.3285 145.011 77.2285 147.811 77.2285H147.911V77.3285C147.911 80.0285 147.911 82.7285 147.911 85.4285V93.5285ZM147.811 93.5285L147.711 85.4285C147.711 82.7285 147.711 80.0285 147.711 77.4285L147.811 77.5285C145.011 77.5285 142.111 77.5285 139.311 77.4285L139.411 77.3285V81.3285C139.411 82.6285 139.411 84.0285 139.411 85.3285C139.411 88.0285 139.511 90.7285 139.411 93.4285L139.311 93.3285C142.111 93.4285 144.911 93.5285 147.811 93.5285Z" fill="#3F4449"/>
<path d="M157.714 77.7285H149.914V93.1285H157.714V77.7285Z" fill="white"/>
<path d="M157.715 77.7285L157.815 85.4285C157.815 88.0285 157.815 90.6285 157.815 93.2285V93.3285H157.715C156.415 93.3285 155.115 93.3285 153.815 93.3285H149.915H149.815V93.2285C149.815 90.6285 149.715 88.1285 149.715 85.5285C149.715 82.9285 149.715 80.4285 149.715 77.8285V77.7285H149.815H157.715ZM157.715 77.8285L149.915 77.9285L150.015 77.8285C150.015 80.4285 150.015 82.9285 150.015 85.5285C150.015 88.1285 150.015 90.6285 149.915 93.2285L149.815 93.1285H153.715C155.015 93.1285 156.315 93.1285 157.615 93.1285L157.515 93.2285C157.515 90.6285 157.415 88.1285 157.515 85.5285L157.715 77.8285Z" fill="#3F4449"/>
<path d="M113.415 74.8281H104.215V78.0281H113.415V74.8281Z" fill="white"/>
<path d="M104.213 78.028C105.813 77.928 107.313 77.928 108.813 77.928C110.313 77.928 111.813 77.928 113.313 78.028C113.313 76.928 113.313 75.928 113.313 74.828L113.413 74.928C110.313 75.028 107.313 75.028 104.213 74.928L104.313 74.828L104.213 78.028ZM104.213 78.028C104.213 77.028 104.113 75.928 104.113 74.828V74.728H104.213C107.313 74.628 110.313 74.728 113.413 74.728H113.513V74.828C113.513 75.928 113.513 76.928 113.513 78.028H113.413C111.913 78.028 110.313 78.128 108.813 78.128C107.213 78.128 105.713 78.028 104.213 78.028Z" fill="#3F4449"/>
<path d="M126.812 77.4282H118.312V93.6282H126.812V77.4282Z" fill="white"/>
<path d="M147.812 77.4282H139.312V93.6282H147.812V77.4282Z" fill="white"/>
<path d="M157.714 93.2285H149.914V77.7285H157.714V93.2285Z" fill="white"/>
<path d="M129.516 77.7285H137.316V93.1285H129.516V77.7285Z" fill="white"/>
<path d="M129.514 77.7284C132.114 77.6284 134.714 77.6284 137.314 77.6284H137.414V77.7284C137.414 80.3284 137.414 82.8284 137.414 85.4284C137.414 86.7284 137.414 88.0284 137.414 89.3284V93.2284V93.3284H137.314C134.714 93.3284 132.114 93.4284 129.514 93.4284H129.414V93.3284C129.414 90.7284 129.414 88.1284 129.414 85.5284L129.514 77.7284ZM129.514 77.8284L129.614 85.5284C129.614 88.1284 129.614 90.6284 129.614 93.2284L129.514 93.1284C132.114 93.1284 134.714 93.1284 137.314 93.2284L137.214 93.3284V89.4284C137.214 88.1284 137.214 86.8284 137.214 85.5284C137.214 82.9284 137.114 80.4284 137.214 77.8284L137.314 77.9284C134.714 77.8284 132.114 77.8284 129.514 77.8284Z" fill="#3F4449"/>
<path d="M113.415 80.5283H104.215V83.7283H113.415V80.5283Z" fill="white"/>
<path d="M104.213 83.7282C105.813 83.6282 107.313 83.6282 108.813 83.6282C110.313 83.6282 111.813 83.6282 113.313 83.7282C113.313 82.6282 113.313 81.6282 113.313 80.5282L113.413 80.6282C110.313 80.7282 107.313 80.7282 104.213 80.6282L104.313 80.5282L104.213 83.7282ZM104.213 83.7282C104.213 82.7282 104.113 81.6282 104.113 80.5282V80.4282H104.213C107.313 80.3282 110.313 80.4282 113.413 80.4282H113.513V80.5282C113.513 81.6282 113.513 82.6282 113.513 83.7282H113.413C111.913 83.7282 110.313 83.8282 108.813 83.8282C107.213 83.8282 105.713 83.7282 104.213 83.7282Z" fill="#3F4449"/>
<path d="M113.415 86.2285H104.215V89.4285H113.415V86.2285Z" fill="#027FF3"/>
<path d="M104.213 89.4284C105.813 89.3284 107.313 89.3284 108.813 89.3284C110.313 89.3284 111.813 89.3284 113.313 89.4284C113.313 88.3284 113.313 87.3284 113.313 86.2284L113.413 86.3284C110.313 86.4284 107.313 86.4284 104.213 86.3284L104.313 86.2284L104.213 89.4284ZM104.213 89.4284C104.213 88.4284 104.113 87.3284 104.113 86.2284V86.1284H104.213C107.313 86.0284 110.313 86.1284 113.413 86.1284H113.513V86.2284C113.513 87.3284 113.513 88.3284 113.513 89.4284H113.413C111.913 89.4284 110.313 89.5284 108.813 89.5284C107.213 89.5284 105.713 89.5284 104.213 89.4284Z" fill="#3F4449"/>
<path d="M113.415 92.0283H104.215V95.2283H113.415V92.0283Z" fill="white"/>
<path d="M104.213 95.1286C105.813 95.0286 107.313 95.0286 108.813 95.0286C110.313 95.0286 111.813 95.0286 113.313 95.1286C113.313 94.0286 113.313 93.0286 113.313 91.9286L113.413 92.0286C110.313 92.1286 107.313 92.1286 104.213 92.0286L104.313 91.9286L104.213 95.1286ZM104.213 95.1286C104.213 94.1286 104.113 93.0286 104.113 91.9286V91.8286H104.213C107.313 91.7286 110.313 91.8286 113.413 91.8286H113.513V91.9286C113.513 93.0286 113.513 94.0286 113.513 95.1286H113.413C111.913 95.1286 110.313 95.2286 108.813 95.2286C107.213 95.2286 105.713 95.2286 104.213 95.1286Z" fill="#3F4449"/>
<path d="M183.015 93.728C182.715 93.728 182.415 93.728 182.115 93.728C180.815 93.728 179.515 93.928 178.315 94.228C176.115 94.728 174.115 95.728 172.415 97.028C171.215 97.928 170.115 99.028 169.215 100.228L167.715 99.828C167.015 99.628 166.415 99.528 165.815 99.328C162.615 98.328 159.615 96.828 156.915 94.828C156.415 94.428 155.915 94.128 155.515 93.728L155.215 93.428L154.515 92.828C154.015 92.428 153.415 92.828 153.515 93.428C153.515 93.428 153.515 93.428 153.515 93.528C153.715 94.028 153.815 94.428 154.015 94.928C154.615 96.528 155.315 98.028 156.215 99.428C156.715 100.328 157.315 101.128 157.915 101.928C159.815 104.428 162.015 106.528 164.615 108.328L166.115 109.328V109.528C166.115 109.728 166.115 109.928 166.115 110.128C166.115 111.528 166.315 112.928 166.715 114.328C168.515 121.328 174.915 126.428 182.415 126.428C191.415 126.428 198.715 119.128 198.715 110.128C198.415 101.328 191.615 94.228 183.015 93.728Z" fill="white"/>
<path d="M183.013 93.8283C181.713 93.7283 180.313 93.8283 179.013 94.1283C177.713 94.4283 176.413 94.8283 175.213 95.3283C172.813 96.4283 170.713 98.1283 169.113 100.328H169.013C167.513 100.028 166.013 99.6283 164.613 99.1283C163.113 98.6283 161.713 98.0283 160.413 97.3283C159.013 96.6283 157.713 95.7283 156.513 94.8283C155.913 94.3283 155.313 93.9283 154.713 93.4283L154.313 93.0283C154.113 92.9283 154.013 92.8283 153.913 92.8283C153.613 92.8283 153.313 93.1283 153.413 93.4283C154.013 95.0283 154.613 96.6283 155.413 98.1283C155.813 98.9283 156.313 99.6283 156.713 100.328C157.213 101.028 157.613 101.828 158.213 102.428C159.313 103.728 160.413 105.028 161.713 106.128C163.013 107.328 164.413 108.228 165.813 109.228C165.713 112.428 166.513 115.628 168.213 118.328C169.813 121.028 172.313 123.228 175.213 124.628C178.113 125.928 181.313 126.428 184.513 125.928C186.113 125.728 187.613 125.228 189.013 124.528C190.413 123.828 191.813 122.928 192.913 121.928C193.513 121.428 194.013 120.828 194.513 120.228C195.013 119.628 195.513 119.028 195.913 118.328C196.713 117.028 197.413 115.528 197.713 113.928C197.913 113.128 198.013 112.328 198.113 111.628C198.113 110.828 198.213 110.028 198.213 109.228C198.213 107.628 197.913 106.028 197.313 104.628C196.313 101.628 194.313 98.9283 191.813 97.0283C190.513 96.1283 189.113 95.3283 187.613 94.7283C186.213 94.2283 184.613 93.9283 183.013 93.8283ZM183.013 93.7283C184.613 93.8283 186.213 94.1283 187.713 94.6283C189.213 95.1283 190.613 95.9283 191.913 96.9283C194.513 98.8283 196.513 101.528 197.613 104.528C198.213 106.028 198.513 107.628 198.513 109.228C198.613 110.028 198.513 110.828 198.513 111.628C198.413 112.428 198.313 113.228 198.113 114.028C197.713 115.628 197.113 117.128 196.213 118.428C195.813 119.128 195.313 119.728 194.813 120.428C194.313 121.028 193.713 121.628 193.113 122.128C191.913 123.228 190.613 124.128 189.113 124.828C187.713 125.528 186.113 126.028 184.513 126.228C181.313 126.728 178.013 126.228 175.113 124.828C172.213 123.428 169.713 121.228 168.113 118.428C166.513 115.728 165.613 112.428 165.813 109.228C164.413 108.228 163.013 107.228 161.713 106.128C160.413 105.028 159.213 103.728 158.113 102.428C157.513 101.728 157.113 101.028 156.613 100.328C156.113 99.6283 155.613 98.9283 155.213 98.1283C154.413 96.6283 153.713 95.0283 153.113 93.4283C153.013 93.0283 153.413 92.5283 153.813 92.5283C154.013 92.5283 154.213 92.7283 154.413 92.8283L154.813 93.2283C155.413 93.7283 156.013 94.2283 156.613 94.6283C157.813 95.5283 159.113 96.3283 160.413 97.1283C161.713 97.8283 163.113 98.4283 164.613 98.9283C166.013 99.4283 167.513 99.8283 169.013 100.128H168.913C170.513 98.0283 172.713 96.3283 175.113 95.2283C176.313 94.6283 177.613 94.2283 178.913 94.0283C180.413 93.7283 181.713 93.6283 183.013 93.7283Z" fill="#3F4449"/>
<path d="M188.612 111.628C188.312 111.928 188.112 112.328 188.212 112.828L189.012 117.728C189.212 118.828 188.112 119.628 187.112 119.128L182.712 116.828C182.312 116.628 181.912 116.628 181.512 116.828L177.112 119.128C176.112 119.628 175.012 118.828 175.212 117.728L175.812 114.128L176.012 112.728C176.112 112.328 175.912 111.828 175.612 111.528L173.412 109.328L172.112 108.028C171.312 107.228 171.712 105.928 172.812 105.728L177.712 105.028C177.912 105.028 178.112 104.928 178.312 104.828C178.512 104.728 178.612 104.528 178.712 104.328L180.912 99.828C181.312 99.028 182.412 98.828 183.012 99.428C183.112 99.528 183.212 99.628 183.312 99.828L185.512 104.328C185.712 104.728 186.112 105.028 186.512 105.028L191.412 105.728C192.512 105.928 192.912 107.228 192.112 108.028L188.612 111.628Z" fill="#027FF3"/>
<path d="M145.012 53.2282L143.613 54.5282L141.012 51.9282L139.413 50.3282L137.312 52.3282L136.312 48.6282L135.312 44.9282L139.113 45.9282L141.012 46.4282L142.812 46.9282L141.012 48.6282L140.812 48.9282L141.012 49.2282L145.012 53.2282Z" fill="white"/>
<path d="M145.012 53.2281L143.712 54.6281V54.7281L143.613 54.6281C142.213 53.2281 140.713 51.8281 139.312 50.4281H139.512L137.413 52.4281L137.312 52.5281V52.4281C137.013 51.2281 136.712 49.9281 136.312 48.7281L135.312 45.0281V44.8281H135.512C138.012 45.4281 140.512 46.1281 143.012 46.7281L143.212 46.8281L143.012 47.0281C142.312 47.7281 141.712 48.4281 141.012 49.0281V48.8281L145.012 53.2281ZM145.012 53.2281L140.712 49.0281L140.613 48.9281L140.712 48.8281C141.412 48.1281 142.012 47.4281 142.712 46.7281L142.812 46.9281C140.312 46.2281 137.813 45.6281 135.413 44.9281L135.512 44.8281L136.512 48.5281C136.812 49.7281 137.212 51.0281 137.512 52.2281H137.413L139.413 50.1281L139.512 50.0281L139.613 50.1281C141.013 51.5281 142.412 53.0281 143.812 54.4281H143.712L145.012 53.2281Z" fill="#3F4449"/>
<path d="M89.6156 150.028H60.0156V146.028C60.0156 142.628 62.7156 139.928 66.1156 139.928H74.1156V116.828H5.01562C2.81562 116.828 1.01562 115.028 1.01562 112.828V4.62842C1.01562 2.41928 2.80649 0.628418 5.01562 0.628418H89.6156V150.028Z" fill="white"/>
<path d="M74.1156 139.928H66.1156C62.7156 139.928 60.0156 142.628 60.0156 146.028V150.028H89.6156V0.628418H5.01563C2.80649 0.628418 1.01562 2.41928 1.01562 4.62842V112.828C1.01562 115.028 2.81562 116.828 5.01562 116.828H74.1156M74.1156 139.928V116.828M74.1156 139.928H89.6156M74.1156 116.828H89.6156" stroke="#C4C4C4" stroke-width="0.5" stroke-miterlimit="10" stroke-linejoin="round"/>
<path d="M11.7148 17.0287V100.529C11.7148 102.729 13.5148 104.529 15.7148 104.529H89.6148V112.129H8.71484C7.11484 112.129 5.71484 110.829 5.71484 109.129V9.42871C5.71484 7.22871 7.51484 5.42871 9.71484 5.42871H89.6148V13.0287H15.7148C13.5148 13.0287 11.7148 14.8287 11.7148 17.0287Z" fill="white" stroke="#C4C4C4" stroke-width="0.5" stroke-miterlimit="10" stroke-linejoin="round"/>
<path d="M89.6141 21.1284H15.9141C15.1141 21.1284 14.4141 21.5284 14.1141 22.2284C14.0141 22.5284 13.9141 22.8284 13.9141 23.1284V100.028C13.9141 101.128 14.8141 102.028 15.9141 102.028H89.6141V21.1284ZM82.5141 97.5284H17.8141V78.2284H82.5141V97.5284Z" fill="white" stroke="#C4C4C4" stroke-width="0.5" stroke-miterlimit="10" stroke-linejoin="round"/>
<path d="M82.5164 78.2285H17.8164V97.4285H82.5164V78.2285Z" fill="white" stroke="#C4C4C4" stroke-width="0.5" stroke-miterlimit="10" stroke-linejoin="round"/>
<path d="M82.5164 32.3284V73.8284H24.6164V67.1284H17.8164V25.6284H75.7164V32.3284H82.5164Z" fill="white" stroke="#C4C4C4" stroke-width="0.5" stroke-miterlimit="10" stroke-linejoin="round"/>
<path d="M75.7148 66.8281L78.7148 70.5281H28.2148L30.0148 67.1281L75.7148 66.8281Z" stroke="#C4C4C4" stroke-width="0.5" stroke-miterlimit="10" stroke-linejoin="round"/>
<path d="M24.6172 67.1281H30.0172L44.1172 40.4281L56.1172 61.0281L64.2172 52.4281L75.7172 66.6281V32.3281M58.5172 47.1281C55.8172 47.1281 53.6172 44.9281 53.6172 42.2281C53.6172 39.5281 55.8172 37.3281 58.5172 37.3281C61.2172 37.3281 63.4172 39.5281 63.4172 42.2281C63.4172 44.9281 61.2172 47.1281 58.5172 47.1281Z" stroke="#C4C4C4" stroke-width="0.5" stroke-miterlimit="10" stroke-linejoin="round"/>
</svg>
