<svg width="228" height="202" viewBox="0 0 228 202" fill="none" xmlns="http://www.w3.org/2000/svg">
<path d="M66.3511 197.491C70.9547 198.328 80.162 199.374 90.2064 199.793C97.5304 200.211 105.691 200.42 112.806 200.42C124.525 200.42 136.243 199.793 146.078 198.746C150.891 198.328 155.285 197.909 159.261 197.282C162.4 196.863 166.585 196.026 170.98 194.98C177.467 193.515 184.372 191.632 189.813 189.748C192.742 188.702 195.044 187.656 196.718 186.4C193.161 187.237 186.883 188.074 178.722 189.121C161.982 191.004 137.289 192.678 112.806 192.678C97.7396 192.678 82.8824 191.841 69.9084 190.585C52.1216 189.121 37.4736 187.028 30.7773 186.191C30.9866 186.609 32.4514 187.237 34.3347 188.283C38.1013 189.958 44.5883 192.259 51.7031 194.143C56.7252 195.607 61.7474 196.863 66.3511 197.491Z" fill="#E3E3E3"/>
<path d="M66.3501 197.49C77.2314 199.164 88.3221 199.792 99.2034 199.792C104.644 199.792 110.294 200.001 115.735 200.001C121.175 200.001 126.825 199.582 132.266 199.373C137.707 199.164 143.357 198.745 148.797 198.118L156.958 197.281L159.051 197.071C159.679 197.071 160.307 196.862 161.144 196.653L165.119 195.816C170.56 194.77 176.001 193.723 181.232 192.258C183.953 191.631 186.464 190.794 189.184 189.747C191.695 188.91 194.415 187.864 196.717 186.399L196.926 186.818C190.021 188.283 183.116 189.12 176.21 189.957C169.305 190.794 162.399 191.421 155.494 191.84C141.683 192.886 127.662 193.514 113.851 193.514C100.04 193.514 86.0202 192.886 72.2093 191.631C58.189 190.794 44.3781 188.91 30.7764 186.818L31.1949 186.19C31.6134 186.609 32.4504 187.027 33.0782 187.446C33.706 187.864 34.543 188.073 35.1708 188.492C36.6356 189.12 38.1004 189.747 39.5652 190.375C42.4948 191.421 45.4244 192.468 48.354 193.514C54.0039 194.979 60.0724 196.444 66.3501 197.49ZM66.3501 197.49C60.2816 196.444 54.0039 195.188 48.1447 193.514C45.2151 192.677 42.0762 191.84 39.1466 190.584C37.6818 189.957 36.217 189.538 34.7522 188.91C34.1245 188.701 33.2874 188.283 32.6597 187.864C32.0319 187.446 31.1949 187.236 30.5671 186.609C30.3578 186.399 30.3578 186.19 30.5671 185.981C30.5671 185.981 30.7764 185.771 30.9856 185.771C44.7966 187.655 58.6076 188.91 72.4185 190.166C86.2295 191.212 100.04 192.049 113.851 192.049C127.662 192.049 141.683 191.631 155.494 190.794C162.399 190.375 169.305 189.747 176.21 189.12C183.116 188.492 190.021 187.655 196.717 186.19C196.927 186.19 196.926 186.19 196.926 186.399V186.609C194.625 188.073 191.904 189.12 189.393 190.166C186.882 191.212 184.162 192.049 181.441 192.677C176.21 194.142 170.769 195.397 165.329 196.444L161.353 197.281C160.725 197.49 160.097 197.49 159.26 197.699L157.168 197.908L148.797 199.373C143.357 200.001 137.707 200.419 132.266 200.838C126.825 201.047 121.175 201.257 115.735 201.257C110.294 201.257 104.644 200.838 99.2034 200.629L90.8331 200.21C88.1128 200.001 85.3925 199.792 82.6721 199.582C77.2314 198.955 71.7907 198.536 66.3501 197.49Z" fill="#3F4449"/>
<path d="M10.06 180.959C12.5711 182.005 15.9192 183.051 20.3136 184.307C27.4283 186.19 36.6356 188.074 46.8892 189.748C49.8188 190.166 52.7484 190.585 55.678 191.212C74.5112 193.933 95.6461 195.188 112.596 195.188C129.127 195.188 151.518 194.77 170.979 192.049C176.21 191.212 181.232 190.375 185.836 189.538C192.741 188.283 198.81 186.818 203.623 185.353C210.11 183.679 214.713 182.005 215.969 181.377C216.387 181.168 216.806 180.959 217.225 180.75C217.643 180.54 218.271 180.122 218.689 179.913C219.317 179.494 219.945 179.076 220.782 178.657C221.2 178.238 221.828 178.029 222.247 177.611C224.549 175.727 226.432 173.635 226.432 171.333C226.432 169.24 224.13 166.729 221.619 165.055C220.782 164.428 219.736 163.8 218.899 163.172C218.689 162.963 218.48 162.963 218.271 162.753C218.062 162.544 217.852 162.544 217.643 162.335C217.434 162.126 217.015 162.126 216.806 161.916C216.597 161.916 216.387 161.707 216.178 161.707C213.876 160.661 208.854 158.987 201.949 157.313C196.927 156.057 190.649 154.802 183.953 153.546C179.349 152.709 174.536 152.081 169.514 151.244C150.471 148.733 129.337 148.105 112.596 148.105C95.4369 148.105 73.4649 148.942 54.004 151.663C50.8651 152.081 47.9355 152.5 45.0059 153.128C34.5431 155.011 25.1265 157.104 18.6395 158.778C14.4544 159.824 11.5248 160.87 9.85071 161.498C9.22294 161.707 8.80442 161.916 8.17665 162.126C7.75814 162.335 7.13037 162.544 6.71185 162.963C6.5026 162.963 6.29334 163.172 6.08408 163.381C5.87482 163.591 5.66557 163.59 5.45631 163.8C4.82854 164.218 3.99151 164.846 3.36374 165.474C1.48043 167.148 0.015625 169.031 0.015625 171.124C0.015625 173.426 1.89894 175.727 3.99151 177.611C4.41002 178.029 5.0378 178.448 5.45631 178.657C6.08408 179.076 6.71185 179.494 7.33962 179.913C8.38591 179.913 8.80442 180.331 9.22294 180.54C9.64145 180.75 9.85071 180.75 10.06 180.959Z" fill="#ECECEC"/>
<path d="M10.0577 180.75C14.6614 182.633 19.4743 183.679 24.2872 184.935C29.1001 185.981 33.9131 187.027 38.9352 187.864C48.7703 189.538 58.6054 191.003 68.4405 192.049C88.3199 193.933 108.199 194.561 128.079 194.142C138.123 193.933 147.958 193.514 157.793 192.677C162.815 192.259 167.628 191.84 172.651 191.003C177.463 190.166 182.486 189.538 187.299 188.492C196.924 186.19 206.969 184.516 215.967 180.75C218.269 179.703 220.361 178.448 222.244 176.983C224.128 175.518 226.011 173.635 226.22 171.124C226.22 170.077 225.802 168.822 224.965 167.985C224.128 166.939 223.291 166.311 222.454 165.474C220.57 164.009 218.478 162.544 216.176 161.707C211.782 159.824 206.759 158.568 202.156 157.522L187.717 154.592L184.16 153.965L180.184 153.337L172.86 152.291C168.047 151.454 163.025 151.035 158.212 150.617C138.542 148.942 118.662 148.524 98.992 148.942C79.3219 149.57 59.4424 150.826 39.9815 154.383C30.3557 156.266 20.5206 158.15 11.104 161.289C8.8022 162.126 6.50037 163.172 4.61706 164.846C2.73374 166.311 0.850428 168.194 0.431913 170.705C0.222656 173.216 1.89671 175.309 3.78003 176.983C5.8726 178.238 7.96517 179.703 10.0577 180.75ZM10.0577 180.959C7.75591 179.913 5.66334 178.448 3.78003 176.774C2.943 175.937 2.10597 175.1 1.26894 173.844C0.641171 172.798 0.222656 171.542 0.222656 170.287C0.431913 167.776 2.52448 165.683 4.4078 164.218C6.29111 162.544 8.59294 161.498 10.8948 160.661C20.5206 157.522 30.1464 155.429 39.9815 153.337C59.4424 149.57 79.3219 147.896 98.992 147.268C118.871 146.85 138.542 147.268 158.421 149.152C163.443 149.57 168.256 150.198 173.278 151.035L180.602 152.291L184.369 152.918L187.926 153.755L202.574 156.894C207.387 158.15 212.2 159.405 216.804 161.289C219.315 162.126 221.198 163.59 223.291 165.055C224.337 165.892 225.174 166.729 226.011 167.776C226.848 168.822 227.476 170.077 227.476 171.333C227.476 172.589 226.639 173.844 226.011 174.89C225.174 175.937 224.337 176.774 223.291 177.611C221.198 179.076 219.106 180.331 216.804 181.587C207.387 185.353 197.552 187.027 187.926 189.329C183.113 190.375 178.091 191.212 173.278 192.049C168.465 192.886 163.443 193.514 158.421 193.933C148.586 194.979 138.542 195.398 128.497 195.607C118.453 195.816 108.618 196.025 98.5735 195.607C88.5292 195.188 78.6941 194.561 68.859 193.305C59.0239 192.049 49.1888 190.585 39.3537 188.701C34.5408 187.655 29.5187 186.818 24.7057 185.562C19.4743 184.098 14.6614 182.842 10.0577 180.959Z" fill="#3F4449"/>
<path d="M203.62 170.497C203.41 161.499 152.352 153.966 112.802 153.966C59.4414 153.966 21.9844 162.755 21.9844 170.497C21.9844 174.054 29.5176 178.03 42.4916 181.588C40.8175 180.96 39.3527 179.704 39.3527 177.193C39.3527 174.473 40.8175 172.38 44.1656 170.706C45.0027 170.288 45.8397 169.869 46.886 169.451C60.2784 164.219 84.7615 160.662 112.802 160.662C121.8 160.662 130.17 161.081 137.704 161.708C166.163 164.219 184.786 170.706 187.088 177.403C187.297 179.077 186.46 180.332 184.577 180.96C196.086 177.821 203.62 174.054 203.62 170.497Z" fill="white"/>
<path d="M203.411 170.497C203.411 169.451 202.574 168.404 201.737 167.777C200.9 167.149 199.854 166.521 199.017 166.102C197.134 165.056 195.041 164.428 192.948 163.591C188.763 162.336 184.369 161.29 179.975 160.453C171.186 158.778 162.397 157.732 153.608 156.895C144.819 156.058 136.031 155.43 127.032 155.012C118.244 154.593 109.246 154.593 100.457 154.803C82.8792 155.221 65.3016 156.267 47.724 159.615C43.3296 160.453 39.1445 161.499 34.7501 162.754C32.6575 163.382 30.5649 164.219 28.4724 165.056C26.589 165.893 24.4965 166.939 23.0317 168.614C22.4039 169.451 21.9854 170.497 22.1946 171.334C22.6132 172.171 23.2409 173.008 24.078 173.845C25.752 175.101 27.6353 176.147 29.7279 177.193C33.7038 178.867 38.0982 180.332 42.2833 181.378V182.006C41.4463 181.587 40.6093 181.169 39.9815 180.541C39.3537 179.913 38.9352 178.867 38.726 178.03C38.5167 176.147 38.9352 174.263 40.1908 172.799C41.4463 171.334 42.9111 170.497 44.5852 169.869C46.2592 169.241 47.724 168.614 49.3981 167.986C55.885 165.893 62.5813 164.428 69.2775 163.173C82.67 161.08 96.2717 160.034 109.873 159.825C123.475 159.615 137.077 160.453 150.469 162.545C157.165 163.591 163.862 164.847 170.349 166.939C173.697 167.986 176.836 169.032 179.765 170.706C181.23 171.543 182.695 172.38 184.16 173.426C185.415 174.473 186.88 175.728 187.508 177.402C187.717 178.239 187.508 179.286 186.88 179.913C186.252 180.541 185.624 180.96 184.787 181.378V180.96C188.345 179.913 191.902 178.867 195.46 177.402C197.134 176.775 198.808 175.938 200.482 174.891C201.319 174.473 201.947 173.845 202.574 173.217C202.993 172.38 203.411 171.543 203.411 170.497ZM203.621 170.497C203.621 171.543 202.993 172.38 202.365 173.008C201.737 173.636 200.9 174.263 200.272 174.891C198.598 175.938 196.924 176.775 195.25 177.402C191.693 178.867 188.136 180.123 184.578 181.169C184.578 181.169 184.369 181.169 184.369 180.96C184.369 180.96 184.369 180.75 184.578 180.75C185.415 180.541 186.043 180.123 186.462 179.495C186.88 178.867 187.089 178.03 186.88 177.402C185.415 174.473 182.276 172.589 179.347 171.334C176.417 169.869 173.069 168.823 169.93 167.777C163.443 165.893 156.747 164.638 150.051 163.801C136.658 162.127 123.266 161.29 109.664 161.499C96.2717 161.708 82.8792 162.545 69.4868 164.638C62.7905 165.684 56.3036 167.149 49.8166 169.032C48.1425 169.66 46.6777 170.078 45.2129 170.706C43.7481 171.334 42.2833 172.171 41.237 173.426C40.1908 174.682 39.7722 176.147 39.9815 177.821C40.1908 179.286 41.2371 180.541 42.7019 181.169C42.9111 181.169 43.1204 181.587 42.9111 181.797C42.9111 182.006 42.4926 182.215 42.2833 182.006C38.0982 180.75 33.7038 179.495 29.7279 177.612C27.6353 176.775 25.752 175.728 23.8687 174.263C23.0317 173.426 22.1946 172.589 21.7761 171.543C21.3576 170.288 21.9854 169.032 22.6132 168.195C24.2872 166.521 26.1705 165.475 28.2631 164.638C30.3557 163.801 32.4482 162.964 34.5408 162.336C38.726 161.08 43.1204 160.034 47.5148 159.197C64.8831 155.849 82.67 154.384 100.457 153.756C109.246 153.547 118.244 153.338 127.032 153.756C135.821 154.175 144.819 154.803 153.608 155.849C162.397 156.895 171.186 158.151 179.975 160.034C184.369 161.08 188.554 161.917 192.948 163.382C195.041 164.01 197.134 164.847 199.017 165.893C200.063 166.312 200.9 166.939 201.737 167.777C202.784 168.404 203.621 169.451 203.621 170.497Z" fill="#3F4449"/>
<path d="M187.095 177.401C184.793 170.914 166.169 164.218 137.71 161.706C129.968 161.079 121.807 160.66 112.809 160.66C84.7682 160.66 60.2851 164.218 46.8926 169.449C45.8463 169.867 45.0093 170.286 44.1723 170.705C40.8242 172.379 39.3594 174.471 39.3594 177.191C39.3594 180.33 41.6612 181.377 43.7538 182.004C43.963 182.004 44.1723 182.214 44.5908 182.214C61.1221 187.236 81.4201 188.282 113.018 188.282C142.732 188.282 165.123 186.19 181.445 181.795C182.491 181.586 183.328 181.167 184.375 180.958C186.467 180.54 187.513 179.075 187.095 177.401Z" fill="white"/>
<path d="M187.092 177.401C185.837 174.472 182.698 172.798 179.977 171.333C177.048 169.868 174.118 168.822 170.979 167.985C164.702 166.101 158.424 165.055 152.146 164.009C139.382 162.335 126.408 161.498 113.643 161.498C100.669 161.498 87.6951 161.916 74.9304 163.59C68.4434 164.427 62.1657 165.683 55.888 167.148C52.7492 167.985 49.6103 169.031 46.6807 170.077L44.3789 171.124C43.7511 171.542 42.9141 171.961 42.4956 172.379C41.24 173.425 40.403 174.681 40.1937 176.146C39.9845 177.61 40.1937 179.285 41.24 180.122C42.2863 181.168 43.9604 181.586 45.4252 182.005C48.564 182.842 51.7029 183.679 54.8417 184.307C61.1194 185.562 67.6064 186.19 74.0934 186.609C86.8581 187.655 99.832 187.655 112.806 187.655C125.78 187.655 138.545 187.446 151.519 186.399C158.005 185.981 164.283 185.144 170.77 184.097C173.909 183.47 177.048 182.842 180.187 182.214C181.652 181.796 183.326 181.377 184.79 180.959C185.627 180.749 186.255 180.331 186.674 179.703C187.092 179.075 187.092 178.238 187.092 177.401ZM187.092 177.401C187.301 178.238 187.092 179.075 186.674 179.703C186.255 180.331 185.418 180.749 184.581 181.168C183.116 181.586 181.442 182.005 179.977 182.423C176.839 183.26 173.7 183.888 170.561 184.516C164.283 185.772 157.796 186.609 151.309 187.446C138.335 188.91 125.361 189.329 112.597 189.329C99.6228 189.329 86.6488 189.12 73.6749 188.073C67.1879 187.655 60.7009 186.609 54.4232 185.353C51.2844 184.725 48.1455 183.888 45.0066 183.051C43.5418 182.633 41.8678 182.214 40.403 180.959C38.9382 179.703 38.7289 177.61 39.1474 176.146C39.3567 174.472 40.6122 173.007 41.8678 171.961C42.4956 171.542 43.3326 171.124 43.9604 170.705L46.2622 169.868C49.401 168.612 52.3306 167.775 55.4695 166.938C61.7472 165.264 68.2342 164.218 74.5119 163.381C87.2766 161.707 100.251 160.661 113.224 160.661C126.198 160.661 139.172 161.498 151.937 163.59C158.424 164.637 164.702 166.101 170.77 167.985C173.909 169.031 176.839 170.077 179.768 171.542C182.698 172.588 185.837 174.262 187.092 177.401Z" fill="#3F4449"/>
<path d="M39.9835 59.1719C38.5187 62.1015 38.9372 64.6126 42.4946 68.17C45.6335 71.3089 50.2371 74.8662 56.0963 78.2143C61.3277 81.3532 67.1869 84.4921 73.4647 87.2124C88.9497 94.1179 104.016 100.186 118.246 104.999C125.779 107.51 133.521 110.021 141.682 112.323C146.286 113.579 150.89 114.834 155.493 116.09C158.423 116.927 161.562 117.555 164.701 118.182C171.606 119.647 178.721 121.112 185.836 122.158C190.858 122.995 195.671 123.414 199.856 123.414C203.413 123.414 206.761 123.414 209.273 122.786C213.876 121.949 216.387 120.275 216.387 117.555C216.387 111.695 217.224 108.766 216.387 104.79C213.458 103.953 210.319 102.907 206.552 101.651C204.46 100.814 201.949 99.9771 199.228 99.1401C196.089 98.0938 192.532 96.629 188.347 95.1642C183.325 93.2809 177.675 90.3513 171.606 88.0494C168.886 87.0031 166.166 85.9569 163.445 84.9106C159.26 83.2365 154.866 81.5625 150.471 79.8884C142.938 76.9588 135.196 74.657 128.29 71.9366C115.316 66.7052 99.4125 62.5201 87.2756 59.7997C82.2535 58.7534 75.1387 57.7071 68.4425 56.8701C61.1185 56.0331 54.0037 55.6146 49.8186 55.8238C44.7964 56.0331 43.3316 56.0331 42.0761 56.0331C41.2391 57.4979 40.402 58.1257 39.9835 59.1719Z" fill="#ECECEC"/>
<path d="M39.9838 59.174C39.5653 60.2203 39.1468 61.2666 39.1468 62.3129C39.1468 63.3592 39.5653 64.4054 40.193 65.4517C41.2393 67.335 42.9134 68.7998 44.5874 70.2646C47.9356 73.1942 51.4929 75.4961 55.2596 77.7979C62.7928 82.4016 70.7446 86.1682 78.9056 89.307C87.0666 92.6552 95.0184 96.0033 103.389 99.1421C107.574 100.816 111.55 102.281 115.735 103.746C119.92 105.211 124.105 106.466 128.29 107.722L140.846 111.698C145.031 112.953 149.216 113.999 153.61 115.255C155.703 115.883 157.796 116.301 159.888 116.929C161.981 117.347 164.073 117.975 166.375 118.394L179.349 120.905L185.836 122.16C187.929 122.579 190.23 122.788 192.323 122.997C196.717 123.416 201.112 123.625 205.506 123.416C207.599 123.207 209.901 122.997 211.993 122.37C213.876 121.742 216.178 120.486 216.388 118.603C216.388 116.51 216.388 114.209 216.597 112.116C216.806 110.023 216.806 107.722 216.388 105.629L216.806 106.048C213.249 104.792 209.482 103.746 205.925 102.699C202.367 101.444 198.81 100.188 195.253 98.9329C191.695 97.6773 188.138 96.4218 184.58 94.957C181.023 93.4922 177.675 91.8181 174.118 90.3533L152.983 82.1923C145.868 79.2627 138.753 77.1701 131.638 74.4498C117.618 68.7998 102.97 64.6147 88.3222 61.0573C80.9982 59.3833 73.4649 58.337 65.9317 57.5C62.165 57.0814 58.3984 56.8722 54.6318 56.6629C50.8652 56.4537 47.0985 56.8722 43.3319 56.8722C41.6578 57.2907 40.6116 58.1277 39.9838 59.174ZM39.9838 59.174C40.6116 57.9185 41.4486 57.2907 42.2856 56.2444C46.0522 56.2444 49.8189 55.8259 53.5855 56.0352C57.3521 56.0352 61.1188 56.4537 64.8854 56.6629C72.4186 57.2907 79.9519 58.1277 87.4851 59.5925C102.342 62.7314 117.2 66.7073 131.22 72.3572C138.335 75.0776 145.659 77.1701 152.564 80.0997L174.118 88.47C177.675 89.9348 181.023 91.6089 184.58 93.0737C187.929 94.5385 191.695 95.794 195.043 97.2588C198.601 98.7236 202.158 99.9791 205.715 101.235C209.273 102.49 212.83 103.537 216.388 104.792C216.597 104.792 216.597 105.001 216.806 105.211C217.225 107.512 217.225 109.605 217.015 111.907C216.806 114.209 216.806 116.301 216.597 118.394C216.388 119.649 215.76 120.696 214.713 121.323C213.876 121.951 212.621 122.37 211.575 122.788C209.482 123.416 207.18 123.625 205.088 123.834C200.693 124.044 196.299 123.834 191.904 123.416C189.812 123.207 187.51 122.788 185.417 122.579L178.931 121.323L165.957 119.022C163.864 118.603 161.771 118.185 159.47 117.557C157.377 117.138 155.284 116.51 152.983 116.092C148.797 115.046 144.403 113.999 140.218 112.744L127.663 108.977C110.713 104.164 94.3906 97.4681 78.4871 90.3533C70.5353 86.796 62.5836 83.0293 55.0503 78.2164C51.2837 75.9146 47.7263 73.4035 44.3782 70.4739C42.7041 69.0091 41.0301 67.5443 39.9838 65.661C39.356 64.6147 38.9375 63.5684 38.9375 62.5221C39.1468 61.2666 39.356 60.011 39.9838 59.174Z" fill="#3F4449"/>
<path d="M154.729 3.61276C154.329 4.11276 154.029 4.71276 153.829 5.21276C153.629 5.61276 153.529 6.01276 153.429 6.41276C153.329 6.71276 153.329 6.91276 153.329 7.21276C153.229 7.91276 153.229 8.61276 153.329 9.31276C153.529 10.6128 154.029 11.7128 154.729 12.7128C154.929 13.0128 155.229 13.3128 155.429 13.6128C155.629 13.8128 155.829 14.0128 156.029 14.2128C156.129 14.3128 156.129 14.3128 156.229 14.4128C156.329 14.5128 156.429 14.5128 156.529 14.6128C156.829 14.8128 157.229 15.0128 157.629 15.2128C158.429 15.6128 159.229 15.8128 160.129 15.9128C160.729 16.0128 161.329 16.0128 161.929 15.9128C162.729 15.8128 163.629 15.5128 164.329 15.1128C164.929 14.8128 165.529 14.4128 166.029 13.9128C166.329 13.6128 166.729 13.2128 166.929 12.9128C167.029 12.8128 167.029 12.7128 167.129 12.7128C167.329 12.5128 167.429 12.2128 167.629 12.0128C167.829 11.7128 167.929 11.3128 168.129 11.0128C168.529 9.91276 168.729 8.61276 168.529 7.31276C168.429 6.61276 168.229 5.91276 167.929 5.31276C167.829 5.11276 167.729 4.81276 167.629 4.61276C167.429 4.21276 167.229 3.91276 166.929 3.61276C166.529 3.11276 166.029 2.71276 165.529 2.31276C165.129 2.01276 164.729 1.81276 164.329 1.61276C163.729 1.31276 163.029 1.11276 162.329 0.912756C161.529 0.712756 160.629 0.712756 159.829 0.812756C159.229 0.912756 158.629 1.01276 158.029 1.31276C157.229 1.61276 156.429 2.11276 155.829 2.61276C155.529 2.91276 155.229 3.21276 154.929 3.51276C154.929 3.41276 154.829 3.51276 154.729 3.61276Z" fill="#001036"/>
<path d="M154.73 3.6127C153.53 5.2127 153.03 7.3127 153.33 9.3127C153.43 10.3127 153.83 11.2127 154.33 12.1127C154.83 13.0127 155.53 13.7127 156.33 14.3127C157.93 15.5127 159.93 16.0127 161.93 15.7127C163.93 15.4127 165.73 14.3127 166.93 12.8127C167.53 12.0127 167.93 11.1127 168.23 10.2127C168.53 9.2127 168.53 8.2127 168.43 7.3127C168.13 5.3127 167.13 3.5127 165.53 2.3127C163.93 1.1127 161.93 0.512695 159.93 0.812695C157.83 0.912695 156.03 2.0127 154.73 3.6127ZM154.73 3.6127C155.93 2.0127 157.73 0.912695 159.73 0.612695C161.73 0.312695 163.83 0.812695 165.43 2.1127C167.03 3.3127 168.13 5.2127 168.43 7.2127C168.53 8.2127 168.53 9.2127 168.23 10.2127C167.93 11.2127 167.53 12.1127 166.93 12.9127C165.73 14.5127 163.83 15.6127 161.83 15.9127C159.83 16.2127 157.73 15.6127 156.13 14.4127C155.33 13.8127 154.63 13.0127 154.13 12.1127C153.63 11.2127 153.33 10.3127 153.13 9.3127C153.03 7.3127 153.53 5.2127 154.73 3.6127Z" fill="#3F4449"/>
<path d="M161.136 182.043L166.298 58.802C166.427 56.3501 163.846 54.8015 161.653 55.8339L81.5137 97.0003C80.4813 97.5165 79.836 98.5489 79.836 99.5813L75.4484 159.976C75.3193 161.524 76.3517 162.815 77.7713 163.202L157.136 184.753C159.201 185.527 161.136 184.108 161.136 182.043Z" fill="#027FF3"/>
<path d="M161.138 182.043L165.009 88.096L165.912 64.6092L166.17 58.802C166.17 57.8987 165.783 56.8663 165.009 56.3501C164.235 55.8339 163.202 55.5758 162.299 55.8339C158.815 57.5115 155.33 59.4473 151.846 61.1249L110.034 82.6759L89.1286 93.387L83.8376 96.097C82.9343 96.6132 82.031 97.0003 81.2567 97.3874C80.4824 97.9036 79.9662 98.807 79.9662 99.7103L79.0629 111.454L75.5786 158.298L75.4495 159.718C75.4495 160.234 75.4495 160.621 75.5786 161.137C75.8367 162.041 76.6109 162.815 77.5143 163.073L83.1924 164.622L94.5487 167.719L117.261 173.913L139.974 180.107L151.33 183.205L157.008 184.753C157.911 185.011 158.944 184.882 159.847 184.366C160.621 183.979 161.138 183.076 161.138 182.043ZM161.138 182.043C161.138 183.076 160.621 183.979 159.718 184.495C158.944 185.011 157.782 185.14 156.879 184.882L151.201 183.334L139.845 180.236L117.132 174.042L94.4196 167.848L83.0634 164.751L77.3852 163.202C76.4819 162.815 75.7076 162.041 75.3205 161.137C75.1914 160.621 75.1914 160.105 75.1914 159.589L75.3205 158.169L78.6757 111.196L79.45 99.4522C79.45 98.4198 80.0952 97.3874 80.8695 96.8713C81.7729 96.3551 82.6762 95.9679 83.4505 95.4517L88.6124 92.7417L109.518 82.0307L151.717 60.8668C155.201 59.0601 158.686 57.2534 162.17 55.5758C163.202 55.3177 164.235 55.4468 165.009 56.092C165.783 56.7372 166.3 57.7696 166.3 58.673L166.041 64.6092L165.009 88.096L161.138 182.043Z" fill="#3F4449"/>
<path d="M162.17 55.9626C166.3 54.9302 170.816 58.8016 170.816 62.415L165.912 178.558C165.783 181.785 161.009 185.14 158.04 185.14L156.75 184.495L157.782 184.882L162.17 55.9626Z" fill="#027FF3"/>
<path d="M162.17 55.9626C165.009 55.3174 168.106 56.866 169.655 59.1888C170.042 59.8341 170.429 60.4793 170.558 61.1246C170.816 61.7698 170.687 62.5441 170.687 63.3184L170.558 67.706L169.913 85.1275L168.494 119.971L167.074 154.814L166.429 172.235L166.3 176.623L166.171 178.817C166.171 179.591 165.784 180.236 165.396 180.881C164.622 182.172 163.461 183.204 162.299 183.979C161.009 184.753 159.718 185.398 158.17 185.398C158.17 185.398 158.17 185.398 158.041 185.398L156.75 184.753C156.621 184.753 156.621 184.624 156.621 184.495C156.621 184.366 156.75 184.366 156.879 184.366L157.912 184.753L157.653 184.882L162.17 55.9626ZM162.17 55.9626L158.041 184.882C158.041 185.011 157.912 185.011 157.912 185.011L156.879 184.624L157.008 184.237L158.299 184.882H158.17C159.589 184.882 160.88 184.237 162.17 183.462C163.332 182.688 164.493 181.656 165.138 180.494C165.525 179.849 165.784 179.204 165.784 178.559L165.913 176.365L166.042 171.977L166.816 154.556L168.364 119.712L169.913 84.8695L170.687 67.4479L170.816 63.0603C170.816 62.286 170.945 61.6408 170.687 60.8665C170.429 60.2212 170.171 59.4469 169.784 58.9307C168.106 56.866 165.009 55.3174 162.17 55.9626Z" fill="#3F4449"/>
<path d="M155.074 180.364L77.1289 159.587L81.5166 99.0636L161.656 59.0586L155.074 180.364Z" fill="white"/>
<path d="M155.073 180.366L77.1277 159.589C77.1277 159.589 76.9986 159.589 77.1277 159.46L81.5153 98.9363C81.5153 98.9363 81.5153 98.8072 81.6444 98.8072L161.654 58.8022H161.783L155.073 180.366ZM155.073 180.366L161.525 58.9313L161.654 59.0603L81.6444 99.0653L81.7734 98.9363L77.2567 159.46V159.331L155.073 180.366Z" fill="#3F4449"/>
<path d="M155.072 180.364L78.6758 160.232L83.0634 99.5797L161.525 60.478L155.072 180.364Z" fill="white"/>
<path d="M155.071 180.365L78.6745 160.234C78.6745 160.234 78.5455 160.234 78.6745 160.105L83.0622 99.5809C83.0622 99.5809 83.0622 99.4519 83.1912 99.4519L161.653 60.2212H161.782L155.071 180.365ZM155.071 180.365L161.395 60.3502L161.524 60.4793L83.0622 99.71L83.1912 99.5809L78.6745 160.105V159.976L155.071 180.365Z" fill="#3F4449"/>
<path d="M158.686 66.1572L114.551 88.4826L110.68 165.266L152.362 176.235L158.686 66.1572Z" fill="#CCCCCC"/>
<path d="M158.686 66.1572L114.68 88.6116L110.938 165.395L110.809 165.266L152.491 176.235L152.362 176.364L158.686 66.1572ZM158.686 66.1572L152.491 176.235C152.491 176.364 152.362 176.364 152.362 176.364L110.68 165.395C110.551 165.395 110.551 165.266 110.551 165.266L114.551 88.4826L158.686 66.1572Z" fill="#3F4449"/>
<path d="M161.524 60.4795L161.137 68.2224L82.8047 103.582L83.0628 99.5811L161.524 60.4795Z" fill="white"/>
<path d="M161.524 60.481L161.137 68.2239L82.805 103.712C82.6759 103.712 82.5469 103.712 82.5469 103.583C82.5469 103.583 82.5469 103.583 82.5469 103.454L82.805 99.4535C82.805 99.4535 82.805 99.3245 82.934 99.3245L161.524 60.481ZM161.524 60.481L83.1921 99.8407L83.3212 99.7116L83.0631 103.712L82.805 103.583L161.266 68.3529L161.524 60.481Z" fill="#3F4449"/>
<path d="M157.523 63.4473V68.7382L125.777 83.3207V79.3202L157.523 63.4473Z" fill="white"/>
<path d="M157.524 63.4473V68.6092L125.778 83.3207C125.649 83.3207 125.52 83.3207 125.52 83.1917C125.52 83.1917 125.52 83.1917 125.52 83.0626V79.0621C125.52 78.9331 125.52 78.9331 125.649 78.9331L157.524 63.4473ZM157.524 63.4473L125.778 79.4492L125.907 79.3202V83.3207L125.649 83.1917L157.524 68.7382V63.4473Z" fill="#3F4449"/>
<path d="M116.102 126.681L150.299 124.229L150.17 124.358V123.841L150.428 124.1C139.072 124.874 127.587 125.648 116.231 126.293L116.102 126.681ZM116.102 126.681V126.293C127.458 125.39 138.943 124.616 150.299 123.712C150.428 123.712 150.428 123.841 150.557 123.841V124.358C150.557 124.487 150.428 124.487 150.428 124.487L116.102 126.681Z" fill="#3F4449"/>
<path d="M115.715 133.779L149.655 133.521L149.526 133.65V133.134L149.655 133.392C138.298 133.392 126.942 133.521 115.715 133.392V133.779ZM115.715 133.779V133.392C127.071 133.134 138.427 133.134 149.655 133.005C149.784 133.005 149.784 133.134 149.784 133.134V133.65C149.784 133.779 149.655 133.779 149.655 133.779H115.715Z" fill="#3F4449"/>
<path d="M115.973 129.52L150.041 127.972L149.912 128.101V127.585L150.041 127.843C138.685 128.23 127.329 128.875 115.973 129.133V129.52ZM115.973 129.52V129.133C127.329 128.488 138.685 127.972 150.041 127.456C150.17 127.456 150.17 127.585 150.17 127.585V128.101C150.17 128.23 150.041 128.23 150.041 128.23L115.973 129.52Z" fill="#3F4449"/>
<path d="M140.492 126.939L150.171 126.294L150.042 126.423V125.907L150.171 126.165L140.492 126.552V126.939ZM140.492 126.939V126.423L150.171 125.648C150.3 125.648 150.3 125.777 150.3 125.777V126.294C150.3 126.423 150.171 126.423 150.171 126.423L140.492 126.939Z" fill="#3F4449"/>
<path d="M147.074 132.357C147.978 132.357 148.881 132.228 149.784 132.228L149.655 132.357V131.841L149.784 132.099L147.074 131.97V132.357ZM147.074 132.357V131.841L149.784 131.583C149.913 131.583 149.913 131.712 149.913 131.712L149.784 132.228C149.784 132.357 149.655 132.357 149.655 132.357H147.074Z" fill="#3F4449"/>
<path d="M130.688 132.486C135.849 132.357 140.882 132.228 145.915 132.099L145.786 132.228V131.712L145.915 131.97C140.882 131.97 135.849 132.099 130.688 132.099V132.486ZM130.688 132.486V131.97C135.72 131.712 140.753 131.712 145.915 131.583C146.044 131.583 146.044 131.712 146.044 131.712V132.228C146.044 132.357 145.915 132.357 145.915 132.357C140.882 132.486 135.72 132.486 130.688 132.486Z" fill="#3F4449"/>
<path d="M115.715 134.94L149.655 135.069L149.526 135.198V134.682L149.655 134.94C138.298 134.811 127.071 134.811 115.715 134.552V134.94ZM115.715 134.94V134.552C127.071 134.423 138.298 134.552 149.655 134.552C149.784 134.552 149.784 134.682 149.784 134.682V135.198C149.784 135.327 149.655 135.327 149.655 135.327L115.715 134.94Z" fill="#3F4449"/>
<path d="M115.328 141.908L149.01 144.231L148.881 144.36V143.843L149.01 144.101C137.783 143.198 126.555 142.553 115.328 141.521V141.908ZM115.328 141.908V141.521C126.555 142.166 137.783 142.94 149.01 143.714C149.139 143.714 149.139 143.843 149.139 143.843V144.36C149.139 144.489 149.01 144.489 149.01 144.489L115.328 141.908Z" fill="#3F4449"/>
<path d="M115.586 137.65L149.397 138.682L149.268 138.811V138.295L149.397 138.553C138.169 138.166 126.813 137.908 115.586 137.392V137.65ZM115.586 137.65V137.263C126.813 137.392 138.169 137.779 149.397 138.166C149.526 138.166 149.526 138.295 149.526 138.295V138.811C149.526 138.94 149.397 138.94 149.397 138.94L115.586 137.65Z" fill="#3F4449"/>
<path d="M139.848 137.005H149.526L149.397 137.134V136.618L149.526 136.876L139.848 136.489V137.005ZM139.848 137.005V136.489H149.526C149.655 136.489 149.655 136.618 149.655 136.618V137.134C149.655 137.263 149.526 137.263 149.526 137.263L139.848 137.005Z" fill="#3F4449"/>
<path d="M146.43 142.812H149.14L149.011 142.941V142.425L149.14 142.683L146.43 142.425V142.812ZM146.43 142.812V142.296H149.14C149.269 142.296 149.269 142.425 149.269 142.425L149.14 142.941C149.14 143.07 149.011 143.07 149.011 143.07L146.43 142.812Z" fill="#3F4449"/>
<path d="M155.587 74.5454L116.615 91.5798L115.324 121.906L153.006 117.906L155.587 74.5454Z" fill="white"/>
<path d="M155.587 74.5454L116.744 91.7088L116.873 91.5798L115.582 121.906L115.324 121.777L153.006 117.777L152.877 117.906L155.587 74.5454ZM155.587 74.5454L153.136 117.906C153.136 117.906 153.136 118.035 153.006 118.035L115.324 122.035C115.195 122.035 115.195 122.035 115.195 121.906L116.615 91.5798C116.615 91.5798 116.615 91.4507 116.744 91.4507L155.587 74.5454Z" fill="#3F4449"/>
<path d="M112.742 124.745L155.457 120.616L155.328 120.874V120.487L155.586 120.616C141.262 121.906 127.067 123.197 112.742 124.358V124.745ZM112.742 124.745V124.358C126.938 122.939 141.262 121.648 155.457 120.229C155.586 120.229 155.586 120.229 155.715 120.358V120.745C155.715 120.874 155.715 120.874 155.586 121.003L112.742 124.745Z" fill="#3F4449"/>
<path d="M137.263 147.587L123.841 146.296C122.164 146.167 120.615 147.458 120.615 149.136C120.486 150.684 121.648 151.975 123.067 152.233L136.488 154.556C138.166 154.814 139.843 153.652 139.973 151.846L140.102 150.684C140.102 149.136 138.94 147.716 137.263 147.587Z" fill="#027FF3"/>
<path d="M137.263 147.586L125.519 146.554L124.1 146.425C123.584 146.425 123.197 146.425 122.68 146.554C121.777 146.812 121.003 147.586 120.745 148.49C120.487 149.393 120.745 150.425 121.261 151.07C121.519 151.458 121.906 151.716 122.422 151.845C122.809 151.974 123.326 152.103 123.842 152.103L135.456 154.297C135.972 154.426 136.36 154.555 136.876 154.555C137.392 154.555 137.779 154.426 138.295 154.297C139.199 153.91 139.844 153.006 139.844 152.103C139.844 151.587 139.973 151.07 139.973 150.683C139.973 150.167 139.844 149.651 139.586 149.264C139.199 148.231 138.295 147.715 137.263 147.586ZM137.263 147.586C138.295 147.715 139.199 148.231 139.586 149.135C139.844 149.522 139.973 150.038 139.973 150.554C139.973 151.07 139.973 151.587 139.844 151.974C139.715 153.006 139.07 153.91 138.166 154.297C137.779 154.555 137.263 154.684 136.747 154.684C136.23 154.684 135.714 154.555 135.327 154.426L123.713 152.49C123.197 152.361 122.68 152.361 122.293 152.103C121.777 151.845 121.39 151.587 121.003 151.2C120.358 150.425 120.099 149.264 120.487 148.231C120.745 147.199 121.648 146.425 122.551 146.167C123.068 146.038 123.584 146.038 124.1 146.038L125.519 146.167L137.263 147.586Z" fill="#3F4449"/>
<g opacity="0.59">
<path opacity="0.59" d="M155.458 74.6748L116.615 91.7092L115.195 122.036L152.877 118.035L155.458 74.6748Z" fill="white"/>
<path opacity="0.59" d="M155.458 74.6748L116.615 91.7092L115.195 122.036L152.877 118.035L155.458 74.6748Z" stroke="#3F4449" stroke-width="0.2835" stroke-miterlimit="10" stroke-linejoin="round"/>
</g>
<path d="M163.074 173.266C163.074 173.782 163.461 174.299 163.848 174.299C164.365 174.299 164.752 173.911 164.752 173.266C164.752 172.75 164.365 172.234 163.978 172.234C163.461 172.234 163.074 172.75 163.074 173.266Z" fill="white"/>
<path d="M163.074 173.268C163.074 173.784 163.461 174.3 163.848 174.3C164.236 174.3 164.494 173.784 164.494 173.397C164.494 173.01 164.365 172.494 163.848 172.365C163.461 172.365 163.074 172.881 163.074 173.268ZM163.074 173.268C163.074 172.752 163.332 172.235 163.978 172.106C164.623 172.106 165.01 172.752 165.01 173.268C165.01 173.784 164.623 174.429 163.978 174.429C163.332 174.429 163.074 173.784 163.074 173.268Z" fill="#3F4449"/>
<path d="M163.59 165.781C163.59 166.298 163.977 166.814 164.364 166.814C164.88 166.814 165.267 166.427 165.267 165.781C165.267 165.265 164.88 164.749 164.493 164.749C163.977 164.749 163.59 165.265 163.59 165.781Z" fill="white"/>
<path d="M163.59 165.783C163.59 166.299 163.977 166.815 164.364 166.815C164.751 166.815 165.009 166.299 165.009 165.912C165.009 165.524 164.88 165.008 164.364 164.879C163.977 164.75 163.59 165.266 163.59 165.783ZM163.59 165.783C163.59 165.266 163.848 164.75 164.493 164.621C165.138 164.621 165.526 165.266 165.526 165.783C165.526 166.299 165.138 166.944 164.493 166.944C163.848 166.815 163.59 166.299 163.59 165.783Z" fill="#3F4449"/>
<path d="M112.583 90.1375L108.051 167.821L108.437 167.844L112.97 90.16L112.583 90.1375Z" fill="white"/>
<path d="M108.356 167.848L112.744 90.1608L112.873 90.2898H112.486L112.615 90.1608L107.84 167.848H108.356ZM108.356 167.848H107.969L112.357 90.1608C112.357 90.0317 112.486 90.0317 112.486 90.0317H112.873C113.002 90.0317 113.002 90.1608 113.002 90.1608L108.356 167.848Z" fill="#3F4449"/>
<path d="M109.647 123.583L110.163 124.228L107.97 163.201L107.195 163.717L109.647 123.583Z" fill="white"/>
<path d="M109.648 123.584L110.035 124.229C109.518 137.263 108.744 150.168 108.099 163.202C108.099 163.202 108.099 163.331 107.97 163.331L107.196 163.847C107.067 163.847 106.938 163.847 106.938 163.847V163.718L109.648 123.584ZM109.648 123.584L107.454 163.718L107.196 163.589L107.97 163.073L107.841 163.202C108.615 150.168 109.26 137.263 110.035 124.229L109.648 123.584Z" fill="#3F4449"/>
<path d="M107.195 163.717L79.1914 157.652L80.869 127.067L109.647 123.583L107.195 163.717Z" fill="white"/>
<path d="M107.195 163.717L79.1916 157.781C79.1916 157.781 79.0625 157.781 79.0625 157.652L80.7401 127.067C80.7401 126.938 80.8692 126.938 80.8692 126.938L109.647 123.454C109.776 123.454 109.776 123.454 109.776 123.583L107.195 163.717ZM107.195 163.717L109.518 123.583L109.647 123.712L80.8692 127.326L80.9982 127.196L79.1916 157.781L79.0625 157.652L107.195 163.717Z" fill="#3F4449"/>
<path d="M94.8047 145.003L106.935 145.778L107.71 132.615L95.579 133.131L94.8047 145.003Z" fill="white"/>
<path d="M94.8047 145.005C98.9342 145.263 102.935 145.392 106.935 145.65L106.806 145.779L107.58 132.616L107.71 132.745L95.579 133.262L95.708 133.133C95.4499 137.133 95.0628 141.004 94.8047 145.005ZM94.8047 145.005C95.0628 141.134 95.1918 137.133 95.4499 133.133C95.4499 133.133 95.4499 133.003 95.579 133.003L107.71 132.487C107.839 132.487 107.839 132.616 107.839 132.616L106.935 145.779C106.935 145.908 106.935 145.908 106.806 145.908C102.806 145.65 98.8052 145.392 94.8047 145.005Z" fill="#3F4449"/>
<path d="M80.8672 144.231L92.9977 144.876L93.772 133.262L81.6415 133.778L80.8672 144.231Z" fill="white"/>
<path d="M80.8672 144.232C84.9967 144.49 88.9972 144.619 92.9977 144.877L92.8687 145.006L93.643 133.262L93.772 133.392L81.6415 133.908L81.7705 133.779C81.5124 137.134 81.1253 140.618 80.8672 144.232ZM80.8672 144.232C81.1253 140.747 81.2543 137.263 81.5124 133.779C81.5124 133.779 81.5124 133.65 81.6415 133.65L93.772 133.004C93.9011 133.004 93.9011 133.133 93.9011 133.133L93.1268 144.877C93.1268 145.006 93.1268 145.006 92.9977 145.006C88.8682 144.748 84.8677 144.49 80.8672 144.232Z" fill="#3F4449"/>
<path d="M93.9023 159.458L105.904 161.652L106.807 148.489L94.6766 147.457L93.9023 159.458Z" fill="white"/>
<path d="M93.9023 159.458C98.0319 160.232 102.032 160.878 106.033 161.652L105.904 161.781L106.678 148.618L106.807 148.747L94.6766 147.715L94.8057 147.586C94.5476 151.457 94.1604 155.328 93.9023 159.458ZM93.9023 159.458C94.1604 155.587 94.2895 151.586 94.5476 147.586C94.5476 147.457 94.5476 147.457 94.6766 147.457L106.807 148.36C106.936 148.36 106.936 148.489 106.936 148.489L106.033 161.652C106.033 161.781 106.033 161.781 105.904 161.781C101.903 161.007 97.7738 160.232 93.9023 159.458Z" fill="#3F4449"/>
<path d="M79.9648 156.748L91.9663 159.071L92.7406 147.327L80.7391 146.295L79.9648 156.748Z" fill="white"/>
<path d="M79.9648 156.748C84.0944 157.522 88.0949 158.167 92.0954 158.941L91.9663 159.07L92.7406 147.327L92.8697 147.456L80.7391 146.424V146.295C80.6101 149.779 80.2229 153.263 79.9648 156.748ZM79.9648 156.748C80.2229 153.263 80.352 149.779 80.6101 146.295C80.6101 146.295 80.6101 146.166 80.7391 146.166L92.8697 147.069C92.9987 147.069 92.9987 147.198 92.9987 147.198L92.2244 158.941C92.2244 159.07 92.2244 159.07 92.0954 159.07C87.9658 158.425 83.9653 157.522 79.9648 156.748Z" fill="#3F4449"/>
<path d="M84.7422 156.748L91.1946 157.909L91.3236 156.361L84.8712 155.199L84.7422 156.748Z" fill="white"/>
<path d="M84.7422 156.748C86.936 157.006 89.1298 157.393 91.1946 157.78L90.9365 157.909L91.0656 156.361L91.1946 156.49C89.0008 156.103 86.936 155.715 84.7422 155.328H84.8712L84.7422 156.748ZM84.7422 156.748V155.199C84.7422 155.199 84.7422 155.199 84.8712 155.199C87.0651 155.457 89.1298 155.844 91.3236 156.103C91.4527 156.103 91.4527 156.232 91.4527 156.232L91.3236 157.78C91.3236 157.909 91.1946 157.909 91.1946 157.909C89.0008 157.651 86.807 157.135 84.7422 156.748Z" fill="#3F4449"/>
<path d="M98.0312 144.361L104.484 144.748V142.942L98.0312 142.684V144.361Z" fill="white"/>
<path d="M98.0312 144.361C100.225 144.361 102.419 144.49 104.484 144.49L104.355 144.619L104.484 142.812L104.613 142.941C102.419 142.812 100.354 142.683 98.1603 142.554L98.2893 142.425L98.0312 144.361ZM98.0312 144.361V142.683C98.0312 142.683 98.0312 142.554 98.1603 142.554C100.354 142.554 102.419 142.683 104.613 142.683C104.742 142.683 104.742 142.812 104.742 142.812L104.613 144.619C104.613 144.748 104.484 144.748 104.484 144.748C102.29 144.748 100.096 144.49 98.0312 144.361Z" fill="#3F4449"/>
<path d="M81.5156 156.103L83.9675 156.619L84.0966 155.071L81.5156 154.684V156.103Z" fill="white"/>
<path d="M81.5156 156.103L84.0966 156.49L83.9675 156.619V155.071L84.0966 155.2L81.6447 154.684H81.7737L81.5156 156.103ZM81.5156 156.103V154.684C81.5156 154.684 81.5156 154.684 81.6447 154.684L84.2256 154.942C84.3547 154.942 84.3547 155.071 84.3547 155.071L84.2256 156.49C84.2256 156.49 84.2256 156.619 84.0966 156.619L81.5156 156.103Z" fill="#3F4449"/>
<path d="M82.2852 136.23L92.609 135.972L92.7381 134.166L82.4142 134.553L82.2852 136.23Z" fill="white"/>
<path d="M82.2852 136.23C85.7695 136.101 89.2538 135.972 92.609 135.843L92.48 135.972L92.609 134.165L92.7381 134.423C89.2538 134.552 85.8985 134.681 82.4142 134.681L82.2852 136.23ZM82.2852 136.23L82.4142 134.552C85.8985 134.294 89.2538 134.165 92.7381 134.036C92.8671 134.036 92.8671 134.165 92.8671 134.165L92.7381 135.972C92.7381 136.101 92.609 136.101 92.609 136.101C89.1247 136.23 85.6404 136.23 82.2852 136.23Z" fill="#3F4449"/>
<path d="M97.5156 152.362L103.323 153.136L103.452 150.555L97.6447 149.91L97.5156 152.362Z" fill="white"/>
<path d="M97.5156 152.362C99.5804 152.491 101.516 152.749 103.323 152.878L103.194 153.007L103.323 150.426L103.452 150.555C101.516 150.297 99.5804 150.168 97.6447 149.91L97.7737 149.781L97.5156 152.362ZM97.5156 152.362V149.91C97.5156 149.91 97.5156 149.781 97.6447 149.781C99.5804 149.91 101.516 150.168 103.452 150.297C103.581 150.297 103.581 150.426 103.581 150.426L103.452 153.007C103.452 153.136 103.323 153.136 103.323 153.136C101.258 153.007 99.3223 152.749 97.5156 152.362Z" fill="#3F4449"/>
<path d="M110.164 91.1929L83.4512 103.065L81.6445 123.842L108.616 120.487L110.164 91.1929Z" fill="white"/>
<path d="M110.164 91.1934L83.4515 103.195L83.5805 103.066L81.7739 123.843L81.5158 123.714L108.358 120.487L108.229 120.616L110.164 91.1934ZM110.164 91.1934L108.616 120.616C108.616 120.616 108.616 120.745 108.487 120.745L81.6448 124.101C81.5158 124.101 81.5158 124.101 81.3867 123.972L83.1934 103.195C83.1934 103.195 83.1934 103.066 83.3224 103.066L110.164 91.1934Z" fill="#3F4449"/>
<g opacity="0.5">
<path opacity="0.5" d="M109.133 92.0967L109.004 96.3553L83.8398 105.776L84.0979 103.195L109.133 92.0967Z" fill="white"/>
<path opacity="0.5" d="M109.133 92.0972L109.004 96.2267C104.875 97.9043 100.616 99.4529 96.4867 101.002L83.969 105.776C83.84 105.776 83.7109 105.776 83.7109 105.647C83.7109 105.647 83.7109 105.647 83.7109 105.518L83.969 102.937C83.969 102.937 83.969 102.808 84.0981 102.808L109.133 92.0972ZM109.133 92.0972L84.0981 103.195L84.2271 103.066L83.969 105.647L83.7109 105.518L96.3577 100.872C100.616 99.3239 104.746 97.7753 109.004 96.2267L109.133 92.0972Z" fill="#3F4449"/>
</g>
<path d="M110.166 91.1934L110.553 91.4515L109.391 121.004L108.617 120.487L110.166 91.1934Z" fill="white"/>
<path d="M110.166 91.1929L110.553 91.451C110.295 101.259 109.908 111.195 109.521 121.003C109.521 121.132 109.392 121.132 109.392 121.132C109.392 121.132 109.392 121.132 109.263 121.132L108.488 120.616L108.359 120.487L110.166 91.1929ZM110.166 91.1929L108.747 120.616L108.617 120.487L109.392 120.874L109.134 121.003C109.65 111.195 109.908 101.259 110.553 91.451L110.166 91.1929Z" fill="#3F4449"/>
<path d="M81.6445 123.842L108.616 120.486L109.39 121.003L81.9026 123.971L81.6445 123.842Z" fill="white"/>
<path d="M81.6445 123.843L108.487 120.358H108.616L109.39 120.746C109.519 120.746 109.519 120.875 109.519 121.004L109.39 121.133C100.227 122.036 91.0651 123.068 81.9026 123.972L81.6445 123.843ZM81.6445 123.843L81.9026 123.972C91.0651 122.81 100.227 121.778 109.39 120.746L109.261 121.133L108.487 120.617H108.616L81.6445 123.843Z" fill="#3F4449"/>
<path d="M83.9688 104.097L109.133 93.7728V92.9985L84.0978 103.581L83.9688 104.097Z" fill="white"/>
<path d="M83.9688 104.098L109.004 93.6449L108.875 93.7739V92.9997L109.133 93.1287C100.745 96.613 92.3569 100.097 83.9688 103.453V104.098ZM83.9688 104.098V103.582C92.2278 99.9683 100.616 96.484 109.004 92.8706C109.133 92.8706 109.262 92.8706 109.262 92.9997C109.262 92.9997 109.262 92.9997 109.262 93.1287V93.903C109.262 94.032 109.262 94.032 109.133 94.032L83.9688 104.098Z" fill="#3F4449"/>
<path d="M83.3203 112.743L108.485 105.516V104.871L83.3203 112.227V112.743Z" fill="white"/>
<path d="M83.3203 112.744L108.485 105.388L108.356 105.517V104.743L108.614 104.872L83.3203 112.228V112.744ZM83.3203 112.744V112.228L108.485 104.614C108.614 104.614 108.743 104.614 108.743 104.743V105.517C108.743 105.646 108.743 105.646 108.614 105.646L83.3203 112.744Z" fill="#3F4449"/>
<path d="M83.7109 107.451L108.875 98.4178V97.6436L83.7109 106.935V107.451Z" fill="white"/>
<path d="M83.7109 107.452L108.746 98.1609L108.617 98.2899V97.5156L108.875 97.6447C100.487 100.742 92.0991 103.839 83.7109 106.807V107.452ZM83.7109 107.452V106.936C92.0991 103.71 100.487 100.613 108.746 97.5156C108.875 97.5156 109.004 97.5156 109.004 97.6447C109.004 97.6447 109.004 97.6447 109.004 97.7737V98.548C109.004 98.6771 109.004 98.6771 108.875 98.6771L83.7109 107.452Z" fill="#3F4449"/>
<path d="M90.418 103.323L101.645 99.0642L101.774 98.4189L90.547 102.807L90.418 103.323Z" fill="white"/>
<path d="M90.418 103.324L101.516 98.8072L101.387 98.9363V98.291L101.645 98.4201L90.418 102.679V103.324ZM90.418 103.324V102.808L101.516 98.291C101.645 98.291 101.774 98.291 101.774 98.4201C101.774 98.4201 101.774 98.4201 101.774 98.5491V99.1943C101.774 99.3234 101.774 99.3234 101.645 99.3234L90.418 103.324Z" fill="#3F4449"/>
<path d="M91.0664 107.838L102.294 104.095V103.45L91.0664 107.193V107.838Z" fill="white"/>
<path d="M91.0664 107.839L102.294 104.097L102.165 104.226V103.58L102.423 103.709L91.1955 107.323L91.0664 107.839ZM91.0664 107.839V107.194L102.294 103.322C102.423 103.322 102.552 103.322 102.552 103.451C102.552 103.451 102.552 103.451 102.552 103.58V104.226C102.552 104.355 102.552 104.355 102.423 104.355L91.0664 107.839Z" fill="#3F4449"/>
<path d="M82.418 123.067L107.711 119.583L107.84 118.809L82.418 122.422V123.067Z" fill="white"/>
<path d="M82.418 123.068L107.711 119.454L107.582 119.584V118.809L107.84 118.938L82.547 122.423L82.418 123.068ZM82.418 123.068V122.552L107.711 118.68C107.84 118.68 107.84 118.68 107.97 118.809V119.584C107.97 119.713 107.84 119.713 107.84 119.713L82.418 123.068Z" fill="#3F4449"/>
<path d="M82.9336 117.646L108.098 112.226L108.227 111.581L82.9336 117.13V117.646Z" fill="white"/>
<path d="M82.9336 117.647L108.098 112.098L107.969 112.227V111.453L108.227 111.582L82.9336 117.002V117.647ZM82.9336 117.647V117.131L108.098 111.324C108.227 111.324 108.356 111.324 108.356 111.453V112.227C108.356 112.356 108.227 112.356 108.227 112.356L82.9336 117.647Z" fill="#3F4449"/>
<path d="M89.6445 114.549L100.872 111.839L101.001 111.194L89.6445 113.904V114.549Z" fill="white"/>
<path d="M89.6445 114.55L100.872 111.711L100.743 111.84V111.195L101.001 111.324L89.6445 113.905V114.55ZM89.6445 114.55V113.905L100.872 110.937C101.001 110.937 101.13 110.937 101.13 111.066V111.711C101.13 111.84 101.13 111.84 101.001 111.84L89.6445 114.55Z" fill="#3F4449"/>
<path d="M90.2891 119.067L101.516 117.131V116.486L90.2891 118.551V119.067Z" fill="white"/>
<path d="M90.2891 119.067L101.516 116.873L101.387 117.002V116.357L101.645 116.486L90.2891 118.422V119.067ZM90.2891 119.067V118.422L101.516 116.228C101.645 116.228 101.645 116.228 101.774 116.357V117.002C101.774 117.131 101.645 117.131 101.645 117.131L90.2891 119.067Z" fill="#3F4449"/>
<path d="M82.1606 123.97L83.7092 103.194L110.293 91.3212L110.164 90.9341L83.322 102.936L81.7734 123.97H82.1606Z" fill="white"/>
<path d="M82.1606 123.971L83.5801 103.194C83.5801 103.194 83.5801 103.065 83.7092 103.065L110.293 91.0638L110.164 91.3219L109.906 91.0638L110.164 91.1928L83.322 103.065L83.4511 102.936L81.7734 123.971H82.1606ZM82.1606 123.971H81.7734L83.193 102.936C83.193 102.936 83.193 102.807 83.322 102.807L110.164 90.8057C110.293 90.8057 110.293 90.8057 110.422 90.9347L110.551 91.1928C110.551 91.3219 110.551 91.4509 110.551 91.4509L83.8382 103.323L83.9673 103.194L82.1606 123.971Z" fill="#3F4449"/>
<path d="M39.9844 59.1715L40.1936 58.9622C40.1936 58.9622 40.8214 58.3344 41.8677 57.9159C60.0731 50.5919 138.754 76.5398 138.754 76.5398C138.754 76.5398 209.901 99.9766 215.551 114.625C215.97 115.88 216.179 117.136 216.179 117.136C216.179 117.554 216.179 117.973 216.179 118.182C216.179 117.973 216.179 117.763 216.179 117.554C216.179 117.554 216.179 117.554 216.179 117.345C216.179 117.136 216.179 117.136 216.179 116.926C217.016 107.51 218.437 94.87 216.597 80.9342C215.813 74.9918 215.342 72.3547 213.668 65.8677C213.04 63.1474 212.203 60.6363 211.157 58.753C210.32 57.0789 209.064 54.1493 207.599 51.429C206.762 49.9642 206.135 48.4994 205.298 47.4531C203.833 45.1512 202.159 43.0587 200.694 41.1754C198.601 38.455 196.509 35.9439 194.625 33.8514C192.324 31.131 190.231 29.2477 189.394 28.4107C188.975 27.9922 185.837 25.2718 183.953 23.807C179.768 20.4589 176.629 18.3663 171.189 15.2275C164.074 11.0423 160.098 9.36828 154.239 7.48497C148.798 5.81091 143.357 4.55537 138.335 3.92759C136.661 3.71834 134.987 3.50908 133.522 3.50908C132.685 3.50908 131.639 3.29982 130.802 3.29982C124.734 3.09057 122.85 2.88131 111.76 4.34611C104.017 5.39239 100.878 6.22942 91.4616 9.36828C82.6728 12.2979 68.8619 20.8774 65.3045 25.4811C61.5379 29.2477 57.562 33.4328 53.7953 38.455C48.1454 45.5698 43.5417 52.6845 39.9844 59.1715Z" fill="white"/>
<path d="M39.9844 59.1713C39.9844 58.9621 39.9844 58.9621 40.1936 58.9621C40.8214 58.3343 41.8677 57.7065 42.7047 57.4973C43.751 57.0788 44.588 57.0788 45.6343 56.8695C47.7269 56.6602 49.6102 56.451 51.7028 56.451C55.6787 56.451 59.6545 56.8695 63.6304 57.288C71.5822 58.3343 79.3247 59.7991 87.2765 61.6824C102.971 65.2398 118.247 69.4249 133.522 74.2379C148.798 79.26 163.655 84.91 178.513 91.1877C185.837 94.3265 193.161 97.6746 200.066 101.651C203.623 103.534 206.972 105.626 210.11 108.138C211.575 109.393 213.249 110.649 214.505 112.323C214.714 112.741 215.133 113.16 215.342 113.578C215.551 113.997 215.76 114.415 215.97 115.043C216.388 116.089 216.388 116.926 216.388 117.973H215.97C216.597 111.904 216.807 105.626 217.016 99.3487C217.016 93.071 217.481 87.9459 216.597 80.7248C216.012 75.9362 215.342 72.5638 214.296 68.5879C213.459 64.612 212.412 60.6361 210.32 57.0788L207.599 51.8473C207.181 51.0103 206.553 50.1733 206.135 49.127C205.716 48.29 205.088 47.4529 204.46 46.6159L200.903 41.803C199.648 40.1289 198.183 38.6641 196.927 37.1993C194.416 34.0605 191.487 31.1309 188.557 28.2013C185.418 25.6902 182.488 22.9699 178.931 20.668C175.583 18.3662 172.026 16.2736 168.468 14.3903C164.911 12.507 161.354 10.6237 157.378 9.36814C149.635 6.6478 141.683 4.76448 133.732 4.13671C129.756 3.92745 125.571 3.7182 121.595 3.92745C117.619 4.13671 113.434 4.76448 109.458 5.183C105.482 5.81077 101.506 6.6478 97.5301 7.90334C93.5542 9.15888 89.7876 10.2052 86.0209 12.0885C82.2543 13.7625 78.6969 15.8551 75.3488 17.9477C72.0007 20.2495 68.4433 22.5513 65.9323 25.4809C60.9101 30.5031 56.0972 35.7345 51.912 41.3845C49.8195 44.1048 47.7269 47.0344 45.6343 49.964C43.751 53.1029 41.8677 56.2417 39.9844 59.1713ZM39.9844 59.1713C41.6584 55.8232 43.5417 52.8936 45.4251 49.964C47.3084 47.0344 49.4009 44.1048 51.4935 41.1752C55.6787 35.5253 60.4916 30.0846 65.5137 25.0624C68.2341 21.9236 71.7915 19.6217 75.1396 17.3199C78.4877 14.8088 82.0451 12.7163 85.6024 11.0422C89.3691 9.15888 93.3449 7.90334 97.1116 6.6478C101.087 5.39225 105.063 4.34597 109.248 3.7182C113.434 3.09043 117.41 2.67191 121.595 2.46265C125.78 2.2534 129.756 2.46265 133.941 2.67191C142.311 3.29968 150.263 5.183 158.005 7.90334C161.981 9.15888 165.748 11.0422 169.305 12.9255C172.863 15.0181 176.42 16.9014 179.768 19.4125C183.116 21.7143 186.255 24.4347 189.394 27.155C190.859 28.6198 192.324 30.0846 193.788 31.5494C195.253 33.0142 196.509 34.6883 197.764 36.1531C199.02 37.8271 200.485 39.2919 201.74 40.966L205.298 45.9881C205.925 46.8252 206.344 47.6622 206.972 48.7085C207.39 49.5455 208.018 50.5918 208.436 51.4288L211.157 56.8695C213.04 60.4269 214.086 64.612 215.133 68.5879C215.97 72.5638 216.71 75.9428 217.225 80.7248C218.004 87.9565 217.644 93.071 217.434 99.3487C217.434 105.626 217.016 111.695 216.388 117.973C216.388 118.182 216.179 118.182 216.179 118.182C215.97 118.182 215.97 117.973 215.97 117.973C216.179 113.787 212.831 110.858 209.901 108.347C206.762 105.836 203.414 103.952 199.857 101.86C192.951 98.0932 185.627 94.745 178.303 91.8154C163.655 85.747 148.589 80.097 133.313 75.2841C118.037 70.4712 102.762 66.0768 87.2765 62.3102C79.534 60.4269 71.7915 58.7528 63.8397 57.7065C59.8638 57.0788 55.8879 56.6602 51.912 56.6602C49.8195 56.6602 47.9361 56.6602 46.0528 56.8695C45.0065 57.0788 44.1695 57.0788 43.1232 57.4973C42.0769 57.7065 41.2399 58.125 40.4029 58.9621C40.1936 58.9621 39.9844 59.1713 39.9844 59.1713Z" fill="#3F4449"/>
</svg>
