<svg width="297" height="188" viewBox="0 0 297 188" fill="none" xmlns="http://www.w3.org/2000/svg">
<path d="M133.511 95.0654H130.238L0.566406 187.488H30.1789L133.511 95.0654Z" fill="#E3E3E3"/>
<path d="M161.566 95.0649H164.839L291.238 187.487H261.47L161.566 95.0649Z" fill="#E3E3E3"/>
<path d="M152.68 95.0649H155.953L229.205 187.487H198.034L152.68 95.0649Z" fill="#E3E3E3"/>
<path d="M141.927 95.0649H138.498L65.2461 187.487H96.573L141.927 95.0649Z" fill="#E3E3E3"/>
<path d="M148.161 95.0649H145.2L129.926 187.487H163.591L148.161 95.0649Z" fill="#E3E3E3"/>
<path d="M64.9489 84.1575C65.3285 84.1575 65.708 83.9677 66.2773 83.5882C66.8466 83.2087 67.2262 82.6393 67.7955 82.07C68.3648 81.311 69.1239 80.3621 69.5034 79.603C69.8829 78.844 70.4522 77.8951 71.0215 76.9463C71.4011 76.1872 71.7806 75.4281 71.9704 74.8588C72.1602 74.2895 72.1602 73.91 71.9704 73.7202C70.0727 70.4941 68.175 67.6476 65.8978 65.1806C63.6206 62.5238 60.774 60.2466 57.5479 57.9694C53.7526 55.5024 49.9572 54.7433 46.1618 54.3638C41.4176 53.7945 37.0529 53.7945 33.4473 51.5172C29.4621 48.8605 27.5644 45.0651 25.2872 43.1674C23.3895 41.6492 22.2509 41.4595 20.3532 41.4595C19.7839 41.4595 19.4044 41.6492 18.8351 41.839C18.2658 42.0288 17.6965 42.4083 17.3169 42.7879C16.7476 43.1674 16.1783 43.7367 15.7988 44.306C15.4192 44.8753 15.0397 45.6344 14.8499 46.2037C14.6602 46.773 14.6602 47.3423 14.6602 47.9116C14.6602 48.4809 14.8499 49.0502 14.8499 49.4298C15.4192 51.1377 16.1783 52.2763 18.4555 53.4149C21.1123 54.7433 25.477 55.1228 29.2724 57.7796C32.6882 60.0568 34.3961 64.042 36.8631 68.2169C38.7608 71.443 41.038 74.8588 44.8334 77.3258C47.8697 79.4133 51.0958 80.9314 54.5116 82.07C57.7377 82.8291 61.1536 83.5882 64.9489 84.1575Z" fill="white"/>
<path d="M64.9508 84.1572C65.7099 84.1572 66.2792 83.3981 66.8485 82.8288L67.6075 82.0698C67.7973 81.6902 67.9871 81.5005 68.3666 81.1209C69.3155 79.7925 70.0745 78.4642 70.8336 77.1358C71.4029 75.8074 72.3518 74.0995 71.0234 72.7711C70.2643 71.4427 69.3155 70.1143 68.3666 68.7859C66.4689 66.3189 64.3815 63.8519 62.1042 61.7645C59.6372 59.677 57.1702 57.7793 54.3237 56.451C51.4772 55.1226 48.2511 54.5533 45.2148 54.1737C42.1785 53.7942 38.9524 53.6044 35.9161 52.4658C32.8798 51.3272 30.6026 49.05 28.5151 46.583C27.5663 45.4444 26.6174 44.116 25.2891 42.9774C24.1504 42.0285 22.6323 41.0797 21.1141 41.0797C17.8881 40.7001 15.0415 43.3569 14.662 46.583C14.4722 48.1011 15.0415 49.6193 15.9904 50.9477C16.9392 52.0863 18.4574 52.8453 19.7858 53.4146C22.8221 54.3635 25.8584 55.1226 28.7049 56.6407C31.5514 58.1589 33.4491 61.0054 34.9673 63.8519C36.4854 66.6985 38.0036 69.3552 39.9013 72.012C41.799 74.479 44.266 76.5665 47.1125 78.0846C52.426 81.5005 58.6884 83.2084 64.9508 84.1572ZM64.9508 84.1572C58.6884 83.3981 52.426 81.6902 46.9227 78.4642C44.0762 76.946 41.6092 75.0483 39.5217 72.3915C37.4343 69.9245 36.1059 67.078 34.5877 64.2315C33.0696 61.5747 31.3617 58.7282 28.5151 57.21C25.8584 55.5021 22.6323 54.9328 19.596 53.984C18.0778 53.4147 16.5597 52.6556 15.6108 51.3272C14.662 49.9988 14.0927 48.4807 14.2825 46.7727C14.662 43.5467 17.6983 40.7001 21.1141 41.0797C22.8221 41.0797 24.1504 42.0285 25.4788 42.9774C26.6174 44.116 27.5663 45.2546 28.7049 46.583C30.6026 49.05 33.0696 51.3272 35.9161 52.4658C38.9524 53.6044 42.1785 53.6044 45.2148 53.984C48.4409 54.3635 51.4772 54.743 54.5135 56.0714C60.2066 58.9179 65.1405 63.2826 68.7462 68.5962C69.695 69.9245 70.4541 71.2529 71.4029 72.5813L71.9722 73.5302C72.162 73.9097 72.162 74.2892 71.9722 74.8585C71.7825 75.6176 71.4029 76.3767 71.0234 77.1358C70.2643 78.4642 69.5052 79.9823 68.3666 81.1209C68.1768 81.5005 67.9871 81.6902 67.6075 82.0698L66.8485 82.8288C66.2792 83.3981 65.7099 84.1572 64.9508 84.1572Z" fill="#3F4449"/>
<path d="M39.1432 53.4158L36.2966 52.6567C36.866 53.0363 36.2966 54.934 35.158 56.8317C33.8296 58.7293 32.3115 60.0577 31.7422 59.4884L33.4501 61.7656C33.4501 61.7656 33.4501 61.7656 33.6399 61.9554C34.2092 62.335 35.9171 60.8168 37.625 58.3498C38.9534 56.0726 39.9023 53.9851 39.1432 53.4158Z" fill="#027FF3"/>
<path d="M29.6519 53.226C28.5132 54.934 26.9951 56.2624 26.4258 55.8828L28.8928 57.2112C29.4621 57.5907 30.7905 56.4521 31.9291 54.7442C33.0677 53.0363 33.637 51.3284 33.0677 51.1386L30.9802 49.4307C31.3598 49.8102 30.7905 51.5181 29.6519 53.226Z" fill="#027FF3"/>
<path d="M77.7272 51.0324C77.917 51.2222 78.2965 51.2222 78.8658 51.0324C79.4351 50.8426 79.8146 50.6528 80.3839 50.2733C81.143 49.8938 81.9021 49.3245 82.2816 48.9449C82.8509 48.5654 83.4203 47.9961 84.1793 47.4268C84.7486 47.0472 85.1282 46.4779 85.5077 46.0984C85.6975 45.7189 85.8873 45.5291 85.8873 45.1495C85.5077 42.303 84.7486 39.6462 83.9896 37.1792C83.0407 34.5225 81.7123 32.0555 80.0044 29.3987C77.917 26.5522 75.45 24.8443 72.7932 23.3261C69.5671 21.6182 66.341 20.1 64.4434 17.4433C62.3559 14.407 61.9764 10.9911 60.8377 8.90366C59.8889 7.19574 59.1298 6.62644 57.6117 6.2469C57.2321 6.05713 56.8526 6.05713 56.4731 6.05713C55.9038 6.05713 55.5242 6.05713 54.9549 6.2469C54.3856 6.43667 53.8163 6.62644 53.4368 7.00597C53.0572 7.38551 52.4879 7.76505 52.2981 8.14459C52.1084 8.52413 51.7288 8.90366 51.7288 9.2832C51.5391 9.66274 51.5391 10.0423 51.5391 10.6116C51.5391 11.94 51.7288 13.0786 53.0572 14.5967C54.5754 16.3047 57.6117 17.8228 59.6991 20.8591C61.5968 23.5159 61.5968 26.9317 62.1661 30.7271C62.5457 33.5736 63.3047 36.7997 65.3922 39.6462C67.1001 41.9235 68.9978 44.0109 71.0853 45.9086C72.7932 47.9961 75.0704 49.5142 77.7272 51.0324Z" fill="white"/>
<path d="M77.7271 51.0319C78.2964 51.2216 78.8657 50.8421 79.435 50.6523C80.0043 50.4626 80.5737 50.083 81.143 49.7035C82.2816 49.1342 83.2304 48.1853 84.1793 47.4263L85.5076 46.0979C85.6974 45.9081 85.8872 45.5286 85.8872 45.3388L85.6974 44.39C85.5076 43.2513 85.1281 41.923 84.9383 40.7843C83.61 36.0401 81.5225 31.2959 78.1067 27.6903C76.3987 25.9824 74.3113 24.654 72.034 23.3256C69.9466 22.187 67.4796 21.0484 65.5819 19.3405C63.6842 17.6325 62.7354 15.1655 61.9763 12.8883C61.5968 11.7497 61.2172 10.4213 60.6479 9.47246C60.0786 8.33385 59.3195 7.38501 58.1809 6.8157C55.9037 5.67708 53.0571 6.8157 51.9185 8.90316C51.1595 9.852 51.1595 11.1804 51.539 12.319C51.9185 13.4576 52.6776 14.4065 53.6265 15.1655C55.5241 16.6837 57.6116 18.2018 59.1298 20.2893C60.8377 22.3768 61.2172 24.8438 61.5968 27.3107C61.9763 29.7777 62.1661 32.2447 62.9251 34.7117C63.4944 37.1787 64.8228 39.2662 66.341 41.1639C69.3773 45.3388 73.3624 48.3751 77.7271 51.0319ZM77.7271 51.0319C73.3624 48.5649 69.1875 45.5286 66.1512 41.5434C64.6331 39.6457 63.3047 37.3685 62.5456 34.9015C61.7865 32.4345 61.5968 29.9675 61.2172 27.5005C60.8377 25.0335 60.4581 22.5665 58.94 20.6688C57.4218 18.7711 55.3344 17.253 53.4367 15.7348C52.4878 14.9758 51.539 13.8372 51.1595 12.6985C50.7799 11.3702 50.7799 10.0418 51.539 8.90316C52.6776 6.62593 55.9037 5.48732 58.1809 6.8157C59.3195 7.38501 60.2684 8.52362 60.8377 9.47246C61.407 10.6111 61.7865 11.7497 62.1661 13.0781C62.9251 15.3553 63.874 17.8223 65.7717 19.5302C67.6694 21.2381 69.9466 22.187 72.2238 23.3256C74.501 24.4642 76.5885 25.7926 78.4862 27.6903C81.902 31.4857 83.9895 36.2299 85.3179 40.9741C85.6974 42.1127 85.8872 43.4411 86.077 44.5797L86.2667 45.5286C86.2667 45.9081 86.077 46.2876 85.8872 46.4774L84.5588 47.8058C83.61 48.5649 82.6611 49.324 81.5225 49.8933C80.9532 50.2728 80.3839 50.4626 79.8146 50.8421C78.8657 50.8421 78.2964 51.2216 77.7271 51.0319Z" fill="#3F4449"/>
<path d="M67.6683 20.8582L65.7706 19.5298C66.1501 19.9093 65.2013 21.2377 63.6831 22.1866C62.165 23.1354 60.6468 23.7047 60.457 23.1354L61.0263 25.4126C61.0263 25.4126 61.0263 25.4126 61.0263 25.6024C61.4059 25.9819 63.1138 25.4126 65.0115 24.0842C66.9092 22.9456 68.2376 21.4275 67.6683 20.8582C67.858 21.0479 67.858 21.0479 67.6683 20.8582Z" fill="#027FF3"/>
<path d="M60.8354 18.0124C59.5071 18.9613 57.9889 19.5306 57.6094 18.9613L59.1275 20.6692C59.3173 21.0487 60.6457 20.6692 61.9741 19.7203C63.3024 18.7715 64.2513 17.8226 63.8718 17.4431L62.9229 15.5454C63.1127 15.9249 62.3536 17.0636 60.8354 18.0124Z" fill="#027FF3"/>
<path d="M127.724 71.4958C128.104 71.8753 128.483 71.8753 129.242 71.8753C130.001 71.8753 130.761 71.6855 131.709 71.6855C132.848 71.4958 133.987 71.1162 134.935 70.9264C135.884 70.7367 137.023 70.1674 138.162 69.7878C139.11 69.4083 139.869 69.0287 140.439 68.4594C140.818 68.0799 141.198 67.7004 141.198 67.3208C141.767 63.1459 142.147 59.3505 141.957 55.5551C141.767 51.57 141.198 47.5849 139.869 43.2202C138.351 38.4759 135.505 34.8703 132.658 31.834C128.863 28.0386 125.067 24.6228 123.739 20.2581C122.221 15.1344 123.36 10.3901 122.6 6.97429C122.031 4.31753 121.272 3.17891 119.564 1.85053C119.185 1.47099 118.615 1.28122 118.046 1.09145C117.477 0.901684 116.718 0.711914 115.959 0.711914C115.199 0.711914 114.251 0.711916 113.492 1.09145C112.732 1.28122 111.973 1.66076 111.214 2.23007C110.645 2.6096 110.265 2.98914 109.886 3.55845C109.506 4.12776 109.127 4.50729 108.937 5.0766C108.368 6.97429 108.178 8.49244 109.317 11.1492C110.645 14.1855 114.251 17.6014 115.769 22.7251C117.097 27.2796 115.769 32.0238 114.82 37.1476C114.061 41.3225 113.681 45.8769 115.199 50.8109C116.338 54.7961 118.046 58.4017 120.323 61.8175C122.221 65.0436 124.688 68.2697 127.724 71.4958Z" fill="white"/>
<path d="M127.727 71.4941C128.486 72.0634 129.435 71.8736 130.384 71.8736L131.712 71.6838C132.092 71.6838 132.661 71.494 133.041 71.3043C134.749 70.9247 136.457 70.1657 138.164 69.5964C139.683 68.8373 141.77 68.0782 141.391 65.9908C141.58 64.2828 141.77 62.3851 141.96 60.6772C142.15 57.0716 141.96 53.466 141.391 50.0502C140.821 46.6343 140.062 43.0287 138.354 39.8026C136.836 36.5766 134.369 33.9198 131.902 31.263C129.435 28.6063 126.778 26.1393 124.881 23.103C122.983 19.8769 122.603 16.2713 122.603 12.6657C122.603 10.9577 122.603 9.06005 122.414 7.35213C122.034 5.64421 121.465 3.93629 120.136 2.6079C117.669 -0.0488634 113.115 0.330675 110.648 2.79767C109.32 3.93629 108.75 5.64421 108.561 7.5419C108.561 9.24982 109.32 10.9577 110.079 12.4759C111.976 15.5122 114.254 18.3587 115.392 21.7746C116.721 25.1904 116.341 28.9858 115.582 32.4016C115.013 36.0072 114.064 39.4231 114.064 43.0287C113.874 46.6343 114.633 50.0502 115.962 53.466C118.618 60.1079 122.793 66.1805 127.727 71.4941ZM127.727 71.4941C122.793 66.1805 118.618 60.2977 116.151 53.6558C114.823 50.2399 114.064 46.8241 114.064 43.0287C114.064 39.4231 115.013 35.8175 115.582 32.4016C116.151 28.9858 116.721 25.1904 115.392 21.9643C114.254 18.5485 111.976 15.702 110.079 12.6657C109.13 11.1475 108.371 9.43959 108.561 7.5419C108.75 5.64421 109.32 3.93629 110.838 2.6079C113.495 0.140906 118.239 -0.238632 120.706 2.6079C122.034 3.93629 122.793 5.64421 122.983 7.35213C123.363 9.06005 123.173 10.9577 123.173 12.6657C123.173 16.2713 123.552 19.8769 125.26 22.9132C127.158 25.9495 129.815 28.4165 132.282 30.8835C134.749 33.3505 137.216 36.197 138.924 39.4231C141.96 46.065 142.909 53.2762 142.339 60.4875C142.15 62.1954 141.96 64.0931 141.77 65.801L141.58 67.1294C141.391 67.6987 141.011 67.8884 140.631 68.268C139.872 68.8373 139.113 69.2168 138.164 69.5964C136.457 70.1657 134.749 70.9247 133.041 71.3043C132.661 71.494 132.092 71.494 131.712 71.6838L130.384 71.8736C129.435 71.8736 128.297 72.0634 127.727 71.4941Z" fill="#3F4449"/>
<path d="M127.155 26.1397L125.257 23.4829C125.447 24.242 123.739 25.5704 121.272 26.3294C118.805 27.0885 116.528 27.0885 116.338 26.3294L116.148 29.5555V29.7453C116.338 30.5044 118.995 30.3146 122.221 29.3657C125.257 28.4169 127.535 27.0885 127.155 26.1397C127.345 26.1397 127.155 26.1397 127.155 26.1397Z" fill="#027FF3"/>
<path d="M118.994 19.1177C116.717 19.8768 114.63 19.8768 114.25 19.1177L115.578 21.9642C115.768 22.5335 117.666 22.5335 119.943 21.9642C122.22 21.2052 123.738 20.2563 123.549 19.4972L122.979 16.4609C123.169 17.22 121.461 18.3586 118.994 19.1177Z" fill="#027FF3"/>
<path d="M242.035 36.3681C242.035 36.7477 242.035 36.9375 242.225 37.5068C242.415 37.8863 242.794 38.4556 243.364 38.8351C243.933 39.4045 244.502 39.9738 245.071 40.5431C245.641 40.9226 246.21 41.4919 246.969 42.0612C247.538 42.4408 248.108 42.8203 248.487 43.0101C248.867 43.1998 249.246 43.1998 249.436 43.1998C252.283 42.0612 254.75 40.9226 256.837 39.4045C259.304 37.8863 261.392 35.9886 263.669 33.5216C266.136 30.8648 267.085 27.8285 268.034 24.982C268.982 21.3764 269.552 17.7708 271.829 15.3038C274.486 12.4573 277.712 11.5084 279.42 9.80049C280.748 8.47211 281.128 7.52326 281.507 6.00511C281.507 5.62557 281.507 5.24603 281.507 4.8665C281.317 4.29719 281.317 3.91765 280.938 3.53811C280.558 2.96881 280.368 2.58927 279.799 2.20973C279.42 1.83019 278.85 1.45065 278.281 1.26089C277.902 1.07112 277.332 0.881348 276.953 0.881348C276.573 0.881348 276.004 0.881348 275.624 0.881348C274.296 1.26089 273.157 1.64042 272.019 3.15858C270.69 5.05627 269.931 8.47211 267.274 11.3186C264.997 13.7856 261.581 14.7345 258.166 16.0629C255.319 17.2015 252.472 18.5299 250.005 21.3764C248.108 23.6536 246.4 25.9309 245.071 28.5876C243.933 30.8648 242.984 33.5216 242.035 36.3681Z" fill="white"/>
<path d="M242.034 36.3688C241.845 36.9381 242.414 37.5075 242.793 38.0768C243.173 38.6461 243.552 39.0256 244.122 39.5949C245.071 40.5438 246.019 41.3028 246.968 42.0619L248.676 43.0108C248.866 43.2005 249.246 43.2005 249.625 43.2005L250.574 42.821C251.713 42.2517 252.851 41.8721 253.99 41.1131C258.544 38.8358 262.529 35.42 265.376 31.4348C266.704 29.3474 267.653 26.8804 268.222 24.4134C268.981 21.9464 269.361 19.4794 270.689 17.2022C272.018 14.9249 274.105 13.4068 276.193 12.0784C277.331 11.5091 278.47 10.75 279.419 9.99095C280.368 9.23187 281.127 8.09326 281.506 6.95464C282.076 4.48765 280.368 1.83088 277.901 1.26157C276.762 0.882035 275.434 1.0718 274.295 1.64111C273.156 2.21042 272.397 3.34903 271.828 4.29788C270.689 6.5751 269.741 9.0421 268.033 10.9398C266.325 13.0273 263.858 14.1659 261.58 15.1147C259.114 16.0636 256.836 16.8226 254.559 17.9612C252.282 19.0999 250.384 20.8078 248.866 22.8952C245.64 26.8804 243.552 31.6246 242.034 36.3688ZM242.034 36.3688C243.363 31.4348 245.45 26.6906 248.676 22.7055C250.194 20.618 252.092 18.9101 254.369 17.5817C256.646 16.2533 259.114 15.4942 261.391 14.5454C263.668 13.5966 266.135 12.6477 267.653 10.5603C269.361 8.66256 270.12 6.19557 271.259 3.91834C271.828 2.77973 272.587 1.64111 273.915 1.0718C275.054 0.502497 276.572 0.122959 277.711 0.692266C280.368 1.26157 282.076 4.10811 281.316 6.76487C281.127 8.09326 280.178 9.0421 279.229 9.99095C278.28 10.75 277.142 11.3193 276.003 12.0784C273.915 13.4068 271.638 14.9249 270.5 17.2022C269.361 19.4794 268.792 21.9464 268.222 24.4134C267.653 26.8804 266.704 29.3474 265.376 31.6246C262.529 35.7995 258.354 39.2154 253.8 41.4926C252.661 42.0619 251.523 42.6312 250.384 43.0108L249.435 43.3903C249.056 43.5801 248.676 43.3903 248.486 43.2005L246.779 42.2517C245.83 41.4926 244.691 40.7335 243.932 39.7847C243.552 39.4051 242.983 38.8358 242.604 38.2665C242.414 37.6972 241.845 37.1279 242.034 36.3688Z" fill="#3F4449"/>
<path d="M269.548 19.6683L270.497 17.5808C270.117 17.9604 268.599 17.3911 267.271 16.0627C265.942 14.7343 265.183 13.4059 265.563 13.0264L263.475 14.165C263.096 14.5445 264.235 16.2524 265.942 17.7706C267.461 19.2887 269.169 20.2376 269.548 19.6683Z" fill="#027FF3"/>
<path d="M270.876 12.0783C269.738 10.9397 268.789 9.6113 269.168 9.04199L267.84 10.9397C267.46 11.3192 268.219 12.4578 269.548 13.5964C270.686 14.7351 272.015 15.3044 272.394 14.9248L274.102 13.4067C273.533 13.976 272.205 13.2169 270.876 12.0783Z" fill="#027FF3"/>
<path d="M141.679 69.4391C141.869 69.8187 142.249 70.1982 142.818 70.5777C143.387 70.9573 144.336 71.3368 145.095 71.5266C146.234 71.9061 147.372 72.0959 148.321 72.2857C149.27 72.4754 150.409 72.6652 151.737 72.6652C152.686 72.6652 153.635 72.6652 154.394 72.6652C154.963 72.6652 155.343 72.4754 155.722 72.0959C158.379 68.68 160.467 65.454 161.985 62.2279C163.693 58.6223 165.021 54.8269 165.97 50.2724C166.919 45.3385 166.16 40.9738 165.021 36.7989C163.693 31.6751 161.795 26.9309 162.744 22.3764C163.882 17.0629 167.108 13.4573 168.057 10.2312C168.816 7.57442 168.627 6.24604 167.678 4.15858C167.488 3.58928 167.108 3.20974 166.729 2.8302C166.349 2.26089 165.78 1.88135 165.021 1.50182C164.262 1.12228 163.503 0.74274 162.744 0.552971C161.985 0.363202 161.226 0.363202 160.277 0.552971C159.707 0.552971 158.948 0.74274 158.379 1.12228C157.81 1.31205 157.24 1.69159 156.861 2.07112C155.343 3.39951 154.584 4.72789 154.204 7.57442C154.014 10.8005 155.343 15.5447 154.394 20.8583C153.445 25.4127 150.029 29.0183 146.803 33.1932C143.957 36.4193 141.49 40.2147 140.541 45.3385C139.782 49.3236 139.402 53.3088 139.782 57.4837C139.971 61.279 140.541 65.2642 141.679 69.4391Z" fill="white"/>
<path d="M141.679 69.4406C142.058 70.1997 143.007 70.5792 143.766 70.9588C144.525 71.3383 145.474 71.5281 146.423 71.7178C148.131 72.2871 149.839 72.4769 151.737 72.6667C153.445 72.6667 155.532 73.0462 156.291 71.1485C157.43 69.6304 158.379 68.302 159.327 66.7839C161.225 63.7475 162.743 60.5215 163.882 57.1056C165.021 53.6898 165.969 50.2739 166.159 46.6683C166.349 43.0627 165.59 39.6469 164.451 36.231C163.502 32.8152 162.364 29.3994 162.174 25.7937C161.984 22.1881 163.502 18.7723 165.21 15.5462C165.969 14.0281 166.918 12.5099 167.487 10.802C168.057 9.09408 168.247 7.19639 167.677 5.67823C166.728 2.26239 162.554 0.364701 159.327 1.31355C157.62 1.69308 156.291 3.02147 155.342 4.53962C154.393 6.05777 154.393 7.95546 154.393 9.66338C154.583 13.269 155.342 16.8746 154.773 20.4802C154.393 24.0858 152.116 27.3119 149.839 29.9687C147.562 32.8152 145.285 35.472 143.577 38.5083C141.679 41.5446 140.73 44.9604 140.351 48.566C139.022 55.2079 139.971 62.6089 141.679 69.4406ZM141.679 69.4406C139.781 62.6089 139.022 55.2079 139.971 48.1865C140.351 44.5809 141.299 40.9753 143.197 37.939C144.905 34.7129 147.372 32.0561 149.649 29.2096C151.926 26.3631 154.014 23.3267 154.393 19.9109C154.963 16.3053 154.393 12.8895 154.014 9.28384C154.014 7.57592 154.014 5.67823 154.963 3.97031C155.912 2.45216 157.43 1.12378 159.138 0.744239C162.743 -0.204606 166.918 1.69308 167.867 5.48846C168.436 7.19639 168.247 9.09408 167.677 10.802C167.108 12.3201 166.159 13.8383 165.21 15.5462C163.502 18.5825 161.984 21.9984 162.174 25.604C162.364 29.2096 163.502 32.6254 164.451 36.0413C165.4 39.4571 166.349 43.0627 166.159 46.6683C165.78 53.8796 162.933 60.901 159.138 66.7839C158.189 68.302 157.24 69.8202 156.101 71.1485L155.342 72.2872C154.963 72.6667 154.583 72.6667 154.014 72.8565C153.065 73.0462 152.116 72.8565 151.357 72.8565C149.649 72.6667 147.752 72.2872 146.044 71.9076C145.095 71.7178 144.336 71.5281 143.387 71.1485C143.007 70.769 142.058 70.3895 141.679 69.4406Z" fill="#3F4449"/>
<path d="M162.744 29.3982L162.175 26.1721C161.985 26.9312 159.898 27.1209 157.241 26.7414C154.774 26.1721 152.876 25.0335 153.066 24.2744L151.358 27.1209C151.358 27.1209 151.358 27.1209 151.358 27.3107C151.168 28.0698 153.635 29.2084 156.861 29.9675C159.898 30.5368 162.554 30.347 162.744 29.3982Z" fill="#027FF3"/>
<path d="M158.758 19.3412C156.481 18.9617 154.583 17.823 154.583 17.064L154.393 20.29C154.204 20.8593 155.911 21.8082 158.189 22.3775C160.466 22.757 162.364 22.5673 162.553 21.998L163.502 18.9617C163.312 19.531 161.225 19.9105 158.758 19.3412Z" fill="#027FF3"/>
<path d="M235.544 78.8563C235.354 79.046 235.164 79.6153 235.164 80.1847C235.164 80.754 235.164 81.513 235.354 82.2721C235.544 83.221 235.733 84.3596 235.923 85.1186C236.113 85.8777 236.492 86.8266 236.872 87.7754C237.252 88.5345 237.441 89.2936 237.821 89.8629C238.011 90.2424 238.39 90.6219 238.77 90.6219C242.375 91.381 245.601 91.7606 248.827 91.7606C252.243 91.7606 255.659 91.381 259.454 90.4322C263.629 89.2936 266.666 87.0163 269.322 84.7391C272.738 81.7028 275.585 78.6665 279.57 77.5279C283.935 76.3893 287.92 77.5279 290.766 76.9586C293.044 76.579 293.992 76.0097 295.321 74.4916C295.7 74.112 295.89 73.7325 296.08 73.353C296.27 72.7837 296.459 72.2144 296.459 71.645C296.459 70.886 296.459 70.1269 296.27 69.5576C296.08 68.9883 295.89 68.2292 295.511 67.6599C295.131 67.2804 294.752 66.7111 294.372 66.3315C293.992 65.952 293.613 65.7622 293.044 65.5724C291.336 65.0031 290.197 64.8134 287.92 65.5724C285.263 66.5213 282.227 69.3678 277.862 70.6962C273.877 71.645 270.082 70.3167 265.527 69.3678C261.921 68.6087 258.126 68.0394 253.951 69.1781C250.535 70.1269 247.309 71.2655 244.273 72.9734C241.237 74.4916 238.39 76.579 235.544 78.8563Z" fill="white"/>
<path d="M235.543 78.856C234.973 79.4254 235.163 80.3742 235.163 80.9435V82.0821C235.163 82.4617 235.353 82.8412 235.353 83.2207C235.543 84.7389 236.112 86.0673 236.681 87.5854C237.251 88.9138 237.82 90.6217 239.528 90.432C241.046 90.6217 242.564 91.0013 244.082 91.0013C247.119 91.3808 250.155 91.3808 253.191 91.0013C256.228 90.6217 259.264 90.0524 261.921 88.9138C264.767 87.7752 267.044 85.8775 269.322 83.79C271.599 81.7026 273.876 79.6151 276.533 78.097C279.19 76.5788 282.416 76.3891 285.452 76.5788C286.97 76.5788 288.488 76.7686 290.006 76.5788C291.525 76.3891 293.043 75.8197 293.992 74.8709C296.269 72.7834 296.269 68.9881 294.181 66.9006C293.232 65.762 291.714 65.1927 290.386 65.0029C288.868 65.0029 287.539 65.3824 286.211 66.1415C283.554 67.6597 281.087 69.5574 278.051 70.3164C275.015 71.2653 271.789 70.8858 268.942 70.1267C265.906 69.3676 263.059 68.6085 260.023 68.4188C256.987 68.229 253.95 68.6085 251.104 69.5574C245.411 71.6448 240.287 75.0607 235.543 78.856ZM235.543 78.856C240.097 74.8709 245.411 71.4551 251.294 69.5574C254.14 68.6085 257.176 68.0392 260.402 68.229C263.439 68.4188 266.475 69.1778 269.322 69.9369C272.168 70.696 275.394 71.0755 278.241 70.1267C281.087 69.1778 283.554 67.4699 286.211 65.9518C287.539 65.1927 289.058 64.6234 290.765 64.8131C292.284 65.0029 293.802 65.5722 294.94 66.9006C297.028 69.1778 297.028 73.3527 294.561 75.4402C293.422 76.5788 291.904 76.9584 290.386 77.1481C288.868 77.3379 287.35 77.1481 285.831 77.1481C282.795 76.9584 279.569 77.1481 276.912 78.6663C274.256 80.1844 272.168 82.2719 269.891 84.3594C267.614 86.4468 265.147 88.3445 262.49 89.6729C256.797 91.9501 250.534 92.5194 244.462 91.7603C242.944 91.5706 241.426 91.3808 239.907 91.0013L238.769 90.8115C238.389 90.6217 238.01 90.432 237.82 90.0524C237.44 89.4831 237.061 88.724 236.871 87.965C236.492 86.4468 235.922 85.1184 235.732 83.6003C235.732 83.2207 235.543 82.8412 235.543 82.4617V81.323C235.163 80.3742 234.973 79.4254 235.543 78.856Z" fill="#3F4449"/>
<path d="M274.066 80.1843L276.343 78.6661C275.584 78.8559 274.635 77.3377 274.066 75.0605C273.497 72.973 273.686 71.0753 274.256 70.8856L271.409 70.6958C271.409 70.6958 271.409 70.6958 271.219 70.6958C270.46 70.8856 270.65 73.1628 271.219 75.8196C272.168 78.4763 273.307 80.374 274.066 80.1843Z" fill="#027FF3"/>
<path d="M280.329 73.5437C279.76 71.646 279.95 69.7484 280.519 69.5586L278.052 70.5074C277.483 70.6972 277.483 72.4051 277.862 74.3028C278.431 76.2005 279.191 77.7187 279.76 77.5289L282.417 77.1494C281.847 77.1494 280.898 75.6312 280.329 73.5437Z" fill="#027FF3"/>
<path d="M96.1548 127.519C96.5701 127.552 97.0705 127.336 97.5709 127.121C98.1564 126.656 98.7419 126.191 99.4126 125.478C100.25 124.692 100.924 123.553 101.428 122.911C101.932 122.27 102.606 121.13 103.113 120.063C103.535 119.245 103.957 118.426 104.213 117.68C104.383 117.182 104.305 116.579 104.223 116.402C102.178 112.406 100.044 109.084 97.5763 105.906C95.0271 102.551 92.0591 99.5888 88.2607 96.5606C84.1321 93.2507 79.7377 91.9644 75.5068 91.032C70.1968 89.9286 65.1318 89.3559 61.3334 86.3278C56.9563 82.9128 54.9995 78.2417 52.2766 75.8102C50.214 73.9424 48.8048 73.4897 46.6468 73.1478C46.0647 73.1868 45.4826 73.2258 44.9822 73.4416C44.315 73.7295 43.8146 73.9453 43.1474 74.2331C42.3951 74.7698 41.8096 75.2345 41.3058 75.8761C40.8019 76.5177 40.5466 77.2642 40.2912 78.0107C40.2027 78.6853 40.1141 79.3599 40.0255 80.0345C40.1038 80.6371 40.182 81.2397 40.2602 81.8423C40.9919 83.8601 41.8121 85.2032 44.2934 86.6783C47.1865 88.6122 52.0847 89.2568 56.5435 92.8486C60.3419 95.8768 62.2136 100.797 64.6674 105.678C66.7127 109.674 69.1734 113.704 73.5505 117.119C76.9371 119.688 80.5757 121.937 84.3845 123.688C87.8631 125.157 91.6754 126.482 96.1548 127.519Z" fill="white"/>
<path d="M96.0713 127.354C96.9019 127.42 97.5725 126.706 98.3248 126.17C99.0771 125.633 99.4992 124.815 100.003 124.173C101.177 122.818 102.103 121.358 102.948 119.721C103.625 118.156 104.803 116.375 103.238 114.717C102.254 113.02 101.352 111.5 100.369 109.803C98.3164 106.658 95.9306 103.657 93.2929 100.977C90.6552 98.2967 87.8507 95.6883 84.6241 93.8985C81.3974 92.1086 77.9155 91.0652 74.3483 90.2707C70.7812 89.4762 67.129 88.9305 63.8172 87.3895C60.5055 85.8484 57.8712 82.7424 55.7339 79.8462C54.6653 78.3982 53.5149 76.7732 52.2795 75.3971C50.8772 74.0929 49.3899 73.0376 47.6471 72.7288C44.08 71.9342 40.6487 74.8993 40.2059 78.2721C39.8585 80.1189 40.5085 81.9597 41.5772 83.4078C42.6458 84.8559 44.1332 85.9112 45.8725 86.6457C49.1842 88.1868 52.833 89.1582 55.8894 91.4457C59.1126 93.6614 61.0797 97.0552 62.6315 100.416C64.3501 103.705 65.8168 107.315 68.0358 110.388C70.088 113.533 72.8925 116.141 76.034 118.18C82.0617 123.004 88.9371 125.765 96.0713 127.354ZM95.9862 127.603C88.852 126.014 81.8098 123.324 75.6935 119.175C72.552 117.136 69.7475 114.528 67.5285 111.455C65.3095 108.382 63.8428 104.772 62.1242 101.483C60.4056 98.1944 58.6053 94.7287 55.4638 92.6899C52.4891 90.5793 48.9254 89.359 45.4469 87.8899C43.7076 87.1554 42.1386 85.9232 41.0699 84.4751C40.0864 82.7782 39.4364 80.9374 39.7838 79.0906C40.3117 75.4689 43.9098 72.4319 47.5586 73.4033C49.4681 73.6402 51.0371 74.8724 52.4394 76.1766C53.8416 77.4808 54.8252 79.1777 55.8938 80.6257C58.1128 83.6988 60.6654 86.6279 63.9771 88.169C67.2889 89.71 70.9411 90.2557 74.5082 91.0502C78.0754 91.8447 81.6425 92.6393 84.9508 94.606C91.3189 98.4346 96.5909 104.221 100.695 110.511C101.679 112.208 102.581 113.728 103.564 115.425L104.136 116.663C104.381 117.194 104.211 117.691 104.207 118.117C104.034 119.04 103.611 119.859 103.108 120.5C102.182 121.961 101.256 123.421 100.081 124.776C99.5774 125.417 98.9068 126.131 98.403 126.772C97.6542 126.883 96.9835 127.597 95.9862 127.603Z" fill="#3F4449"/>
<path d="M67.7476 89.3958L64.5583 88.2186C65.2249 88.783 64.5192 90.7965 63.0521 92.9269C61.585 95.0573 59.7094 96.2979 59.0428 95.7335L61.0231 98.7156L61.1048 98.8936C61.7715 99.458 63.8235 97.714 65.7186 95.1845C67.6138 92.655 68.6658 90.0644 67.7476 89.3958C67.9992 89.5 67.7476 89.3958 67.7476 89.3958Z" fill="#027FF3"/>
<path d="M56.9591 88.6052C55.5805 90.4835 53.787 91.9017 53.1205 91.3374L55.9629 93.0913C56.5477 93.4776 58.0831 92.3847 59.4617 90.5065C60.8403 88.6282 61.3761 86.6889 60.9611 86.2289L58.465 83.8981C58.9616 84.536 58.4259 86.4753 56.9591 88.6052Z" fill="#027FF3"/>
<path d="M185.422 66.8018C185.422 67.3262 185.594 67.8506 186.108 68.375C186.623 68.8994 187.31 69.5987 187.997 70.2979C188.855 71.1719 190.057 71.8711 190.743 72.3955C191.601 72.92 192.631 73.6192 193.833 74.1436C194.691 74.668 195.55 75.0176 196.408 75.1924C196.923 75.3672 197.438 75.3672 197.781 75.1924C201.557 72.92 204.819 70.6475 207.737 68.0254C210.827 65.2286 213.745 61.9073 216.32 57.8868C219.238 53.5167 220.096 48.7969 220.611 44.252C221.298 38.6583 221.298 33.2394 224.044 29.044C227.134 24.3243 231.769 22.0519 233.829 19.255C235.545 16.9825 235.888 15.5841 235.888 13.3117C235.888 12.7872 235.717 12.088 235.545 11.5636C235.373 10.8644 234.858 10.1652 234.515 9.64076C234 8.94154 233.314 8.24233 232.627 7.89272C231.94 7.3683 231.082 7.01869 230.224 6.84389C229.537 6.66909 228.851 6.49428 228.164 6.66909C227.477 6.66909 226.962 6.84389 226.276 7.01869C224.216 7.71791 223.014 8.76674 221.641 11.214C220.096 14.3605 219.581 19.6046 216.491 24.3243C213.745 28.5196 209.11 30.4425 204.304 33.2394C200.527 35.5118 196.579 38.1339 193.49 42.8536C191.086 46.5245 189.37 50.3702 187.825 54.3907C186.967 58.0616 186.108 62.2569 185.422 66.8018Z" fill="white"/>
<path d="M185.422 66.8007C185.422 67.6748 186.28 68.5488 186.795 69.0732C187.482 69.7724 188.168 70.2968 189.027 70.8212C190.572 72.0449 192.116 72.9189 193.661 73.7929C195.206 74.4921 197.266 75.7158 198.811 74.1425C200.356 73.0937 201.901 72.0449 203.446 70.996C206.535 68.7236 209.282 66.2763 211.685 63.4795C212.887 62.081 214.088 60.5078 215.118 59.1093C216.148 57.5361 217.178 55.9629 217.865 54.2148C219.41 50.7187 220.096 47.0478 220.439 43.2021C220.954 39.5313 221.126 35.5107 222.328 32.0147C223.701 28.3438 226.447 25.5469 229.194 23.2744C230.567 22.0508 232.112 21.002 233.314 19.4288C234.515 18.0303 235.545 16.2823 235.545 14.3594C236.06 10.5137 232.799 7.01764 229.194 6.66803C227.306 6.31842 225.589 7.01764 224.044 8.06646C222.671 9.29009 221.641 10.8633 221.126 12.6114C219.924 16.1075 219.238 19.9532 217.178 23.2744C215.29 26.7705 212.028 28.8682 208.767 30.6162C205.505 32.3643 202.244 34.1123 199.154 36.5596C196.236 38.832 193.833 41.8037 191.945 45.125C188.683 51.9424 186.623 59.2841 185.422 66.8007ZM185.422 66.8007C186.452 59.2841 188.34 51.7676 192.116 45.125C193.833 41.8037 196.236 38.6572 199.326 36.3848C202.244 33.9375 205.677 32.3643 208.939 30.4414C212.2 28.6934 215.461 26.4209 217.178 23.2744C219.066 20.128 219.924 16.2823 221.126 12.6114C221.813 10.8633 222.671 9.11529 224.216 7.89166C225.761 6.66803 227.649 6.14362 229.537 6.31842C233.314 6.84283 236.575 10.5137 236.06 14.3594C236.06 16.2823 234.858 18.0303 233.657 19.4288C232.455 20.8272 230.91 22.0508 229.537 23.2744C226.619 25.5469 223.873 28.3438 222.671 32.0147C221.469 35.5107 221.298 39.3564 220.783 43.2021C220.439 47.0478 219.753 50.7187 218.208 54.2148C214.946 61.0322 209.625 66.8007 203.446 71.1708C201.901 72.2197 200.356 73.2685 198.811 74.3173L197.609 75.0165C197.094 75.1914 196.579 75.1914 196.236 75.0165C195.378 74.8417 194.52 74.3173 193.661 73.9677C192.116 72.9189 190.4 72.0449 189.027 70.8212C188.34 70.2968 187.482 69.7724 186.795 69.0732C186.28 68.5488 185.422 67.8496 185.422 66.8007Z" fill="#3F4449"/>
<path d="M221.642 36.0351L222.5 32.7139C221.985 33.4131 219.753 32.7139 217.522 31.3154C215.29 29.7422 213.917 27.9941 214.26 27.2949L211.514 29.3926C211.514 29.3926 211.514 29.3926 211.342 29.5674C210.827 30.2666 212.716 32.3642 215.634 34.2871C218.552 35.8603 221.127 36.9092 221.642 36.0351Z" fill="#027FF3"/>
<path d="M221.81 24.4985C219.75 23.1001 218.205 21.352 218.72 20.478L217.175 23.6245C216.832 24.1489 218.034 25.7222 220.094 27.1206C222.153 28.519 224.042 29.0434 224.385 28.519L226.445 25.897C226.101 26.5962 224.042 26.0718 221.81 24.4985Z" fill="#027FF3"/>
<path d="M114.542 119.348C114.921 119.728 115.68 119.917 116.629 119.728C117.578 119.728 118.717 119.538 119.855 119.158C121.373 118.779 122.892 118.21 124.03 117.83C125.169 117.45 126.687 116.691 128.015 116.122C129.154 115.553 130.293 114.983 130.862 114.224C131.431 113.655 131.811 113.276 131.811 112.706C132.38 107.203 132.57 102.079 132 97.1452C131.621 91.8317 130.482 86.7079 128.395 81.0148C126.118 74.7524 122.132 70.3878 117.958 66.5924C112.834 61.8482 107.52 57.6732 105.433 51.9802C102.966 45.3383 104.104 39.0759 102.966 34.7112C102.017 31.2954 100.878 29.7772 98.6011 28.259C98.0318 27.8795 97.2727 27.5 96.7034 27.3102C95.7546 27.1204 94.9955 26.9307 94.0467 26.9307C92.908 26.9307 91.7694 27.1204 90.8206 27.5C89.8717 27.8795 88.9229 28.4488 87.974 29.0181C87.215 29.5874 86.6457 30.1567 86.2661 30.9158C85.8866 31.4851 85.507 32.2442 85.1275 33.0033C84.3684 35.66 84.3684 37.5577 85.8866 40.7838C87.7843 44.7689 92.7183 48.9439 95.1853 55.5858C97.2727 61.4686 95.7546 67.731 94.9955 74.5627C94.4262 80.066 94.0467 85.9488 96.5136 92.401C98.4113 97.5247 100.878 102.079 103.915 106.634C106.951 111.378 110.367 115.363 114.542 119.348Z" fill="white"/>
<path d="M114.542 119.347C115.491 120.106 116.819 119.727 117.958 119.727C119.097 119.537 120.235 119.158 121.374 118.778C123.651 118.209 125.738 117.07 128.016 116.311C129.154 115.742 130.103 115.172 131.052 114.413C131.432 114.034 132.001 113.654 132.001 113.085L132.191 111.377C132.38 109.1 132.57 106.633 132.57 104.356C132.57 99.6114 132.191 94.8672 131.242 90.3128C130.672 88.0355 130.103 85.7583 129.344 83.4811C128.585 81.2038 127.826 79.1164 126.498 77.0289C124.22 72.854 120.804 69.4382 117.389 66.4019C113.973 63.1758 110.177 60.1395 107.71 56.1543C105.054 52.1692 104.295 47.2352 104.105 42.6807C103.915 40.4035 103.915 37.9365 103.535 35.6593C102.966 33.3821 102.017 31.1048 100.12 29.5867C96.7038 26.3606 90.6312 26.9299 87.5949 30.3458C85.887 32.0537 85.3177 34.3309 85.3177 36.6081C85.3177 38.8854 86.4563 41.1626 87.7847 43.0603C90.4414 46.8557 93.6675 50.4613 95.5652 54.826C97.6527 59.1906 97.2731 64.3144 96.7038 68.8689C96.1345 73.6131 95.3754 78.1675 95.3754 82.9118C95.3754 85.189 95.755 87.656 96.3243 89.9332C96.8936 92.2104 97.6527 94.4877 98.6015 96.5751C101.828 105.115 107.9 112.706 114.542 119.347ZM114.542 119.347C107.71 112.895 101.828 105.305 98.0322 96.5751C97.0833 94.4877 96.1345 92.2104 95.5652 89.9332C94.9959 87.656 94.6163 85.189 94.6163 82.9118C94.4266 78.1675 95.1857 73.4233 95.755 68.8689C96.3243 64.3144 96.7038 59.3804 94.6163 55.0157C92.9084 50.651 89.6824 47.0454 87.0256 43.25C85.6972 41.3524 84.5586 39.0751 84.5586 36.6081C84.5586 34.1411 85.3177 31.6741 87.0256 29.9662C90.2517 26.3606 96.514 25.7913 99.9299 29.2071C101.828 30.7253 102.776 33.0025 103.346 35.2798C103.915 37.557 103.915 40.024 103.915 42.3012C104.105 47.0454 104.864 51.7897 107.521 55.7748C110.177 59.76 113.783 62.6065 117.389 65.8326C120.804 69.0586 124.22 72.4745 126.498 76.6494C130.862 84.9992 132.57 94.6774 132.57 103.976C132.57 106.253 132.38 108.72 132.191 110.998L132.001 112.895C131.811 113.465 131.432 114.034 130.862 114.413C129.913 115.172 128.965 115.742 127.826 116.311C125.738 117.26 123.461 118.209 121.184 118.778C120.045 119.158 118.907 119.537 117.768 119.727C116.819 119.727 115.491 120.106 114.542 119.347Z" fill="#3F4449"/>
<path d="M110.747 59.7606L107.9 56.3447C108.28 57.2936 106.002 59.1913 102.776 60.3299C99.5503 61.4685 96.7038 61.6583 96.3242 60.7094V65.0741V65.2639C96.7038 66.2127 100.309 65.8332 104.295 64.5048C108.28 62.9866 111.126 61.089 110.747 59.7606C110.747 59.9503 110.747 59.9503 110.747 59.7606Z" fill="#027FF3"/>
<path d="M99.5475 51.2202C96.701 52.3588 93.8545 52.5486 93.2852 51.41L95.1828 55.2053C95.5624 55.9644 98.0294 55.7746 100.876 54.8258C103.722 53.6872 105.81 52.169 105.43 51.41L104.482 47.4248C104.671 48.3736 102.584 50.0816 99.5475 51.2202Z" fill="#027FF3"/>
<path d="M177.356 109.672C177.166 110.051 177.356 110.621 177.735 111.38C178.115 112.139 178.684 112.898 179.253 113.657C180.012 114.606 180.961 115.744 181.72 116.504C182.479 117.263 183.428 118.211 184.567 118.971C185.326 119.73 186.275 120.299 187.034 120.678C187.603 121.058 188.173 121.058 188.552 121.058C193.107 119.54 197.092 118.022 200.697 115.934C204.682 113.847 208.288 111 212.083 107.584C216.069 103.599 218.156 99.0448 219.674 94.4904C221.762 88.7973 222.9 83.294 226.885 79.6884C231.25 75.5135 236.564 74.1851 239.41 71.9079C241.687 70.0102 242.446 68.6818 243.016 66.2148C243.016 65.6455 243.016 65.0762 243.016 64.3171C242.826 63.558 242.636 62.7989 242.446 62.0399C242.067 61.091 241.498 60.3319 240.928 59.7626C240.359 59.1933 239.6 58.624 238.651 58.0547C238.082 57.6752 237.323 57.4854 236.564 57.2956C235.805 57.1059 235.235 57.1059 234.476 57.2956C232.199 57.6752 230.681 58.2445 228.593 60.7115C226.126 63.558 224.608 68.8716 220.243 73.0465C216.448 76.6521 210.945 77.7907 205.252 79.4986C200.697 80.827 195.953 82.7247 191.778 86.8996C188.362 90.1257 185.706 93.5415 183.239 97.5267C180.961 100.943 179.064 105.117 177.356 109.672Z" fill="white"/>
<path d="M177.353 109.671C177.164 110.62 177.733 111.568 178.302 112.327C178.872 113.087 179.441 113.846 180.2 114.605C181.528 116.123 183.047 117.451 184.375 118.78C185.893 119.918 187.791 121.626 189.688 120.298C191.586 119.728 193.484 118.969 195.381 118.21C198.987 116.692 202.593 114.605 205.819 112.327C207.337 111.189 209.045 109.86 210.373 108.532C211.891 107.204 213.22 105.875 214.548 104.167C217.015 100.941 218.533 97.146 219.862 93.3506C221.19 89.5552 222.329 85.5701 224.416 82.1542C226.693 78.7384 230.109 76.4611 233.715 74.7532C235.423 73.8044 237.32 73.0453 239.028 71.9067C240.547 70.7681 242.065 69.2499 242.634 67.1625C243.962 63.3671 241.495 59.0024 237.7 57.674C235.802 56.9149 233.715 57.2945 232.007 58.0536C230.299 58.8126 228.971 60.5205 227.832 62.0387C225.745 65.4545 224.037 69.2499 221.19 72.0965C218.344 75.1328 214.358 76.6509 210.563 77.7895C206.768 78.9281 202.782 79.877 199.177 81.5849C195.571 83.2928 192.345 85.7598 189.688 88.7961C183.995 94.8687 180.2 102.08 177.353 109.671ZM177.353 109.671C180.2 102.08 183.995 94.8687 189.309 88.9859C191.966 85.9496 195.192 83.2928 198.797 81.5849C202.403 79.877 206.388 78.7384 210.183 77.7895C213.979 76.6509 217.964 75.3225 220.621 72.2862C223.467 69.4397 224.985 65.6443 227.073 62.2285C228.212 60.5205 229.54 58.8126 231.438 58.0536C233.335 57.2945 235.423 56.9149 237.51 57.674C241.306 59.0024 243.962 63.5569 242.634 67.542C242.065 69.6295 240.547 71.1476 239.028 72.2862C237.32 73.4248 235.613 74.3737 233.715 75.1328C230.109 76.8407 226.693 79.1179 224.416 82.5338C222.329 85.9496 221.19 89.9347 219.862 93.7301C218.533 97.5255 217.015 101.321 214.738 104.547C209.614 110.809 202.782 115.554 195.381 118.59C193.484 119.349 191.586 120.108 189.688 120.677L188.17 121.057C187.601 121.247 187.032 120.867 186.652 120.677C185.703 120.298 184.944 119.539 184.185 118.969C182.667 117.641 181.149 116.313 180.01 114.605C179.251 113.846 178.682 113.087 178.113 112.327C177.733 111.568 176.974 110.62 177.353 109.671Z" fill="#3F4449"/>
<path d="M222.329 86.3298L224.037 82.914C223.467 83.4833 221.19 82.3447 219.293 80.2572C217.205 78.1698 216.256 75.8925 216.826 75.3232L213.41 76.8414H213.22C212.651 77.4107 213.979 80.0675 216.636 82.7242C219.103 85.381 221.57 87.0889 222.329 86.3298Z" fill="#027FF3"/>
<path d="M225.176 74.5636C223.278 72.6659 222.139 70.5784 222.898 69.8193L220.621 72.4761C220.052 73.0454 221.001 74.9431 222.898 76.8408C224.606 78.7385 226.694 79.8771 227.073 79.3078L229.92 77.2203C229.161 77.5999 227.073 76.4613 225.176 74.5636Z" fill="#027FF3"/>
<path d="M139.246 112.11C139.246 112.708 139.844 113.505 140.64 114.102C141.437 114.899 142.831 115.497 144.026 116.293C145.62 117.09 147.413 117.887 148.807 118.484C150.201 119.082 151.994 119.679 153.786 120.078C155.181 120.476 156.774 120.675 157.969 120.675C158.965 120.675 159.563 120.476 159.961 120.078C164.941 115.497 168.924 111.114 172.51 106.135C176.294 100.956 179.282 95.3789 181.871 88.6066C184.66 81.2368 184.66 74.0661 183.863 67.2938C183.067 58.9281 181.473 50.9607 184.063 43.9892C187.05 36.0218 193.225 31.2414 195.615 26.2618C197.408 22.4773 197.607 20.2862 196.81 16.9001C196.611 16.1033 196.213 15.3066 195.615 14.5099C195.018 13.5139 194.221 12.7172 193.424 12.1196C192.428 11.3229 191.233 10.5262 190.038 10.1278C188.843 9.72942 187.648 9.33105 186.254 9.33105C185.258 9.33105 184.262 9.33105 183.067 9.72942C182.071 9.92861 181.274 10.327 180.278 10.9245C177.489 12.7172 175.896 14.5099 174.701 18.6927C173.307 23.8715 174.502 31.4406 171.315 39.408C168.526 46.3794 162.351 50.9607 155.977 56.5379C150.998 61.1191 146.018 66.2979 143.03 74.0661C140.64 80.2408 139.246 86.4156 138.449 92.7895C138.648 98.765 138.648 105.139 139.246 112.11Z" fill="white"/>
<path d="M139.244 112.111C139.443 112.907 139.842 113.306 140.439 113.903C141.037 114.302 141.634 114.7 142.232 115.098C143.427 115.895 144.821 116.493 146.016 116.891C147.411 117.489 148.606 118.086 150 118.484L153.984 119.68C155.378 120.078 156.772 120.277 158.167 120.277C158.764 120.277 159.561 120.277 160.159 119.879L161.752 118.484C163.744 116.493 165.736 114.501 167.728 112.31C171.512 108.127 174.898 103.546 177.488 98.5659C178.882 96.1757 180.077 93.5863 181.272 90.9969C182.467 88.4075 183.264 85.8181 183.862 83.0295C185.057 77.4524 184.658 71.676 184.061 66.0988C183.463 60.5217 182.467 54.7453 183.264 49.1681C184.061 43.3918 187.248 38.4121 190.634 34.0301C192.427 31.839 194.219 29.648 195.613 27.0586C197.008 24.6684 197.805 21.6806 197.406 18.892C197.207 16.1034 195.414 13.514 193.223 11.9206C191.032 10.1279 188.044 9.53034 185.256 9.72952C182.467 9.92871 179.878 11.5222 178.085 13.514C176.293 15.7051 175.496 18.4937 175.097 21.2822C174.5 26.8594 174.5 32.6358 172.707 38.213C171.114 43.7901 166.732 48.1722 162.549 51.7575C158.366 55.542 153.785 59.1274 150.199 63.5094C148.407 65.7005 146.813 68.0907 145.419 70.4809C144.025 73.0703 143.228 75.6597 142.232 78.4483C139.045 89.2043 138.447 100.757 139.244 112.111ZM139.244 112.111C138.248 100.757 138.846 89.2043 142.232 78.2491C143.029 75.4605 144.025 72.8711 145.419 70.2817C146.614 67.6923 148.207 65.3021 150 63.1111C153.585 58.729 157.968 54.9445 162.35 51.3591C166.533 47.5746 170.715 43.3918 172.309 38.0138C173.106 35.4244 173.703 32.6358 173.902 29.648C174.301 26.8594 174.301 24.0708 174.699 21.0831C175.097 18.2945 175.894 15.3067 177.687 13.1157C178.683 11.9206 179.878 11.1238 181.073 10.3271C182.268 9.53034 183.862 9.13197 185.256 9.13197C191.032 8.53441 197.008 12.7173 197.605 18.6928C198.203 21.4814 197.207 24.4692 195.813 26.8594C194.418 29.4488 192.626 31.4407 190.833 33.8309C187.248 38.2129 184.061 43.1926 183.463 48.9689C182.666 54.5461 183.662 60.3225 184.26 65.8996C184.858 71.4768 185.256 77.2532 184.061 82.8304C181.471 93.9847 175.297 104.143 167.728 112.509C165.736 114.7 163.744 116.692 161.752 118.684L160.159 120.078C159.561 120.476 158.764 120.476 157.968 120.476C156.573 120.476 155.179 120.078 153.785 119.68L149.801 118.285C148.407 117.887 147.212 117.09 145.817 116.692C144.423 116.094 143.228 115.497 142.033 114.7C141.435 114.302 140.838 113.903 140.24 113.505C139.842 113.306 139.244 112.708 139.244 112.111Z" fill="#3F4449"/>
<path d="M183.066 54.9435L183.265 49.7647C182.867 50.9598 179.282 50.7607 175.497 49.3664C171.713 47.9721 168.924 45.781 169.322 44.5859L165.936 48.5696L165.737 48.7688C165.139 49.7647 168.725 52.155 173.505 54.1468C178.286 55.9395 182.469 56.537 183.066 55.3419C183.066 55.1427 183.066 55.1427 183.066 54.9435Z" fill="#027FF3"/>
<path d="M179.679 38.2121C176.293 36.8178 173.504 34.8259 173.703 33.4316L172.508 38.2121C172.11 39.208 174.5 41.0007 178.085 42.395C181.471 43.7893 184.658 43.9884 185.057 42.9925L187.447 38.6104C186.65 39.8056 183.264 39.6064 179.679 38.2121Z" fill="#027FF3"/>
<path d="M147.541 173.567C172.748 173.567 193.183 153.133 193.183 127.925C193.183 102.718 172.748 82.2832 147.541 82.2832C122.333 82.2832 101.898 102.718 101.898 127.925C101.898 153.133 122.333 173.567 147.541 173.567Z" fill="#027FF3"/>
<path d="M147.54 92.0512C150.973 92.0512 153.756 90.779 153.756 89.2097C153.756 87.6404 150.973 86.3682 147.54 86.3682C144.107 86.3682 141.324 87.6404 141.324 89.2097C141.324 90.779 144.107 92.0512 147.54 92.0512Z" fill="#001036"/>
<path d="M153.046 89.7422C153.046 90.9853 150.56 92.0509 147.541 92.0509C144.522 92.0509 142.035 90.9853 142.035 89.7422C142.035 88.499 144.522 87.4334 147.541 87.4334C150.56 87.2558 153.046 88.3214 153.046 89.7422Z" fill="#C4C4C4"/>
<path d="M142.566 90.6298C143.454 91.5177 145.408 92.0505 147.539 92.0505C149.67 92.0505 151.624 91.5177 152.512 90.6298C151.624 89.7418 149.67 89.209 147.539 89.209C145.408 89.209 143.454 89.7418 142.566 90.6298Z" fill="white"/>
<path d="M177.728 99.3331C176.84 100.576 173.821 100.044 170.98 98.09C168.138 96.1364 166.54 93.4725 167.25 92.2293C168.138 90.9861 171.157 91.5189 173.999 93.4725C177.018 95.426 178.616 98.09 177.728 99.3331Z" fill="#001036"/>
<path d="M176.842 99.1565C176.131 100.222 173.468 99.6892 170.981 98.0909C168.495 96.3149 167.074 94.1838 167.784 92.9406C168.495 91.875 171.159 92.4078 173.645 94.0062C176.131 95.7821 177.552 98.0909 176.842 99.1565Z" fill="#C4C4C4"/>
<path d="M167.605 94.1836C167.961 95.2492 169.204 96.8475 170.98 97.9131C172.578 98.9787 174.354 99.6891 175.42 99.5115C175.064 98.4459 173.821 96.8475 172.045 95.782C170.447 94.7164 168.849 94.1836 167.605 94.1836Z" fill="white"/>
<path d="M172.58 106.792C171.514 108.746 167.962 108.746 164.588 106.792C161.391 104.839 159.615 101.82 160.681 99.866C161.746 97.9125 165.298 97.9125 168.673 99.866C172.047 101.82 173.823 104.839 172.58 106.792Z" fill="#001036"/>
<path d="M171.691 106.793C170.626 108.391 167.606 108.569 164.765 106.793C161.923 105.194 160.325 102.353 161.391 100.755C162.456 99.1562 165.475 98.9786 168.317 100.755C171.158 102.53 172.579 105.194 171.691 106.793Z" fill="#C4C4C4"/>
<path d="M166.718 102.707C164.586 101.464 162.455 101.109 161.034 101.819C160.857 103.417 162.278 105.726 164.764 106.969C166.895 108.213 169.026 108.568 170.447 107.857C170.625 106.259 169.204 104.128 166.718 102.707Z" fill="white"/>
<path fill-rule="evenodd" clip-rule="evenodd" d="M170.916 72.8335L173.277 69.2109L169.543 67.5168L170.693 64.9814C171.179 63.9118 172.175 63.1101 173.849 63.8695L175.552 64.6424L177.053 61.3345C177.053 61.3345 175.63 60.3661 174.154 59.6966C171.074 58.299 168.219 59.2487 166.682 62.6358L165.334 65.607L161.907 64.0522L160.141 67.9444L163.568 69.4992L159.272 78.9672L163.481 80.877L167.777 71.409L170.916 72.8335Z" fill="#C4C4C4"/>
<path fill-rule="evenodd" clip-rule="evenodd" d="M85.8217 100.113C85.8217 100.113 84.795 99.5237 84.0818 99.6124C83.1548 99.7056 82.7088 100.278 82.4721 100.515C80.8738 102.28 78.6944 105.079 78.6944 105.079L78.6881 105.087C78.6881 105.087 76.5024 107.894 75.1886 109.868C75.0174 110.155 74.5777 110.72 74.7082 111.65C74.8051 112.369 75.6197 113.214 75.6197 113.214C75.6197 113.214 76.5979 114.186 77.6781 115.027L78.6928 115.817C79.7729 116.659 80.9551 117.369 80.9551 117.369C80.9551 117.369 81.9817 117.958 82.695 117.869C83.6219 117.776 84.1281 117.092 84.4148 116.842C85.3559 115.853 88.0823 112.403 88.0823 112.403C88.0823 112.403 90.2598 109.589 91.5882 107.614C91.7594 107.326 92.2054 106.753 92.0686 105.832C91.9717 105.112 91.1571 104.268 91.1571 104.268C91.1571 104.268 90.1789 103.296 89.0987 102.454L88.0922 101.671C87.0102 100.815 85.8217 100.113 85.8217 100.113ZM84.064 111.469L80.308 108.544L85.0003 106.401L84.064 111.469Z" fill="#C4C4C4"/>
<path fill-rule="evenodd" clip-rule="evenodd" d="M134.949 40.0302L135.385 39.8451L137.425 43.718L137.021 43.9904C136.014 44.6391 134.836 44.9046 133.71 44.905C133.206 44.904 132.706 44.8267 132.222 44.6963L135.485 50.8883C137.208 54.1582 135.951 58.2126 132.681 59.9354C129.411 61.6583 125.357 60.402 123.634 57.1321C121.911 53.8621 123.168 49.8077 126.426 48.091C126.554 48.0238 126.681 47.9566 126.815 47.901L127.244 47.7043L129.157 51.3336L128.616 51.5445C128.581 51.5628 128.552 51.5634 128.517 51.5817C128.441 51.6068 128.366 51.6319 128.308 51.6624C127.009 52.3467 126.521 53.9517 127.2 55.2388C127.878 56.5259 129.489 57.0251 130.776 56.347C131.414 56.011 131.912 55.4376 132.143 54.7526C132.386 54.0614 132.336 53.3472 132.012 52.7327L125.18 39.6811L128.624 37.8666L128.884 38.248C130.199 40.2368 132.759 40.9914 134.949 40.0302Z" fill="#C4C4C4"/>
<path d="M263.9 82.3522L262.052 82.9422C262.052 82.9422 261.678 83.1424 261.044 82.9425C260.206 82.6782 259.176 81.639 258.715 81.9566C258.248 82.2786 258.603 83.3866 258.603 83.3866C258.603 83.3866 258.68 83.624 258.6 83.7852C258.514 83.9608 258.272 84.0648 258.272 84.0648L257.442 84.3174C257.442 84.3174 255.644 84.9862 253.521 83.7956C251.204 82.4995 248.547 79.3383 248.547 79.3383C248.547 79.3383 248.384 79.127 248.447 78.9838C248.516 78.8207 248.813 78.7228 248.813 78.7228L250.794 78.1048C250.794 78.1048 250.991 78.0778 251.153 78.1373C251.289 78.1846 251.395 78.3169 251.395 78.3169C251.395 78.3169 251.962 79.0311 252.61 79.6346C253.873 80.8156 254.356 81.0108 254.59 80.7723C254.933 80.4249 254.261 78.6607 254.261 78.6607C254.261 78.6607 254.069 78.0047 253.768 77.7798C253.535 77.605 253.201 77.633 253.057 77.6568C252.941 77.6768 253.045 77.3614 253.246 77.1735C253.551 76.8909 254.178 76.6874 254.925 76.4701C255.507 76.3007 255.684 76.2846 255.928 76.2711C256.662 76.2276 256.625 76.9358 257.09 78.4661C257.239 78.9553 257.361 79.6707 257.783 79.793C257.966 79.8438 258.311 79.6475 258.76 77.7855C258.973 76.9025 259.037 75.9229 259.037 75.9229C259.037 75.9229 259.061 75.7433 259.152 75.6422C259.244 75.5381 259.406 75.5117 259.406 75.5117L261.488 74.8627C261.488 74.8627 262.094 74.5973 262.28 74.8498C262.477 75.1141 262.347 75.9111 261.84 77.3092C261.008 79.6019 260.8 79.4753 262.289 80.1999C263.714 80.8937 264.096 81.3247 264.154 81.3753C264.85 81.997 263.9 82.3522 263.9 82.3522Z" fill="#C4C4C4"/>
<path fill-rule="evenodd" clip-rule="evenodd" d="M50.6889 60.1389C50.1631 59.7755 49.7563 59.595 49.3638 59.4806C48.9551 59.3632 48.5678 59.3267 48.0992 59.3849C47.6364 59.4477 47.2684 59.5918 46.9057 59.8138C46.5578 60.0285 46.2137 60.3108 45.8036 60.8011C45.3935 61.2913 45.2632 61.4504 44.2764 62.7467C43.2895 64.0431 43.1709 64.2111 42.8075 64.7369C42.4441 65.2627 42.2636 65.6694 42.1492 66.062C42.0318 66.4707 41.9953 66.8579 42.0536 67.3266C42.1163 67.7894 42.2604 68.1574 42.4824 68.52C42.6972 68.868 42.9794 69.212 43.4697 69.6221C43.9599 70.0322 44.119 70.1625 45.4153 71.1494C46.7117 72.1363 46.8797 72.2549 47.4055 72.6183C47.9313 72.9817 48.3381 73.1622 48.7306 73.2765C49.1393 73.394 49.5265 73.4305 49.9952 73.3722C50.458 73.3095 50.826 73.1653 51.1887 72.9433C51.5366 72.7286 51.8806 72.4463 52.2907 71.9561C52.7008 71.4658 52.8311 71.3068 53.818 70.0104C54.8049 68.714 54.9235 68.5461 55.2869 68.0203C55.6503 67.4945 55.8308 67.0877 55.9451 66.6951C56.0626 66.2865 56.0991 65.8992 56.0408 65.4306C55.9781 64.9678 55.8339 64.5998 55.6119 64.2371C55.3972 63.8892 55.1149 63.5451 54.6247 63.135C54.1344 62.7249 53.9754 62.5946 52.679 61.6077C51.3827 60.6209 51.2147 60.5023 50.6889 60.1389ZM51.4984 68.2353C50.467 69.5901 48.538 69.8463 47.189 68.8194C45.8343 67.7881 45.578 65.859 46.6049 64.5101C47.6362 63.1554 49.5653 62.8991 50.9142 63.926C52.2631 64.9529 52.5252 66.8864 51.4984 68.2353ZM49.0161 62.3242C48.776 62.6395 48.3235 62.7009 48.0081 62.4609C47.6928 62.2208 47.6315 61.7683 47.8715 61.4529C48.1116 61.1376 48.5641 61.0763 48.8794 61.3163C49.1948 61.5564 49.2561 62.0089 49.0161 62.3242ZM50.2607 64.7844C51.1367 65.4512 51.3068 66.7059 50.64 67.5819C49.9732 68.4578 48.7184 68.6279 47.8425 67.9611C46.9666 67.2943 46.7965 66.0395 47.4633 65.1636C48.1301 64.2877 49.379 64.1132 50.2607 64.7844Z" fill="#C4C4C4"/>
<path d="M212.85 48.8889C213.378 49.0999 213.931 49.2278 214.473 49.2711C213.872 49.5852 213.214 49.7901 212.545 49.8721C212.495 49.9812 212.438 50.0861 212.38 50.1911C210.602 53.4375 206.075 55.8309 201.554 53.3546C200.167 52.5948 199.091 51.4795 198.386 50.1868C198.569 50.316 198.756 50.4378 198.951 50.5446C200.105 51.177 201.376 51.3662 202.577 51.1664C201.51 50.5525 200.993 49.3434 201.219 48.2003C201.353 48.3124 201.502 48.4137 201.659 48.4999C201.884 48.6231 202.118 48.7122 202.353 48.7631C201.352 47.9222 201.051 46.461 201.704 45.2689C201.708 45.2614 201.716 45.2464 201.72 45.2389C201.947 45.6071 202.272 45.9215 202.669 46.1582C202.252 45.3545 202.227 44.3666 202.695 43.5119C202.942 43.062 203.292 42.7079 203.703 42.4555C204.104 44.6053 205.381 46.5812 207.363 47.8032C207.416 47.5987 207.496 47.3989 207.603 47.204C208.346 45.847 210.052 45.3485 211.409 46.0918C212.114 46.4779 212.595 47.131 212.774 47.8531C213.398 48.0486 214.034 48.1337 214.662 48.1075C214.169 48.5978 213.517 48.8641 212.85 48.8889Z" fill="#C4C4C4"/>
</svg>
