<svg width="23" height="20" viewBox="0 0 23 20" fill="none" xmlns="http://www.w3.org/2000/svg">
<path opacity="0.5" fill-rule="evenodd" clip-rule="evenodd" d="M20.5349 0.900411L0.946213 8.58345C0.946213 8.58345 0.0234458 8.90441 0.0936563 9.48615C0.163867 10.0679 0.926152 10.3387 0.926152 10.3387L5.85092 11.9937L17.6864 4.48115C17.6864 4.48115 18.3684 4.06991 18.3484 4.48115C18.3484 4.48115 18.4687 4.55136 18.1077 4.89238C17.7466 5.2334 8.80979 13.2575 8.80979 13.2575L8.79976 13.3678L8.7797 13.3477L8.16786 18.7439C8.43868 18.8643 8.68943 18.6737 8.68943 18.6737L11.879 15.775L16.8439 19.5764C18.1879 20.1581 18.6694 18.9445 18.6694 18.9445L22.1498 1.36179C22.1498 0.198304 20.5349 0.900411 20.5349 0.900411Z" fill="white"/>
</svg>
