<svg width="23" height="23" viewBox="0 0 23 23" fill="none" xmlns="http://www.w3.org/2000/svg">
<path opacity="0.5" fill-rule="evenodd" clip-rule="evenodd" d="M11.8198 0.428711C14.728 0.428711 17.4609 1.55977 19.5166 3.6053C21.5723 5.65083 22.703 8.3762 22.6969 11.27C22.6969 17.2382 17.8116 22.0993 11.8137 22.0993H11.8077C9.98777 22.0993 8.19809 21.6421 6.60794 20.7817L0.839844 22.2858L2.38768 16.6726C1.43842 15.0302 0.936583 13.1652 0.936583 11.258C0.936583 5.28986 5.82193 0.428711 11.8198 0.428711ZM14.9215 12.6478C15.1694 12.738 16.5056 13.3878 16.7777 13.5261C16.8455 13.5606 16.9076 13.5906 16.9639 13.6178C17.1338 13.6997 17.2507 13.7562 17.3097 13.833C17.3763 13.9473 17.3763 14.4887 17.1525 15.1204C16.9228 15.7521 15.8345 16.3297 15.3145 16.4079C14.8489 16.4741 14.2564 16.5042 13.6034 16.2996C13.2104 16.1733 12.7025 16.0048 12.0556 15.7281C9.48184 14.6232 7.75002 12.1364 7.44593 11.6997C7.44241 11.6946 7.43907 11.6899 7.43593 11.6854C7.42232 11.6658 7.41233 11.6516 7.40604 11.643C7.26697 11.4625 6.29353 10.1751 6.29353 8.84547C6.29353 7.60204 6.90694 6.94793 7.1892 6.64693C7.20876 6.62608 7.22672 6.60691 7.24279 6.58937C7.49068 6.31864 7.78695 6.25246 7.96834 6.25246C8.14972 6.25246 8.33111 6.25848 8.48831 6.26449C8.50687 6.26518 8.52622 6.26485 8.54626 6.26451C8.70244 6.26187 8.90071 6.25852 9.09898 6.72774C9.19834 6.9619 9.3565 7.34346 9.5094 7.71232C9.71006 8.19641 9.90166 8.65864 9.9394 8.73718C10.0059 8.87555 10.0543 9.03198 9.96359 9.21246C9.96211 9.21539 9.96065 9.21831 9.9592 9.22121C9.94904 9.24148 9.9394 9.26093 9.9301 9.2797C9.8589 9.42337 9.80724 9.52759 9.69151 9.66368C9.64818 9.71464 9.60292 9.77006 9.55741 9.8258C9.46322 9.94116 9.36794 10.0578 9.28641 10.139C9.14735 10.2773 9.00829 10.4217 9.16549 10.6925C9.32269 10.9632 9.86685 11.8536 10.677 12.5695C11.5379 13.3315 12.2868 13.6565 12.6736 13.8243C12.7541 13.8592 12.8189 13.8873 12.8658 13.9112C13.1379 14.0495 13.2951 14.0255 13.4523 13.845C13.6095 13.6645 14.1294 13.0569 14.3108 12.7861C14.4922 12.5094 14.6736 12.5575 14.9215 12.6478Z" fill="white"/>
</svg>
