<svg width="29" height="20" viewBox="0 0 29 20" fill="none" xmlns="http://www.w3.org/2000/svg">
<path opacity="0.5" d="M14.775 0.00878906C14.775 0.00878906 5.919 0.00878906 3.70501 0.591418C2.49314 0.917691 1.53781 1.87302 1.21154 3.08489C0.628906 5.29888 0.628906 9.88982 0.628906 9.88982C0.628906 9.88982 0.628906 14.5045 1.21154 16.6952C1.53781 17.9071 2.49314 18.8624 3.70501 19.1887C5.919 19.7713 14.775 19.7713 14.775 19.7713C14.775 19.7713 23.631 19.7713 25.8449 19.1887C27.0568 18.8624 28.0126 17.9071 28.3389 16.6952C28.9215 14.4812 28.9215 9.88982 28.9215 9.88982C28.9215 9.88982 28.9215 5.29888 28.3389 3.08489C28.0126 1.87302 27.0568 0.917691 25.8449 0.591418C23.631 0.00878906 14.775 0.00878906 14.775 0.00878906ZM11.9319 5.64846L19.2963 9.91349L11.9319 14.1548V5.64846Z" fill="white"/>
</svg>
