<svg width="21" height="20" viewBox="0 0 21 20" fill="none" xmlns="http://www.w3.org/2000/svg">
<g opacity="0.6">
<path fill-rule="evenodd" clip-rule="evenodd" d="M2.72396 3.33337C2.6687 3.33337 2.61571 3.35532 2.57664 3.39439C2.53757 3.43346 2.51562 3.48645 2.51562 3.54171V13.9584C2.51562 14.0734 2.60896 14.1667 2.72396 14.1667H4.80729C4.97305 14.1667 5.13202 14.2326 5.24923 14.3498C5.36644 14.467 5.43229 14.6259 5.43229 14.7917V17.45L8.53229 14.35C8.64939 14.2328 8.80825 14.1669 8.97396 14.1667H17.3073C17.3625 14.1667 17.4155 14.1448 17.4546 14.1057C17.4937 14.0666 17.5156 14.0136 17.5156 13.9584V3.54171C17.5156 3.48645 17.4937 3.43346 17.4546 3.39439C17.4155 3.35532 17.3625 3.33337 17.3073 3.33337H2.72396ZM1.26562 3.54171C1.26562 2.73671 1.91896 2.08337 2.72396 2.08337H17.3073C18.1123 2.08337 18.7656 2.73671 18.7656 3.54171V13.9584C18.7656 14.3451 18.612 14.7161 18.3385 14.9896C18.065 15.2631 17.6941 15.4167 17.3073 15.4167H9.23229L6.25479 18.3942C6.08499 18.5639 5.86868 18.6795 5.63321 18.7263C5.39774 18.7731 5.15368 18.7491 4.93187 18.6572C4.71007 18.5654 4.52047 18.4098 4.38705 18.2102C4.25363 18.0106 4.18238 17.7759 4.18229 17.5359V15.4167H2.72396C2.33718 15.4167 1.96625 15.2631 1.69276 14.9896C1.41927 14.7161 1.26563 14.3451 1.26562 13.9584V3.54171Z" fill="#9FA4AF"/>
<line x1="6.37676" y1="10.0693" x2="14.2075" y2="10.0693" stroke="#9FA4AF" stroke-width="1.4" stroke-linecap="round"/>
<line x1="6.37676" y1="6.99226" x2="14.2075" y2="6.99226" stroke="#9FA4AF" stroke-width="1.4" stroke-linecap="round"/>
</g>
</svg>
