<svg width="21" height="20" viewBox="0 0 21 20" fill="none" xmlns="http://www.w3.org/2000/svg">
<g opacity="0.6">
<path d="M10.0154 12.6007C9.51661 12.6007 9.029 12.4481 8.61426 12.1623C8.19952 11.8765 7.87627 11.4703 7.68539 10.995C7.49451 10.5198 7.44456 9.99682 7.54188 9.49229C7.63919 8.98775 7.87938 8.52431 8.23209 8.16056C8.5848 7.79681 9.03417 7.54909 9.52339 7.44873C10.0126 7.34838 10.5197 7.39988 10.9805 7.59674C11.4414 7.7936 11.8352 8.12697 12.1124 8.5547C12.3895 8.98242 12.5374 9.48529 12.5374 9.99971C12.5367 10.6893 12.2707 11.3504 11.7979 11.838C11.3251 12.3256 10.6841 12.5999 10.0154 12.6007Z" stroke="#9FA4AF" stroke-width="1.4" stroke-miterlimit="10"/>
<path d="M19.2462 10.0002C19.2462 10.0002 16.2986 16.9231 10.0154 16.9231C3.73231 16.9231 0.784668 10.0002 0.784668 10.0002C0.784668 10.0002 3.73231 3.0769 10.0154 3.0769C16.2986 3.0769 19.2462 10.0002 19.2462 10.0002Z" stroke="#9FA4AF" stroke-width="1.4" stroke-miterlimit="10"/>
</g>
</svg>
