<svg width="21" height="20" viewBox="0 0 21 20" fill="none" xmlns="http://www.w3.org/2000/svg">
<g opacity="0.6" clip-path="url(#clip0_2072_3445)">
<path fill-rule="evenodd" clip-rule="evenodd" d="M5.62912 3.33337C3.89662 3.33337 2.09912 4.90004 2.09912 7.09504C2.09912 9.68421 4.03579 12.0617 6.14995 13.8617C7.33262 14.8609 8.60655 15.7467 9.95495 16.5075L10.0158 16.5417L10.0766 16.5084C10.3025 16.3809 10.6275 16.1917 11.0183 15.9467C11.8016 15.4567 12.8433 14.7459 13.8816 13.8617C15.9958 12.0617 17.9325 9.68421 17.9325 7.09504C17.9325 4.90004 16.135 3.33337 14.4025 3.33337C12.6475 3.33337 11.235 4.49087 10.6083 6.36921C10.5666 6.49334 10.487 6.60126 10.3807 6.67771C10.2744 6.75416 10.1467 6.79529 10.0158 6.79529C9.88484 6.79529 9.7572 6.75416 9.65089 6.67771C9.54458 6.60126 9.46496 6.49334 9.42329 6.36921C8.79662 4.49087 7.38329 3.33337 5.62912 3.33337ZM10.0158 17.2525L10.3016 17.8084C10.2132 17.8538 10.1152 17.8776 10.0158 17.8776C9.91636 17.8776 9.81837 17.8538 9.72995 17.8084L10.0158 17.2525ZM0.849121 7.09421C0.849121 4.21087 3.20662 2.08337 5.62912 2.08337C7.54079 2.08337 9.08329 3.10504 10.0158 4.67087C10.9491 3.10504 12.4908 2.08337 14.4025 2.08337C16.8241 2.08337 19.1825 4.21004 19.1825 7.09504C19.1825 10.2767 16.8483 12.9784 14.6916 14.8134C13.3431 15.9524 11.8819 16.9509 10.3308 17.7934L10.31 17.8042L10.3041 17.8067L10.3025 17.8075L10.0158 17.2525L9.72995 17.8084L9.72745 17.8067L9.72162 17.8042L9.70079 17.7934C9.24195 17.5456 8.79116 17.2833 8.34912 17.0067C7.29485 16.3486 6.2892 15.6156 5.33995 14.8134C3.18245 12.9775 0.849121 10.2767 0.849121 7.09504V7.09421Z" fill="#9FA4AF"/>
</g>
<defs>
<clipPath id="clip0_2072_3445">
<rect width="20" height="20" fill="white" transform="translate(0.015625)"/>
</clipPath>
</defs>
</svg>
